<svg width="14" height="14" viewBox="0 0 14 14" fill="none" xmlns="http://www.w3.org/2000/svg">
<path fill-rule="evenodd" clip-rule="evenodd" d="M6.82768 1.18788C3.44406 1.53634 1.18038 4.59411 1.8757 7.87696C2.03558 8.63184 2.4786 9.58188 2.91003 10.0951L2.99117 10.1916L6.88149 6.3003L10.7718 2.40898L10.6716 2.32713C9.70292 1.53558 8.09081 1.05779 6.82768 1.18788ZM10.0946 2.25316C10.2603 2.46385 9.72895 2.98384 9.54048 2.79537C9.424 2.67888 9.45939 2.57825 9.69765 2.34855C9.88906 2.16398 10.0029 2.13663 10.0946 2.25316ZM7.14578 6.56821L3.23392 10.4801L3.37946 10.6243L3.52499 10.7686L7.43684 6.85668L11.3487 2.94478L11.2032 2.80054L11.0576 2.65631L7.14578 6.56821ZM9.21738 3.05632C9.35443 3.16154 9.32724 3.27604 9.11596 3.4833C8.8742 3.72049 8.78739 3.74622 8.68182 3.612C8.52889 3.41758 9.02178 2.90615 9.21738 3.05632ZM7.70113 7.12458L3.81084 11.0159L3.91098 11.0978C4.4761 11.5595 5.43108 11.9938 6.21338 12.1448C10.1368 12.9022 13.5337 9.4513 12.7069 5.54793C12.547 4.79305 12.104 3.84301 11.6726 3.32979L11.5915 3.23327L7.70113 7.12458ZM8.38985 3.91329C8.44507 3.96297 8.45903 4.00453 8.45305 4.10141C8.44389 4.24965 8.02275 4.56657 7.91278 4.50796C7.73357 4.4125 7.75496 4.29296 7.99403 4.05386C8.20885 3.83907 8.27946 3.81398 8.38985 3.91329ZM11.7548 3.91804C11.9187 4.08196 11.5254 4.5917 11.2966 4.5119C11.0915 4.44044 11.1096 4.29959 11.3553 4.05386C11.5733 3.83589 11.6474 3.81069 11.7548 3.91804ZM7.50727 4.72262C7.68335 4.81642 7.66087 4.93745 7.42312 5.17519C7.21041 5.38791 7.14483 5.4119 7.02785 5.31987C6.9142 5.23048 6.93937 5.11446 7.11166 4.93385C7.32509 4.71013 7.40432 4.6678 7.50727 4.72262ZM10.925 4.77895C11.0242 4.88999 10.9992 4.96037 10.7844 5.17519C10.5728 5.38682 10.506 5.41178 10.3917 5.32193C10.257 5.21592 10.2894 5.11107 10.5292 4.87801C10.7403 4.67281 10.8137 4.65442 10.925 4.77895ZM6.72916 5.6145C6.89985 5.80223 6.41508 6.31215 6.20547 6.16534C6.06877 6.0696 6.09501 5.95409 6.30156 5.74212C6.5161 5.52199 6.61754 5.49171 6.72916 5.6145ZM10.0857 5.61028C10.1925 5.71703 10.1537 5.81609 9.91533 6.04598C9.70804 6.24585 9.58529 6.25902 9.49579 6.09097C9.38002 5.87367 9.914 5.43856 10.0857 5.61028ZM5.88988 6.44481C5.99723 6.55214 5.97204 6.62625 5.75406 6.84425C5.50621 7.09211 5.33972 7.10813 5.28482 6.88939C5.22805 6.66314 5.73542 6.29033 5.88988 6.44481ZM9.23797 6.43369C9.35445 6.55017 9.31906 6.6508 9.0808 6.88051C8.85341 7.09976 8.63583 7.08399 8.63583 6.84829C8.63583 6.63356 9.11079 6.30651 9.23797 6.43369ZM5.02155 7.25215C5.1586 7.35737 5.13141 7.47186 4.92014 7.67913C4.67838 7.91632 4.59156 7.94205 4.48599 7.80783C4.33307 7.61341 4.82595 7.10198 5.02155 7.25215ZM8.39936 7.26945C8.52085 7.38262 8.4864 7.4835 8.24768 7.71367C8.03963 7.91428 7.93339 7.9373 7.83102 7.80398C7.67772 7.60432 8.21571 7.09834 8.39936 7.26945ZM4.19087 8.10295C4.32634 8.20952 4.29382 8.31205 4.04754 8.55483C3.85861 8.74107 3.73918 8.77331 3.64936 8.66237C3.48092 8.45436 3.98092 7.93781 4.19087 8.10295ZM7.57528 8.12915C7.70399 8.28416 7.32427 8.77162 7.1156 8.71923C6.90907 8.6674 6.91635 8.49829 7.13484 8.27216C7.35761 8.04159 7.4718 8.00453 7.57528 8.12915ZM3.37946 8.96368C3.49365 9.10121 3.17006 9.56375 2.95964 9.56375C2.73038 9.56375 2.70849 9.34703 2.91583 9.12968C3.1514 8.88273 3.27539 8.83834 3.37946 8.96368ZM6.67274 8.91845C6.8377 9.00631 6.82346 9.13047 6.62485 9.33646C6.39498 9.57488 6.25965 9.61943 6.16704 9.48721C6.0347 9.29826 6.46891 8.80989 6.67274 8.91845ZM5.89463 9.80931C6.06191 9.99652 5.56474 10.5217 5.36524 10.3686C5.22817 10.2633 5.25538 10.1488 5.46666 9.94184C5.7105 9.70303 5.78033 9.6814 5.89463 9.80931ZM5.04214 10.6295C5.15863 10.746 5.12323 10.8466 4.88497 11.0763C4.69356 11.2609 4.57972 11.2883 4.48806 11.1717C4.32231 10.961 4.85367 10.4411 5.04214 10.6295Z" fill="#333333"/>
</svg>
