<svg width="60" height="60" viewBox="0 0 60 60" fill="none" xmlns="http://www.w3.org/2000/svg">
<path fill-rule="evenodd" clip-rule="evenodd" d="M48.1626 27.1269C48.1504 27.1391 47.9318 27.1728 47.6769 27.2018C46.4799 27.3377 46.1515 27.4467 45.8282 27.815C45.4191 28.2808 45.4531 27.6649 45.4271 35.0884C45.3538 56.0293 45.3474 55.5351 45.6842 55.1983C45.8048 55.0777 45.8141 54.4835 45.8241 46.2802C45.8455 28.7517 45.8461 28.6031 45.9034 28.4761C46.0778 28.0894 46.428 27.7939 46.7143 27.7918C46.9421 27.7901 46.916 27.8458 46.6223 27.9879L46.3992 28.096L46.5087 28.2126C46.5689 28.2767 46.6695 28.3292 46.7321 28.3292C46.7948 28.3292 46.893 28.3762 46.9504 28.4336L47.0548 28.5379L47.0236 33.7601C46.9121 52.4454 46.9225 55.121 47.1066 55.121C47.3903 55.121 47.3801 55.485 47.4095 44.272C47.4472 29.8724 47.4587 28.8641 47.5866 28.7578C47.7735 28.6022 49.2173 28.6315 49.3231 28.793C49.4005 28.9113 49.3788 31.8315 49.2713 35.7496C49.2341 37.1048 49.0606 47.7601 49.058 48.8516C49.0574 49.0806 49.0446 49.8631 49.0296 50.5904C48.934 55.2006 48.9363 55.3118 49.1299 55.3861C49.3439 55.4682 49.3935 54.6365 49.4652 49.7578C49.4787 48.8418 49.4987 47.9382 49.5098 47.7496C49.5208 47.561 49.5443 46.2606 49.5617 44.8598C49.5793 43.459 49.614 41.5084 49.639 40.5251C49.7393 36.5741 49.7917 28.8659 49.7216 28.378C49.6658 27.9899 49.6994 27.9633 50.3971 27.8412C50.7204 27.7846 51.0455 27.7255 51.1196 27.7097C51.2388 27.6843 51.263 27.7015 51.3278 27.8566C51.4511 28.1516 51.4255 28.2574 51.193 28.4134C50.8357 28.653 50.8744 27.98 50.7623 35.921C50.7371 37.7125 50.695 40.5447 50.6689 42.2149C50.6428 43.8851 50.6093 47.2353 50.5943 49.6598C50.5793 52.0843 50.5555 54.3007 50.5413 54.585C50.5173 55.066 50.5227 55.1087 50.6185 55.1954C50.9141 55.4629 50.9727 54.5653 51.0325 48.8516C51.048 47.3835 51.0812 45.0912 51.1065 43.7578C51.1318 42.4243 51.1643 39.9778 51.1788 38.321C51.2656 28.3906 51.2528 29.0991 51.3483 28.9659C51.4672 28.8 52.8579 28.7484 53.0301 28.9034C53.1348 28.9977 53.1344 28.8804 53.0408 32.2965C53.0089 33.4569 52.8533 42.0113 52.8011 45.472C52.7891 46.2667 52.7545 47.9639 52.7244 49.2435C52.5809 55.3256 52.5813 55.3664 52.7828 55.4052C53.005 55.448 53.049 54.9288 53.1132 51.5142C53.1399 50.0902 53.1732 48.5725 53.1873 48.1414C53.2014 47.7104 53.2244 46.4982 53.2386 45.4476C53.2528 44.3969 53.2861 42.6888 53.3127 41.6516C53.3393 40.6145 53.3828 38.3884 53.4096 36.7047C53.4363 35.021 53.4701 33.2798 53.4847 32.8353C53.4993 32.3908 53.5179 31.2447 53.5261 30.2884C53.5428 28.3441 53.5602 28.2312 53.8448 28.2312C54.3216 28.2312 54.3815 28.5123 54.325 30.4843C54.2696 32.4174 54.1976 36.3985 54.1673 39.2027C54.136 42.0929 54.1047 44.4091 54.0655 46.721C53.9361 54.3567 53.9463 55.2163 54.1675 55.239C54.3471 55.2573 54.3933 54.7085 54.4394 52.0108C54.5192 47.3459 54.5407 45.5148 54.5845 39.6561C54.6082 36.4977 54.6375 33.8969 54.6497 33.8765C54.7305 33.7408 54.7296 28.3472 54.6488 28.2312C54.5524 28.0931 54.3844 27.9414 54.3249 27.939C54.3031 27.9381 54.0827 27.8101 53.8351 27.6544C53.1249 27.2081 53.2575 27.2288 51.7585 27.3321C50.249 27.4361 50 27.4363 49.8018 27.3339C49.4661 27.1603 48.2792 27.0104 48.1626 27.1269ZM48.7958 27.817C48.9141 28.1186 48.9882 28.1468 49.1641 27.9571L49.2821 27.8299L49.313 27.9532C49.3647 28.1594 49.3086 28.2187 49.0347 28.247C47.9925 28.3548 47.5318 28.2441 47.5318 27.8857C47.5318 27.5815 47.861 27.5626 48.1247 27.8516C48.3234 28.0695 48.4624 28.0415 48.4624 27.7835C48.4624 27.6963 48.5978 27.587 48.6768 27.6104C48.7005 27.6174 48.7541 27.7104 48.7958 27.817ZM53.0052 27.7757C53.2326 27.8553 53.245 27.8754 53.1484 28.0075C53.0879 28.0902 53.079 28.0857 53.02 27.9434C52.9464 27.7657 52.7499 27.7284 52.7009 27.8827C52.6542 28.0298 52.771 28.2312 52.9029 28.2312C53.0728 28.2312 53.0426 28.3609 52.8644 28.3965C52.2438 28.5207 51.793 28.3736 51.793 28.0469C51.793 27.7987 51.9194 27.6905 52.0354 27.8394C52.3174 28.2013 52.3532 28.2081 52.4791 27.9234C52.5935 27.6647 52.6248 27.6322 52.7211 27.6716C52.7628 27.6888 52.8908 27.7356 53.0052 27.7757ZM37.5402 29.0587C37.3898 29.1005 37.3517 29.2554 37.4705 29.3423C37.6106 29.4447 43.2626 29.4362 43.3959 29.3334C43.4886 29.2618 43.4876 29.257 43.3535 29.1375L43.2161 29.0149L40.4392 29.0198C38.912 29.0225 37.6074 29.04 37.5402 29.0587ZM42.4869 32.2011C41.5844 32.2191 40.2323 32.2369 39.4822 32.2407C38.0532 32.2479 37.6215 32.3014 37.553 32.48C37.4741 32.6857 38.266 32.8514 38.4231 32.662C38.474 32.6007 38.9087 32.5901 41.452 32.5883C43.0853 32.5871 44.5174 32.5676 44.6345 32.545C45.1763 32.4403 45.036 32.1422 44.4529 32.159C44.274 32.1641 43.3893 32.1831 42.4869 32.2011ZM38.3563 35.17C38.1045 35.4217 38.5185 35.5246 41.6787 35.9951C41.9212 36.0312 42.5714 36.1303 43.1236 36.2154C43.6759 36.3004 44.2099 36.382 44.3104 36.3968C44.6706 36.4494 44.8736 36.295 44.6542 36.1352C44.5191 36.0368 44.3768 36.0063 43.1971 35.8236C42.8469 35.7693 42.4281 35.703 42.2665 35.6761C42.1048 35.6493 41.6861 35.5827 41.3359 35.5281C40.1005 35.3354 39.7154 35.2742 39.309 35.2062C38.8739 35.1332 38.4106 35.1157 38.3563 35.17Z" fill="black"/>
<path fill-rule="evenodd" clip-rule="evenodd" d="M31.5283 0.0197567C31.5459 0.121092 31.2626 0.169234 31.1583 0.0826563C31.0083 -0.0417964 30.0865 0.0404614 29.8511 0.199366C28.9299 0.821349 28.0586 1.86046 27.3856 3.13955C26.9648 3.93929 26.7945 4.13 25.6229 5.11418C21.5892 8.50246 21.082 9.0194 20.3735 10.4642C19.6403 11.9595 20.489 12.9853 22.8696 13.4812L23.3428 13.5798L23.4378 13.8594C23.6498 14.483 23.7508 14.5331 24.5529 14.4126C24.8725 14.3646 25.145 14.3363 25.1584 14.3497C25.2179 14.4092 24.537 15.7075 24.2004 16.1762C23.4947 17.1589 22.829 18.7033 22.6778 19.708C22.5835 20.3353 22.4848 20.6412 22.0874 21.539C21.743 22.3167 21.676 22.6864 21.7537 23.3796C21.8051 23.838 21.8008 23.8851 21.696 24.0184C21.561 24.19 21.5439 24.5724 21.6652 24.7064C21.803 24.8587 21.7168 25.1906 21.518 25.2729C21.3101 25.3591 21.1338 25.5816 21.1338 25.7579C21.1338 25.905 21.19 25.8752 18.8893 26.9511C17.2817 27.7028 13.5162 29.6185 12.9005 29.9978C12.784 30.0695 12.4993 30.2254 12.2679 30.3441C9.40006 31.8153 9.27532 32.0729 9.73888 35.5656C10.1455 38.6289 10.4708 40.9888 10.586 41.7097C10.7831 42.944 10.8594 43.6164 10.9487 44.908C10.9967 45.6024 11.0616 46.3458 11.093 46.5601L11.15 46.9498L10.5446 47.562C9.35225 48.7677 8.64152 49.374 7.68529 50.0012C5.19412 51.6354 5.03543 51.824 5.56604 52.5206C6.20602 53.3607 8.64488 53.2032 10.6617 52.1915C11.6271 51.7072 11.881 51.6437 13.0961 51.5832C14.4404 51.5163 14.9928 51.369 15.2647 51.0048L15.378 50.853L15.252 49.2742L15.126 47.6955L15.2681 47.5471C15.4405 47.3672 15.4525 47.1231 15.3135 46.6274C15.1927 46.1965 15.1779 44.5715 15.2879 43.8139C15.5673 41.8907 15.7553 40.4229 15.8307 39.5775C15.8788 39.0375 15.9729 38.1962 16.0398 37.7081C16.1481 36.9179 16.154 36.7642 16.0935 36.3053C16.0561 36.0219 16.0197 35.7405 16.0125 35.68C16.004 35.6085 16.0387 35.5624 16.1116 35.5484C16.3433 35.5039 20.0773 34.5745 20.9935 34.3333C22.2455 34.0038 22.3421 34.0027 22.3914 34.3172C22.4497 34.6882 22.6729 35.6759 23.1809 37.81C23.438 38.8902 23.6771 39.9158 23.7122 40.0892C23.7993 40.519 24.0798 41.0789 24.5074 41.6762C24.8714 42.1849 28.538 45.8429 30.3926 47.5478C34.1219 50.9762 34.4839 51.3367 34.7353 51.8723C34.9357 52.2994 35.1534 52.5318 35.4371 52.6215L35.5716 52.664L35.5374 53.6255C35.4804 55.2235 35.2221 56.223 34.462 57.7853C33.617 59.5225 33.7446 60.0033 35.05 60C36.5424 59.9962 37.4127 59.2933 38.5564 57.1681C39.7032 55.0372 39.8641 54.7749 40.4844 54.026C41.2226 53.1347 41.4275 52.597 41.1981 52.1533C41.0062 51.7823 39.788 50.8388 38.9054 50.3776C38.6473 50.2427 38.5852 50.1833 38.584 50.0702C38.5811 49.7635 38.3753 49.4779 37.715 48.8638C36.9769 48.1774 36.7001 47.8271 35.6874 46.2988C35.2282 45.6058 34.8888 45.0197 34.6892 44.575C34.0824 43.2233 32.9627 41.6969 31.5919 40.3527C31.2872 40.054 30.9058 39.6597 30.7445 39.4766C30.546 39.2515 30.3255 39.0778 30.0626 38.9397C29.5215 38.6554 29.4657 38.4681 29.6345 37.5014C29.6803 37.2391 29.8198 36.2039 29.9446 35.2009C30.2517 32.7334 30.3051 32.4212 30.5589 31.6099C31.5715 28.3725 31.6204 27.149 30.7995 25.5869C30.5956 25.1989 30.5109 24.7118 30.6221 24.5664C30.7832 24.3557 31.0238 23.5019 30.9655 23.3476C30.9088 23.1971 30.9215 23.1649 31.1245 22.9447C31.3959 22.6503 31.5148 22.3769 31.5148 22.0478C31.5148 21.7847 31.5271 21.7573 32.1065 20.7245C32.5153 19.9956 32.4708 20.0603 33.6008 18.5532C35.6799 15.7802 35.9822 15.152 36.0396 13.4862C36.0539 13.0696 36.092 12.6247 36.1242 12.4976C36.1702 12.316 36.1652 12.2319 36.1006 12.1049C36.0408 11.987 36.0258 11.8216 36.0455 11.4943C36.0774 10.9618 36.0021 10.6381 35.7992 10.4351L35.6508 10.2868L35.8037 10.1611C36.199 9.8362 36.2719 9.743 36.3107 9.51334C36.3435 9.31903 36.3768 9.27145 36.4999 9.2425C36.7273 9.18902 36.956 8.94242 37.0223 8.67915C37.0718 8.4822 37.1098 8.43653 37.249 8.40589C37.341 8.38569 37.5321 8.25821 37.6737 8.12253C37.8153 7.98686 37.9361 7.88205 37.9421 7.88956C37.9481 7.89708 38.0628 8.17545 38.1969 8.50818C38.5014 9.26354 38.6385 9.43002 39.1932 9.71865C39.776 10.0218 40.1474 10.1042 40.3887 9.98383C40.4864 9.93507 40.6446 9.895 40.7402 9.89483C41.2922 9.89388 41.5882 9.63729 41.4271 9.29945C41.3157 9.06586 41.3717 8.9799 42.1624 8.17124C42.7664 7.55352 42.8032 7.08966 42.2481 7.08966C42.1386 7.08966 42.1203 7.06053 42.1203 6.88541C42.1203 6.63718 41.8891 6.13533 41.8397 6.27628C41.8219 6.327 41.7894 6.36667 41.7674 6.36437C41.6169 6.34872 41.5649 6.3825 41.4711 6.55661C41.3452 6.79042 41.3814 6.78509 41.0878 6.61305C40.8097 6.45005 40.7713 6.38087 40.6056 5.74374C40.3658 4.8219 39.7056 4.1529 38.4928 3.60302C38.1918 3.46656 38.1363 3.41931 38.1363 3.29985C38.1363 2.93261 37.818 2.51824 37.4886 2.4564C37.3853 2.43704 37.2371 2.34721 37.1534 2.25323C36.9663 2.04337 36.6071 1.88071 36.2837 1.8595C36.1071 1.84794 35.9883 1.79901 35.8661 1.68752C35.6453 1.48603 35.342 1.40445 34.8536 1.41522C34.6376 1.41999 34.3346 1.38683 34.1802 1.34155C33.4579 1.12967 32.7948 0.969985 32.3846 0.909161C31.8395 0.828306 31.7955 0.798007 31.7951 0.503876C31.7949 0.339136 31.7542 0.223662 31.6542 0.103922C31.5769 0.0113402 31.5202 -0.0265343 31.5283 0.0197567ZM30.4697 0.741391C29.9663 1.21799 29.3955 1.8618 29.2722 2.09242C29.1664 2.28998 29.3594 2.30951 29.5075 2.11621C29.958 1.52806 31.2523 0.356419 31.4516 0.356419C31.6748 0.356419 31.5815 0.505111 31.0079 1.06273C30.5152 1.5418 29.9437 2.21114 29.9437 2.30917C29.9437 2.4573 30.0687 2.42128 30.2365 2.22489C30.6652 1.72293 31.249 1.15436 31.4539 1.03917C31.9388 0.766641 31.7635 1.21036 31.1096 1.91079C30.5597 2.49983 30.1648 3.06879 29.9654 3.55959C29.8056 3.9527 29.8129 3.99427 30.0139 3.83621C30.3138 3.60027 30.859 3.38649 31.1608 3.38643C31.6537 3.38632 31.6144 3.50432 31.0223 3.80154C30.738 3.94428 30.4562 4.15688 30.094 4.5019C29.4769 5.08972 29.4723 5.09247 28.8072 5.26113C27.6048 5.56615 26.836 6.08775 25.767 7.32369C24.9677 8.24783 23.9688 9.01564 23.3262 9.1998C22.4965 9.43759 22.2985 9.51401 21.9674 9.72398C21.5522 9.98742 21.5723 10.0001 22.1116 9.81499C22.4874 9.68594 23.4175 9.52282 23.4712 9.57652C23.4849 9.59027 23.4664 9.77274 23.4299 9.98209C23.3294 10.5593 23.3929 11.1107 23.6558 11.9432C23.8719 12.6274 24.0208 13.344 23.9655 13.4334C23.9059 13.5298 22.0904 13.1088 21.4831 12.8578C20.4172 12.4172 20.0721 11.5618 20.5549 10.5569C21.2038 9.20636 21.7096 8.67387 24.8672 6.01694C26.7149 4.46218 26.7763 4.40719 27.0466 4.06267C27.1811 3.89131 27.3862 3.56172 27.5024 3.33026C28.0822 2.17467 29.2228 0.776067 29.8975 0.393171C30.2792 0.176585 30.277 0.20262 29.8788 0.624738C29.3665 1.16777 29.2462 1.34514 29.3605 1.38902C29.4171 1.41073 29.4905 1.37173 29.5606 1.28258C29.8432 0.923413 30.62 0.271973 30.8134 0.231966C31.0274 0.187695 30.9792 0.259123 30.4697 0.741391ZM32.9457 1.23404C33.4622 1.35832 33.4575 1.35569 33.3514 1.46168C33.2814 1.53176 33.1673 1.54988 32.8587 1.53984L32.4571 1.52682L32.2228 1.77135C32.0939 1.90585 31.9009 2.05061 31.7938 2.09314C31.3396 2.27337 31.1101 2.71288 31.2924 3.05342C31.3458 3.15335 31.3302 3.16193 31.094 3.16193C30.8457 3.16193 30.8396 3.15789 30.9042 3.03569C31.0686 2.72405 31.4329 2.23819 31.7948 1.84794C32.1035 1.51498 32.1882 1.38672 32.1882 1.25222C32.1882 1.05886 32.215 1.05825 32.9457 1.23404ZM34.2192 1.56846C34.3523 1.63725 34.475 1.64948 34.7434 1.62075C35.1784 1.57418 35.4955 1.65419 35.7455 1.87375C35.8542 1.9692 35.9984 2.03973 36.0847 2.03973C36.3935 2.03973 36.7379 2.16974 36.9715 2.37448C37.1029 2.48968 37.3013 2.61374 37.4126 2.65015C37.7572 2.76293 37.9679 3.08865 37.9679 3.50847C37.9679 3.61177 38.0046 3.67097 38.084 3.69622C38.3683 3.78644 38.494 4.27123 38.3331 4.6566C38.2553 4.84261 38.2574 4.86842 38.3611 5.01413C38.4942 5.20098 38.5086 5.57159 38.3954 5.89249C38.3448 6.0359 38.3274 6.24783 38.3453 6.50274C38.377 6.95516 38.2773 7.14363 37.9418 7.26494C37.7707 7.32678 37.7511 7.35551 37.7536 7.54056C37.7587 7.90673 37.5101 8.15581 37.0541 8.24138C36.8552 8.27869 36.8456 8.29064 36.8456 8.50296C36.8456 8.80405 36.606 9.05352 36.3169 9.05352C36.1207 9.05352 36.1162 9.05845 36.1162 9.27431C36.1162 9.58701 36.0306 9.77358 35.8508 9.85292C35.7653 9.89063 35.6623 9.96609 35.622 10.0206C35.3526 10.3845 34.8794 9.97906 35.05 9.53045C35.0991 9.40134 35.0851 9.36527 34.9378 9.24126C34.6973 9.03893 34.7247 8.89607 35.052 8.64677C35.3671 8.40685 35.6478 7.9592 35.6995 7.61412C35.8367 6.69963 34.9389 6.34681 34.3232 7.07327C34.2193 7.19587 34.1579 7.23958 34.1782 7.17635C34.312 6.76152 34.2857 6.61883 34.0179 6.30506C33.7221 5.95853 33.7091 5.8908 33.8937 5.66002L34.0274 5.49287L33.8684 5.39619C33.4856 5.16339 33.4606 4.85916 33.8 4.56127L33.997 4.38828L33.6116 4.42531C33.1554 4.46925 32.9552 4.40719 32.8411 4.18662C32.7791 4.06666 32.7138 4.02508 32.5719 4.01532C32.1333 3.98507 31.9638 3.80703 31.9638 3.37689C31.9638 3.18814 31.9501 3.15946 31.8859 3.21283C31.7775 3.30277 31.4587 3.0335 31.4587 2.85198C31.4587 2.5234 31.7089 2.26596 32.0311 2.26293C32.1211 2.26209 32.1856 2.20694 32.2443 2.08058C32.3702 1.80979 32.6761 1.67838 33.0133 1.75025C33.263 1.8035 33.2877 1.79761 33.4643 1.64263C33.6802 1.45304 33.9456 1.42695 34.2192 1.56846ZM39.1354 4.22388C39.9633 4.76742 40.237 5.06626 40.3475 5.54662C40.3687 5.6392 40.4004 5.76282 40.4179 5.82139C40.4385 5.89035 40.3645 5.84591 40.2075 5.69515C40.0744 5.56716 39.9464 5.46246 39.9231 5.46246C39.8998 5.46246 39.7768 5.28453 39.6498 5.0671C39.3439 4.54337 39.1119 4.28739 38.8297 4.16261C38.6215 4.07053 38.4571 3.89137 38.5808 3.89137C38.6073 3.89137 38.8569 4.04101 39.1354 4.22388ZM31.3549 4.15789C31.2109 4.44327 30.9128 5.35237 30.8167 5.79912C30.7465 6.12489 30.7378 6.13988 30.7347 5.93939C30.7257 5.36252 31.2059 3.94748 31.4106 3.94748C31.4384 3.94748 31.4133 4.04219 31.3549 4.15789ZM32.1882 4.3765C32.1882 4.38828 32.0967 4.35966 31.985 4.31292C31.8732 4.26624 31.7722 4.22803 31.7605 4.22803C31.7488 4.22803 31.7393 4.18982 31.7393 4.14308C31.7393 4.07777 31.7913 4.09252 31.9638 4.20665C32.0872 4.28835 32.1882 4.36477 32.1882 4.3765ZM30.8415 4.24632C30.8415 4.25637 30.7721 4.32577 30.6872 4.40063L30.5329 4.53664L30.6689 4.38233C30.796 4.23813 30.8415 4.20228 30.8415 4.24632ZM32.6371 4.2824C32.6371 4.31225 32.5992 4.32218 32.5529 4.30445C32.5067 4.28666 32.4688 4.2622 32.4688 4.25008C32.4688 4.23796 32.5067 4.22803 32.5529 4.22803C32.5992 4.22803 32.6371 4.25249 32.6371 4.2824ZM32.1206 4.56469C32.511 4.56469 32.5207 4.7535 32.1503 5.13993C31.5887 5.72578 31.2502 6.3256 31.0392 7.10834C30.9799 7.32857 30.9602 7.35938 30.9574 7.23661C30.9465 6.76085 31.2965 5.17382 31.5416 4.58714C31.6231 4.39215 31.6239 4.39182 31.7908 4.47811C31.8828 4.52575 32.0313 4.56469 32.1206 4.56469ZM33.0631 4.77471C33.0203 4.81747 32.6506 4.67669 32.5789 4.59028C32.5322 4.53389 32.5993 4.54573 32.8002 4.62922C32.9589 4.69515 33.0772 4.76063 33.0631 4.77471ZM39.0433 5.04163C39.1322 5.34535 39.3325 5.60543 39.6138 5.78234C40.5516 6.37217 40.5762 6.39804 40.2265 6.42699C40.0944 6.43788 39.9221 6.39894 39.7636 6.32223C39.6247 6.25507 39.3595 6.15806 39.1744 6.1066L38.8377 6.01307V5.44315C38.8377 5.12972 38.8181 4.79755 38.7941 4.70497L38.7506 4.53664L38.8641 4.67691C38.9266 4.75406 39.0072 4.91819 39.0433 5.04163ZM30.6652 5.06968C30.597 5.33391 30.537 5.84547 30.504 6.44439C30.4099 8.14958 30.3458 8.34232 29.805 8.54791C29.621 8.61782 29.2886 7.98327 28.9396 6.89563C28.5964 5.82644 28.5756 5.95 29.1327 5.74839C29.8177 5.50056 29.9254 5.43485 30.3558 5.0019C30.8134 4.54157 30.8021 4.53911 30.6652 5.06968ZM38.6356 4.95746C38.6372 5.02244 38.6198 5.01801 38.5592 4.93799C38.516 4.88099 38.4959 4.79446 38.5147 4.7457C38.5522 4.64779 38.6312 4.78605 38.6356 4.95746ZM33.0552 5.21501C33.0738 5.31404 33.1232 5.4234 33.1649 5.45808C33.2067 5.49276 33.2561 5.59706 33.2746 5.68998C33.2953 5.79345 33.4623 6.02154 33.7057 6.27869C34.0414 6.6332 34.0961 6.71798 34.0583 6.82392C33.9859 7.02608 34.0026 7.49724 34.0831 7.52445C34.1222 7.53775 34.2987 7.4064 34.4753 7.23263C34.9132 6.8017 35.3068 6.76018 35.4475 7.13011C35.5226 7.32751 35.5141 7.33418 35.3511 7.20597C34.9936 6.9248 34.4427 7.13208 34.3439 7.58494C34.3259 7.66742 34.3022 7.76461 34.2911 7.80085C34.2534 7.92553 34.3816 8.26668 34.4876 8.32341C34.8208 8.50173 35.1068 8.06496 34.9074 7.68252C34.7409 7.36325 35.0589 7.23846 35.366 7.50257L35.5198 7.63494L35.3653 7.95084C35.0378 8.62012 34.2516 9.01042 34.0764 8.59061L34.0004 8.40825L33.9062 8.62966C33.7041 9.10475 33.313 9.43911 32.7156 9.64744L32.4292 9.74732L31.8899 9.58527C31.2981 9.40752 31.3246 9.43462 31.1529 8.83289C30.9755 8.21124 31.1596 7.15525 31.6017 6.25928C32.1352 5.17803 32.9399 4.59993 33.0552 5.21501ZM33.6655 5.60801C33.6338 5.69032 33.5355 5.71793 33.5342 5.64482C33.5338 5.6217 33.5171 5.53961 33.4973 5.46246C33.4617 5.32409 33.4628 5.32358 33.5785 5.42565C33.643 5.48254 33.6821 5.56463 33.6655 5.60801ZM28.0143 5.76035C27.0226 6.38755 26.0385 7.47165 25.4484 8.58718C25.098 9.24945 25.0642 9.26825 24.1359 9.31651L23.6309 9.34277L23.9114 9.17606C24.6883 8.71444 25.1931 8.27594 26.0037 7.35842C26.6432 6.63471 27.1544 6.19195 27.6991 5.89024C28.047 5.6975 28.2383 5.61867 28.0143 5.76035ZM28.4807 6.0937C28.7402 7.13589 29.2819 8.43501 29.6992 9.01598L29.8939 9.28705L29.4839 9.26365C29.2376 9.24962 28.9166 9.18308 28.6799 9.09695C27.8726 8.80321 26.4106 8.73874 25.7742 8.96873C25.6259 9.02232 25.491 9.05256 25.4745 9.03601C25.4412 9.00274 25.7547 8.41201 26.0608 7.93131C26.4305 7.35057 28.1095 5.79912 28.3683 5.79912C28.3898 5.79912 28.4404 5.93171 28.4807 6.0937ZM38.592 6.06143C38.5259 6.17517 38.5099 6.13875 38.5641 5.99769C38.5833 5.94753 38.6109 5.9183 38.6253 5.93277C38.6398 5.94719 38.6248 6.0051 38.592 6.06143ZM16.0629 6.2921C16.048 6.31634 16.0825 6.33615 16.1397 6.33615C16.1969 6.33615 16.2315 6.31634 16.2165 6.2921C16.2014 6.26786 16.1669 6.248 16.1397 6.248C16.1125 6.248 16.078 6.26786 16.0629 6.2921ZM18.3005 6.30349C18.2808 6.33525 18.3033 6.34468 18.3533 6.32555C18.4505 6.28823 18.4683 6.248 18.3876 6.248C18.3585 6.248 18.3193 6.27297 18.3005 6.30349ZM30.7115 6.37077C30.6936 6.41549 30.6803 6.40219 30.6776 6.33682C30.6752 6.27768 30.6884 6.24458 30.707 6.26321C30.7257 6.28184 30.7277 6.33026 30.7115 6.37077ZM38.7535 6.47244C38.7535 6.5033 38.7156 6.52855 38.6693 6.52855C38.623 6.52855 38.5852 6.5033 38.5852 6.47244C38.5852 6.44158 38.623 6.41633 38.6693 6.41633C38.7156 6.41633 38.7535 6.44158 38.7535 6.47244ZM39.4263 6.68286C39.4259 6.70597 39.3375 6.81056 39.2299 6.91515C39.1222 7.0198 39.0341 7.12714 39.0341 7.15362C39.0341 7.18016 38.9983 7.20188 38.9547 7.20188C38.8579 7.20188 38.7755 7.92839 38.8359 8.25007C38.9507 8.86201 39.5471 9.41088 40.1468 9.45661C40.3374 9.47115 40.4154 9.67073 40.2305 9.67073C39.7276 9.67073 38.9273 9.16742 38.6897 8.70182C38.4631 8.25754 38.5081 6.99842 38.7596 6.74688C38.8656 6.64089 39.4277 6.58691 39.4263 6.68286ZM40.5071 6.67792C40.4685 6.69352 40.4054 6.69352 40.3668 6.67792C40.3282 6.66238 40.3598 6.64964 40.4369 6.64964C40.5141 6.64964 40.5457 6.66238 40.5071 6.67792ZM41.7334 6.97743C41.699 7.15233 41.6798 7.18684 41.6709 7.08966C41.6555 6.9202 41.6661 6.80899 41.7087 6.69688C41.7677 6.54146 41.7836 6.72247 41.7334 6.97743ZM40.6485 7.08949C40.79 7.0896 40.8468 7.05745 40.896 6.94938C40.9781 6.76927 40.9905 6.77134 41.2319 7.00583C41.7923 7.5501 41.6817 8.22522 40.9679 8.61737C39.8492 9.23195 38.5351 8.01402 39.3346 7.10357C39.6856 6.70384 39.7843 6.67893 40.1484 6.89849C40.3366 7.01194 40.5394 7.08943 40.6485 7.08949ZM38.3334 7.78896L38.3327 8.31987L38.1287 7.9156L37.9247 7.51127L38.1287 7.3899C38.2409 7.32319 38.333 7.26618 38.3334 7.26326C38.3338 7.26034 38.3338 7.4969 38.3334 7.78896ZM14.8491 7.48574C14.8491 7.5184 14.8743 7.52956 14.9052 7.51048C14.9361 7.49141 14.9613 7.4647 14.9613 7.45106C14.9613 7.43743 14.9361 7.42632 14.9052 7.42632C14.8743 7.42632 14.8491 7.45308 14.8491 7.48574ZM19.5907 7.48243C19.6098 7.51329 19.6365 7.53854 19.6501 7.53854C19.6638 7.53854 19.6749 7.51329 19.6749 7.48243C19.6749 7.45157 19.6481 7.42632 19.6154 7.42632C19.5828 7.42632 19.5716 7.45157 19.5907 7.48243ZM42.1509 7.5345C42.1307 7.56727 42.0587 7.62287 41.9909 7.65805C41.8735 7.7191 41.8742 7.71523 42.0037 7.57445C42.1329 7.43395 42.2292 7.4078 42.1509 7.5345ZM34.7596 7.99937C34.7476 8.08387 34.7033 8.1277 34.6299 8.1277C34.4987 8.1277 34.4634 8.00055 34.5163 7.71882L34.554 7.51755L34.6659 7.6943C34.7275 7.79148 34.7696 7.92873 34.7596 7.99937ZM17.1782 7.65014C17.1586 7.6819 17.1811 7.69133 17.231 7.67219C17.3282 7.63488 17.346 7.59465 17.2653 7.59465C17.2362 7.59465 17.1971 7.61962 17.1782 7.65014ZM19.6116 7.69284C19.5418 7.78183 19.5438 7.7838 19.6328 7.71405C19.6868 7.67169 19.731 7.62747 19.731 7.61586C19.731 7.56968 19.6849 7.59936 19.6116 7.69284ZM14.8902 7.71383C14.9283 7.75221 14.9736 7.76943 14.9908 7.75215C15.0081 7.73487 14.977 7.7035 14.9216 7.6824C14.8417 7.65199 14.8352 7.65839 14.8902 7.71383ZM41.98 7.93131C41.961 7.96217 41.9153 7.98703 41.8785 7.98658C41.8384 7.98602 41.8453 7.96397 41.8959 7.93131C42.0037 7.86162 42.0231 7.86162 41.98 7.93131ZM30.5953 8.44545C30.6093 8.61013 30.6326 8.79995 30.647 8.86729C30.7511 9.35157 30.2886 9.45947 29.9476 9.0304L29.7738 8.81174L29.9894 8.71523C30.2107 8.61619 30.4168 8.40084 30.4795 8.203C30.5321 8.03741 30.5667 8.10991 30.5953 8.44545ZM45.5755 8.69621C46.6986 9.39242 48.6839 10.6944 49.5585 11.3082C49.7111 11.4153 50.0127 11.6253 50.2288 11.7748C51.197 12.445 52.2148 13.177 53.4381 14.0831L54.2907 14.7146L54.4902 14.3578C54.6 14.1616 54.6898 13.9799 54.6898 13.9541C54.6897 13.7666 53.3203 12.8329 51.4352 11.7347C49.8147 10.7907 44.9849 8.21186 44.8374 8.21186C44.8136 8.21186 45.1458 8.42985 45.5755 8.69621ZM30.9841 8.98372C31.0929 9.36616 31.0873 9.4 30.9232 9.35696C30.8252 9.33126 30.8134 9.2774 30.8134 8.85399C30.8134 8.59319 30.8294 8.43675 30.8489 8.50627C30.8684 8.57579 30.9292 8.79064 30.9841 8.98372ZM39.6808 8.85404C40.2095 9.10491 40.9279 8.99814 41.3384 8.60761C41.5758 8.38176 41.5935 8.37716 41.4961 8.56625C41.3952 8.76202 41.2111 8.9409 41.1496 8.90286C41.117 8.88272 41.1103 8.8959 41.1337 8.93389C41.1604 8.97709 41.0643 9.05032 40.8554 9.14599C40.3114 9.395 39.6427 9.21781 39.273 8.72651C39.0365 8.4124 39.04 8.34765 39.281 8.57495C39.3859 8.67387 39.5658 8.79951 39.6808 8.85404ZM15.9714 8.82481C15.9714 8.85141 16.0092 8.88771 16.0555 8.9055C16.1018 8.92323 16.1397 8.91599 16.1397 8.88945C16.1397 8.86285 16.1018 8.82655 16.0555 8.80876C16.0092 8.79103 15.9714 8.79827 15.9714 8.82481ZM28.1851 9.17169C29.2162 9.42166 30.4698 10.0245 31.7654 10.8933C33.322 11.9372 34.1949 12.2518 35.5343 12.2518C35.9615 12.2518 35.9994 12.2766 35.9138 12.4997C35.8554 12.6518 34.951 12.5971 34.0204 12.3852C33.8844 12.3543 33.8635 12.3646 33.8808 12.4546C33.9075 12.5939 34.6634 12.7964 35.3516 12.8485L35.8497 12.8862L35.821 13.6211C35.762 15.1299 35.4364 15.7829 33.3767 18.5239C32.3861 19.8422 32.3105 19.9532 31.8507 20.7646C31.3511 21.6464 30.8906 21.782 29.5595 21.4395C29.1255 21.3279 29.0299 21.3181 29.0049 21.383C28.9201 21.6039 30.0549 21.9565 30.8555 21.958L31.2904 21.9589V22.1581C31.2904 22.6889 29.9002 23.9349 28.4165 24.7337C26.6909 25.6627 23.08 25.9518 22.0044 25.247C21.7167 25.0585 21.9043 24.9261 22.2795 25.0528C22.9115 25.2661 24.3448 25.3654 24.3776 25.1981C24.391 25.1296 24.3284 25.1033 24.0971 25.0803C22.1473 24.8861 21.687 24.7351 21.7783 24.3193C21.799 24.2247 21.8663 24.1121 21.9278 24.0691C22.0338 23.9948 22.0361 23.9674 21.9719 23.5286C21.8602 22.764 21.9164 22.4418 22.3293 21.4819C22.6783 20.6708 22.7647 20.379 22.945 19.404C23.0947 18.5947 23.7933 17.0711 24.3978 16.2356C24.5876 15.9733 24.8798 15.4751 25.0471 15.1284C25.3808 14.4371 25.4833 14.3583 26.025 14.3761C26.3059 14.3853 27.6266 14.7291 28.1761 14.9361C28.8406 15.1863 29.3451 15.3997 29.426 15.4647C29.4653 15.4963 29.5126 15.507 29.5311 15.4886C29.6004 15.4192 29.4981 15.2961 29.2895 15.1982C29.1709 15.1424 29.0613 15.0804 29.0458 15.0602C28.9622 14.9512 27.8467 14.4914 27.1963 14.2979L26.7776 14.1733L27.1402 14.134C27.8712 14.0546 27.9002 14.0453 27.8479 13.909C27.8043 13.7954 26.5722 13.8793 25.2741 14.0843L25.0654 14.1172L25.097 13.8438C25.1412 13.4611 25.0008 12.9159 24.6438 12.0836C24.2414 11.1454 24.1999 10.978 24.1956 10.2767C24.1914 9.56956 24.1858 9.57804 24.7315 9.46682C24.9595 9.42042 25.3569 9.31869 25.6148 9.24081C26.4825 8.97878 27.2989 8.95684 28.1851 9.17169ZM34.6083 9.17976C34.6663 9.28862 34.6642 9.29664 34.5932 9.23812C34.548 9.20081 34.4491 9.14559 34.3736 9.11546L34.2364 9.06064L34.3887 9.05705C34.4916 9.0547 34.5628 9.09448 34.6083 9.17976ZM34.3362 9.33861C34.4159 9.37497 34.5357 9.53764 34.635 9.74423C34.7805 10.0473 35.0046 10.281 35.2199 10.3543C35.3839 10.4102 35.2011 10.798 35.0286 10.7602C34.8706 10.7255 32.9809 9.97704 32.9347 9.93086C32.924 9.92014 33.0357 9.86639 33.183 9.81145C33.3302 9.75647 33.5989 9.61395 33.7798 9.49471C34.1451 9.25406 34.1485 9.2531 34.3362 9.33861ZM41.2453 9.406C41.3328 9.54476 41.2194 9.62601 40.8945 9.65721C40.497 9.69542 40.4543 9.51761 40.8289 9.38406C41.1246 9.27869 41.1664 9.28088 41.2453 9.406ZM34.8256 9.51777C34.8256 9.64728 34.8127 9.64049 34.7196 9.46161C34.665 9.35651 34.6683 9.34181 34.7401 9.36936C34.7871 9.38743 34.8256 9.4542 34.8256 9.51777ZM24.0315 9.6567C23.9515 9.93967 23.9375 10.382 23.9962 10.774C24.0611 11.2066 24.1449 11.4488 24.6136 12.5567C25.0112 13.4967 24.994 14.1107 24.5678 14.1945C24.3856 14.2303 24.3832 14.2281 24.4275 14.069C24.5275 13.7098 24.4675 13.3549 24.168 12.5324C23.5432 10.8163 23.4248 9.55851 23.8882 9.55851C24.0243 9.55851 24.0536 9.5786 24.0315 9.6567ZM31.3925 9.69957C31.9303 9.82285 31.8821 9.86094 31.3236 9.75411C31.0839 9.70827 30.7069 9.67034 30.4858 9.66989C30.2648 9.66938 30.0461 9.64217 29.9998 9.60935C29.8726 9.51918 30.8946 9.58539 31.3925 9.69957ZM12.7484 9.82262C12.718 9.90258 12.7244 9.90903 12.7798 9.85404C12.8182 9.81594 12.8355 9.77066 12.8182 9.75344C12.8009 9.73615 12.7695 9.7673 12.7484 9.82262ZM15.078 9.92788C15.0807 9.99325 15.094 10.0066 15.1119 9.96183C15.1281 9.92132 15.1261 9.8729 15.1074 9.85427C15.0888 9.83564 15.0756 9.86874 15.078 9.92788ZM31.6664 10.0406C31.8454 10.0922 32.423 10.3049 32.95 10.5131C34.1137 10.9729 34.5659 11.0825 35.2912 11.0804C35.9339 11.0785 35.927 11.0719 35.8428 11.6124C35.767 12.0993 35.7819 12.0903 35.1608 12.0229C33.8768 11.8837 33.325 11.6776 32.1676 10.9053C31.6697 10.573 31.1108 10.2074 30.9257 10.0929L30.589 9.88462L30.965 9.9156C31.1718 9.9326 31.4874 9.98882 31.6664 10.0406ZM17.262 10.0107C17.262 10.0434 17.2872 10.0545 17.3181 10.0354C17.349 10.0164 17.3742 9.98966 17.3742 9.97603C17.3742 9.96239 17.349 9.95128 17.3181 9.95128C17.2872 9.95128 17.262 9.97805 17.262 10.0107ZM35.6813 10.6138C35.8335 10.7445 35.8023 10.849 35.6111 10.849C35.4557 10.849 35.4428 10.8338 35.4428 10.6493C35.4428 10.4412 35.4748 10.4365 35.6813 10.6138ZM17.1217 12.0835C17.1026 12.1143 17.1138 12.1396 17.1464 12.1396C17.1791 12.1396 17.2059 12.1143 17.2059 12.0835C17.2059 12.0526 17.1948 12.0274 17.1811 12.0274C17.1675 12.0274 17.1408 12.0526 17.1217 12.0835ZM12.5484 12.2518C12.5484 12.2827 12.5752 12.3079 12.6079 12.3079C12.6405 12.3079 12.6517 12.2827 12.6326 12.2518C12.6135 12.2209 12.5868 12.1957 12.5732 12.1957C12.5595 12.1957 12.5484 12.2209 12.5484 12.2518ZM11.3958 13.2094C11.3754 13.2423 11.3708 13.2813 11.3855 13.296C11.4002 13.3107 11.4272 13.2838 11.4455 13.2361C11.4834 13.1373 11.4511 13.1199 11.3958 13.2094ZM24.2723 13.4441C24.2744 13.4673 24.2509 13.4862 24.2201 13.4862C24.1892 13.4862 24.1658 13.4168 24.1679 13.3319C24.1716 13.1879 24.2568 13.2796 24.2723 13.4441ZM42.593 13.95C43.9752 16.2012 45.9278 19.7511 47.3609 22.6182L47.7326 23.3618L48.0951 23.1232C48.512 22.849 48.508 22.8974 48.1726 22.1833C47.6084 20.9823 45.947 18.4578 43.2246 14.6645C42.2805 13.3489 42.0954 13.1396 42.593 13.95ZM24.206 13.7073C24.3223 13.7129 24.2851 13.9747 24.1448 14.1378C23.9476 14.367 23.7103 14.206 23.6263 13.786L23.592 13.6146L23.864 13.6593C24.0135 13.6839 24.1675 13.7055 24.206 13.7073ZM10.36 14.2933C10.36 14.3051 10.4106 14.328 10.4723 14.3442C10.5341 14.3603 10.5705 14.3506 10.5531 14.3227C10.523 14.2738 10.36 14.249 10.36 14.2933ZM12.7168 14.293C12.7168 14.3046 12.761 14.3488 12.815 14.3912C12.904 14.4609 12.9059 14.459 12.8362 14.37C12.7628 14.2765 12.7168 14.2468 12.7168 14.293ZM17.2738 14.3618C17.1936 14.4486 17.2478 14.4652 17.3662 14.3902C17.408 14.3636 17.4207 14.3288 17.3942 14.3127C17.3678 14.2967 17.3136 14.3188 17.2738 14.3618ZM17.29 14.5523C17.1986 14.5917 17.1953 14.6013 17.2727 14.6045C17.3249 14.6066 17.3832 14.5832 17.4023 14.5523C17.4422 14.4878 17.4402 14.4878 17.29 14.5523ZM30.7854 23.5352C30.7854 23.7109 30.4726 24.4463 30.3689 24.5142C30.2318 24.604 29.6585 24.7385 29.2142 24.7851L28.9056 24.8175L29.102 24.6984C29.5377 24.4341 29.7485 24.2759 30.1866 23.8843C30.6234 23.4939 30.7854 23.3994 30.7854 23.5352ZM30.3926 24.9828C30.3926 25.2632 30.4416 25.2482 28.991 25.412C28.3268 25.487 27.3919 25.6221 26.9135 25.7122C25.2371 26.028 23.9411 26.1085 23.2381 25.9405C22.9046 25.8608 22.9135 25.8597 24.164 25.824C25.5826 25.7835 25.988 25.7338 26.9135 25.4875C28.0551 25.1837 28.3787 25.1083 28.7014 25.071C29.2787 25.0044 30.0512 24.8748 30.1807 24.8228C30.381 24.7424 30.3926 24.7511 30.3926 24.9828ZM21.9247 25.4801C22.0049 25.534 22.2073 25.6697 22.3745 25.7817C23.1904 26.3282 24.5483 26.3755 26.8574 25.9378C27.3358 25.8471 28.2701 25.7109 28.9336 25.6351C29.5972 25.5593 30.2201 25.4811 30.3179 25.4614C30.6571 25.393 31.1822 26.7702 31.186 27.7382C31.188 28.2453 30.9937 29.5396 30.866 29.8693C30.824 29.9779 30.7401 30.2562 30.6797 30.4877C30.6192 30.7191 30.468 31.2367 30.3435 31.6379C30.1038 32.4112 30.0338 32.834 29.6935 35.5656C29.5859 36.4297 29.4711 37.2756 29.4385 37.4453C29.2513 38.4197 29.3686 38.794 29.9636 39.1206C30.2366 39.2704 30.4638 39.449 30.6245 39.6401C30.7593 39.8002 31.1182 40.1728 31.4221 40.4679C32.7616 41.769 33.9383 43.3687 34.5162 44.6748C35.0766 45.9411 36.4311 47.878 37.4651 48.8918C38.2765 49.6873 38.3606 49.7963 38.3609 50.0524C38.3613 50.3351 37.8251 51.3287 37.5876 51.4854C35.7951 52.6678 35.3544 52.7148 34.9065 51.771C34.6463 51.2226 33.8877 50.4588 30.9833 47.821C29.1875 46.1901 25.3857 42.4468 24.8333 41.7658C24.243 41.0381 24.0306 40.5857 23.8019 39.5689C23.6952 39.0953 23.4823 38.1902 23.3287 37.5576C22.457 33.9686 22.2668 32.7471 22.223 30.4596C22.188 28.631 22.0094 27.8505 21.6257 27.8505C21.5016 27.8505 21.4968 27.8111 21.6922 28.3943C22.1967 29.9005 21.9831 31.8158 21.2161 32.6633C20.3268 33.6459 18.8488 34.2452 16.28 34.6648C14.4699 34.9604 14.352 35.0967 14.9014 36.2589L15.2006 36.8919L15.171 37.7437C15.1504 38.3396 15.0879 38.8991 14.963 39.6056C14.5902 41.7155 14.5693 41.9725 14.6902 42.9492L14.7568 43.4873L14.493 43.9592C13.7159 45.3493 13.6988 45.4376 14.0596 46.1969C14.3513 46.8105 14.3383 46.9247 13.9506 47.1628C13.3583 47.5266 12.8571 47.5549 12.1125 47.2669C11.2661 46.9394 11.3037 47.0216 11.1736 45.2166C11.0593 43.631 10.9859 42.8909 10.8899 42.355C10.7716 41.6951 10.5647 40.2365 10.2172 37.6137C10.0476 36.3329 9.85627 34.8937 9.79207 34.4154C9.52076 32.3941 9.74112 31.9922 11.7494 30.8447C12.6063 30.355 12.6796 30.3156 14.2599 29.4927C17.0873 28.0205 17.3045 27.9128 19.8928 26.7013C20.597 26.3717 20.8465 26.2794 20.9589 26.307C21.2389 26.3757 21.8293 27.0547 22.0962 27.615C22.4427 28.3424 22.6122 28.3298 22.4195 27.5908C22.2657 27.0011 22.0293 26.5347 21.6528 26.0783C21.3193 25.6741 21.3112 25.5951 21.5882 25.4526C21.7593 25.3646 21.7521 25.364 21.9247 25.4801ZM21.5367 26.2737C21.9837 26.7958 22.0049 26.9699 21.5693 26.5406C21.2141 26.1906 21.1445 26.0596 21.3118 26.0558C21.3326 26.0553 21.4337 26.1534 21.5367 26.2737ZM23.2521 26.3196C23.0274 26.3536 23.0463 26.3853 23.6185 26.9322C25.1229 28.3703 27.4886 29.3654 28.264 28.8862C28.582 28.6897 27.8301 27.6589 26.9651 27.1056C26.0608 26.5272 24.3178 26.1581 23.2521 26.3196ZM25.2991 26.6689C26.4767 26.9335 27.644 27.6869 28.0402 28.4378C28.6177 29.5324 25.3003 28.2843 23.8313 26.8543L23.4625 26.4954L24.1359 26.5271C24.5062 26.5446 25.0297 26.6084 25.2991 26.6689ZM22.7374 27.5628C22.6353 27.7281 23.2937 29.0984 23.7949 29.7634C24.493 30.6899 25.5332 31.5406 26.4927 31.9697C26.9712 32.1837 26.9729 32.1865 26.2963 31.6498C25.1539 30.7436 23.8806 29.2543 23.1259 27.9415C22.9035 27.5547 22.803 27.4567 22.7374 27.5628ZM23.9983 29.6039C24.1949 29.8585 24.4704 30.1955 24.6106 30.3528C24.7507 30.51 24.681 30.4499 24.4557 30.2192C24.1118 29.8672 23.5488 29.141 23.6197 29.141C23.6313 29.141 23.8016 29.3493 23.9983 29.6039ZM22.1725 32.8767C22.2215 33.2802 22.2749 33.6615 22.2912 33.7239C22.3181 33.8268 22.2796 33.8441 21.8828 33.9081C21.6418 33.947 21.1285 34.0664 20.7421 34.1735C20.3557 34.2805 19.1811 34.5807 18.1317 34.8404C15.5072 35.4901 15.7338 35.4211 15.7677 35.56C15.9415 36.2721 15.9456 36.8847 15.7847 38.0906C15.7352 38.4609 15.6547 39.2184 15.6057 39.7739C15.5566 40.3294 15.4547 41.2005 15.3791 41.7097C14.9652 44.4981 14.8978 45.6785 15.1019 46.5633C15.3133 47.4797 15.2609 47.5408 14.2259 47.5842L13.5304 47.6134L13.8801 47.4352C14.5274 47.1052 14.5923 46.8563 14.2318 46.0863C13.9144 45.4082 13.908 45.4377 14.6742 44.0527C14.9448 43.5636 14.9596 43.4388 14.8463 42.6096C14.7685 42.0401 14.8092 41.5971 15.0732 40.1386C15.5163 37.6912 15.5175 37.0941 15.0816 36.1719C14.6061 35.1659 14.6406 35.1307 16.3642 34.8639C19.546 34.3714 21.5944 33.2372 21.9336 31.7801L22.0036 31.4792L22.0436 31.8111C22.0656 31.9936 22.1236 32.4731 22.1725 32.8767ZM11.4524 45.2306C11.5813 46.1108 11.7164 46.3278 12.1789 46.3972C12.841 46.4964 12.8336 46.3166 12.146 45.5932C11.8736 45.3066 11.6506 45.0478 11.6506 45.0181C11.6506 44.9884 11.5972 44.9641 11.532 44.9641C11.4225 44.9641 11.4164 44.9844 11.4524 45.2306ZM12.3783 46.1898C12.0867 46.287 11.8005 46.0522 11.7433 45.6689L11.7103 45.4479L12.0745 45.8087C12.2748 46.0073 12.4115 46.1787 12.3783 46.1898ZM11.4217 47.1754C11.6988 47.4229 13.0426 47.8229 13.6031 47.8248L13.9003 47.8257L13.866 48.0362C13.6513 49.355 13.514 49.5023 12.0005 50.0368C10.9985 50.3907 10.1892 50.7343 9.71469 51.0073C9.49865 51.1316 9.11989 51.3506 8.87299 51.494C7.76272 52.1386 6.42492 52.3187 5.75834 51.9134L5.56441 51.7954L5.85912 51.5245C6.02123 51.3754 6.74039 50.8653 7.45729 50.3908C8.83477 49.4792 9.33368 49.0655 10.6116 47.7752C11.3548 47.0249 11.2993 47.0661 11.4217 47.1754ZM15.042 49.1381L15.1506 50.4786L15.0224 50.5824C14.7127 50.8331 14.217 50.9217 12.8851 50.9641C11.6397 51.0038 11.0989 51.0934 10.837 51.3037C10.7032 51.4111 9.06686 52.2003 8.76076 52.305C7.55993 52.7158 6.70043 52.7366 5.98577 52.372C5.69628 52.2243 5.63944 52.125 5.91091 52.2412C6.67894 52.5701 8.00328 52.2625 9.37801 51.4358C10.2 50.9414 10.5815 50.7712 12.1276 50.2087C13.5696 49.6842 13.8446 49.4101 14.0122 48.3305C14.0481 48.0992 14.0866 47.8772 14.0977 47.8373C14.1125 47.7844 14.2286 47.7692 14.5257 47.7812L14.9333 47.7977L15.042 49.1381ZM39.0673 50.717C39.792 51.1435 40.2897 51.4986 40.676 51.8645L41.003 52.1743L40.9163 52.4617C40.7971 52.8571 40.3756 53.4758 39.7934 54.1101C39.0782 54.8892 39.0136 54.9878 38.4374 56.1778C37.339 58.4465 36.801 59.159 35.8617 59.5889C35.2463 59.8707 34.4652 59.8626 34.2146 59.5718L34.0806 59.4163L34.5498 59.3493C35.2631 59.2474 36.0415 58.8357 36.6515 58.2377C37.1922 57.7076 37.2955 57.5185 37.6533 56.4041C37.9292 55.5448 37.9734 55.4611 38.7714 54.2861C39.5011 53.2114 39.6248 52.7539 39.37 52.0729C39.2456 51.7403 38.7629 51.1645 38.4429 50.9667L38.247 50.8456L38.3703 50.6262C38.5207 50.3586 38.4405 50.3482 39.0673 50.717ZM15.1298 50.8555C14.9662 51.1611 14.4365 51.2931 13.1096 51.3588C11.889 51.4193 11.6194 51.4873 10.6259 51.9853C9.85032 52.374 9.33912 52.5498 8.53109 52.7058C7.88376 52.8307 7.49276 52.8528 8.03128 52.734C8.60633 52.6072 9.33194 52.3159 10.2709 51.8349C11.4459 51.233 11.5908 51.1925 12.5727 51.1919C13.8104 51.1912 14.6978 51.0575 15.044 50.8196C15.1905 50.7188 15.2006 50.7231 15.1298 50.8555ZM38.6362 51.4081C39.5772 52.3196 39.5405 52.8066 38.4047 54.4822C37.7751 55.4108 37.7575 55.4455 37.4706 56.3188C37.0978 57.4535 37.0258 57.5893 36.543 58.0703C35.9271 58.6837 34.9789 59.16 34.3734 59.16H34.1375L34.1686 58.9682C34.1857 58.8626 34.3893 58.3892 34.6208 57.9161C35.4454 56.2316 35.8755 54.3706 35.7672 52.9555C35.7445 52.6594 35.7464 52.6551 35.9162 52.6197C36.3151 52.5365 37.7277 51.6958 37.6579 51.583C37.64 51.554 37.6615 51.5442 37.7056 51.5611C37.7913 51.5939 38.1363 51.2209 38.1363 51.0954C38.1363 50.9598 38.2412 51.0255 38.6362 51.4081ZM40.9166 53.0823C40.8348 53.231 40.6426 53.5041 40.4894 53.6893C39.7235 54.6151 39.5245 54.931 38.4561 56.9156C37.7982 58.1377 37.3705 58.7663 37.014 59.0353C36.8502 59.1589 36.8656 59.1305 37.1072 58.864C37.4818 58.451 37.8451 57.8287 38.5341 56.4203C39.1785 55.1031 39.2177 55.0403 39.7887 54.4165C40.4054 53.7427 40.6243 53.468 40.8373 53.1008C41.063 52.7115 41.129 52.6962 40.9166 53.0823ZM6.92186 52.8534C6.90323 52.8721 6.8548 52.8741 6.81434 52.8579C6.76957 52.84 6.78286 52.8267 6.84824 52.824C6.90738 52.8216 6.94049 52.8348 6.92186 52.8534Z" fill="black"/>
</svg>
