<svg width="60" height="60" viewBox="0 0 60 60" fill="none" xmlns="http://www.w3.org/2000/svg">
<path fill-rule="evenodd" clip-rule="evenodd" d="M59.0034 34.099C58.4162 34.4984 56.5241 36.3333 55.6022 37.3975C55.5431 37.4657 55.4452 37.5728 55.3847 37.6354C55.3241 37.698 55.1683 37.8684 55.0385 38.014C54.9087 38.1595 54.7878 38.2944 54.7697 38.3138C54.5587 38.5406 53.2761 39.9943 53.1676 40.1298C53.1495 40.1523 53.1122 40.195 53.0848 40.2247C53.0574 40.2543 52.8747 40.4635 52.6788 40.6897C52.1946 41.2489 52.1981 41.2448 51.8642 41.6386C51.702 41.83 51.5089 42.0578 51.4351 42.1448C51.3613 42.2317 51.2127 42.4097 51.1048 42.5402C50.9969 42.6706 50.8995 42.7845 50.8884 42.7932C50.8773 42.8019 50.8048 42.8873 50.7274 42.983C50.65 43.0787 50.5791 43.1641 50.5698 43.1728C50.5014 43.237 50.3184 43.4747 50.3184 43.4994C50.3184 43.5162 50.6549 43.1898 51.0663 42.7741C51.7697 42.0632 52.8659 40.9929 53.3515 40.5427C53.4707 40.4322 53.6619 40.2516 53.7763 40.1413C53.8907 40.0311 54.1104 39.8247 54.2645 39.6827C54.594 39.3789 54.5358 39.4322 54.9268 39.0765C55.0989 38.9199 55.2627 38.7704 55.2909 38.7444C55.319 38.7183 55.3905 38.6536 55.4499 38.6006C55.5092 38.5476 55.7772 38.3064 56.0455 38.0644C56.3137 37.8225 56.5514 37.6096 56.5736 37.5913C56.5957 37.5731 56.668 37.5083 56.7341 37.4475C56.8002 37.3866 56.9446 37.2585 57.055 37.1628C57.1654 37.0671 57.2784 36.9674 57.3062 36.9414C57.3726 36.8788 57.6648 36.6244 57.9965 36.3402C58.3129 36.0692 58.6158 35.8056 58.6872 35.7394C58.7153 35.7133 58.8647 35.5851 59.0192 35.4547C59.1736 35.3242 59.3222 35.1961 59.3494 35.17C59.3766 35.1439 59.5364 35.0089 59.7046 34.8701C60.0314 34.6002 60.0494 34.5716 59.9396 34.4957C59.9007 34.4688 59.7484 34.3321 59.6013 34.1919C59.2862 33.8915 59.3044 33.8943 59.0034 34.099Z" fill="black"/>
<path fill-rule="evenodd" clip-rule="evenodd" d="M24.5055 3.99053C21.8007 4.27713 19.7494 7.46616 20.742 9.84162C20.7932 9.96411 20.7926 9.99473 20.7382 10.0725C20.6546 10.1917 20.6583 10.4797 20.745 10.6034C20.8106 10.6972 20.8097 10.7065 20.7286 10.7709C20.6813 10.8084 20.6177 10.9103 20.5873 10.9972C20.5323 11.1544 20.5306 11.1553 20.2965 11.1553C19.6923 11.1553 19.0948 11.5827 18.9626 12.1096C18.933 12.2273 18.9082 12.2357 18.2841 12.337C17.3944 12.4815 16.0372 12.7746 15.5523 12.9269C15.4827 12.9488 15.2456 13.0159 15.0253 13.0762C14.3095 13.2719 13.1629 13.6694 12.6008 13.9166C11.8124 14.2634 11.642 14.3446 11.2403 14.565C10.6645 14.8809 10.3997 15.0371 10.2817 15.1304C10.2585 15.1487 10.0687 15.2797 9.86003 15.4214C9.1538 15.901 8.76453 16.1683 8.55291 16.3189C8.43695 16.4013 8.18544 16.576 7.99397 16.7069C7.80254 16.8378 7.62468 16.9705 7.59879 17.0017C7.5729 17.0329 7.53407 17.0584 7.51257 17.0584C7.49102 17.0584 7.32202 17.1723 7.137 17.3114C6.95194 17.4506 6.78867 17.5644 6.77417 17.5644C6.75966 17.5644 6.6844 17.6127 6.60698 17.6718C6.43229 17.805 5.32403 18.5502 5.24071 18.5905C5.20714 18.6067 5.09431 18.6754 4.98995 18.7433C4.34794 19.1608 2.99115 19.8769 2.6287 19.9896C1.89317 20.2182 1.02655 21.1164 1.02647 21.6503C1.02643 21.706 0.944415 21.8958 0.844146 22.072C0.0441886 23.4781 -0.232246 25.7152 0.210572 27.1992C0.385979 27.787 0.499572 28.1062 0.60819 28.3165C0.674094 28.4441 0.79671 28.6902 0.880703 28.8634C1.2047 29.5317 1.76883 30.2867 2.45789 30.9743C2.89788 31.4133 3.56182 31.9849 3.63177 31.9849C3.65597 31.9849 3.68211 32.0015 3.68987 32.0218C3.70202 32.0538 4.10558 32.3239 4.77912 32.7507C4.88348 32.8169 4.99733 32.8897 5.03212 32.9125C5.0669 32.9354 5.19023 33.0143 5.30619 33.0879C5.48775 33.2032 5.72776 33.3571 6.31815 33.7367C6.38773 33.7815 6.47648 33.8373 6.51544 33.8607C6.55436 33.8842 6.76308 34.016 6.97926 34.1535C7.1954 34.291 7.46715 34.4636 7.58311 34.5369C7.69906 34.6103 8.01214 34.8118 8.27883 34.9848C8.70327 35.2601 9.39562 35.7016 9.92243 36.0328C10.856 36.6197 10.815 36.5874 10.7482 36.6824C10.385 37.1993 9.78501 38.3039 9.60193 38.7928C9.34312 39.4839 9.16472 39.8717 8.39095 41.4259L7.79465 42.6235L7.77319 43.0544L7.75177 43.4854L7.45514 43.7975C7.08227 44.1899 6.79567 44.8314 6.91036 45.017C6.92166 45.0353 6.83328 45.1322 6.71391 45.2324C6.18242 45.6785 5.87542 46.0979 5.87542 46.3779C5.87542 46.528 5.72257 47.1423 5.64149 47.3183C5.60784 47.3914 5.58014 47.4862 5.58001 47.5291C5.57984 47.572 5.54948 47.664 5.5125 47.7336C5.3984 47.9482 5.11126 48.6068 5.02533 48.851C4.66153 49.8845 4.68109 49.7931 4.67725 50.4743C4.67211 51.39 4.8979 51.7108 5.80243 52.0726C6.49676 52.3504 8.10423 52.35 8.77942 52.0719C8.85763 52.0397 8.92577 52.0134 8.93087 52.0134C8.93598 52.0134 8.93842 52.5051 8.93627 53.1061C8.93256 54.1481 8.93644 54.2045 9.01972 54.3184C9.36062 54.7847 11.2925 55.1682 12.732 55.0552C13.229 55.0161 13.5995 55.041 13.8025 55.127C13.9548 55.1915 14.8443 55.5319 15.0674 55.6111C16.415 56.0892 18.7899 55.998 19.9266 55.4246C20.583 55.0934 20.823 54.7324 20.823 54.076V53.5781L20.6769 53.4274C20.4143 53.1565 19.7893 52.902 18.6515 52.6027C17.9265 52.412 17.5404 52.2973 17.3498 52.216C16.168 51.7119 15.2938 51.0297 15.3151 50.6283C15.331 50.3287 15.2521 49.9853 15.1289 49.8183C15.004 49.6492 14.997 49.5678 15.1071 49.5678C15.1521 49.5678 15.1994 49.5509 15.2121 49.5303C15.2249 49.5097 15.2858 49.4801 15.3476 49.4646C15.6114 49.3984 16.0276 48.9954 16.2432 48.5973C16.4861 48.1488 17.7076 45.6724 18.1458 44.7399C18.233 44.5543 18.4276 44.1464 18.5783 43.8333C18.729 43.5202 18.9706 43.0174 19.1153 42.7159C19.2599 42.4145 19.4968 41.9211 19.6417 41.6196C19.7865 41.3182 19.9667 40.9387 20.042 40.7763C20.1174 40.614 20.2887 40.2535 20.4227 39.9752C21.2169 38.3258 21.5187 37.6824 21.5187 37.6383C21.5187 37.6172 21.5333 37.5936 21.5512 37.5858C21.7715 37.4906 21.8691 36.1229 21.6919 35.6149C21.6061 35.3692 21.3121 34.7797 21.2187 34.6664C21.1979 34.641 21.0887 34.5026 20.9762 34.3588C20.6713 33.9691 19.9752 33.3017 18.6725 32.1502C17.7588 31.3425 17.3922 31.0197 17.048 30.72C16.9016 30.5924 16.6847 30.4027 16.5661 30.2983C16.4474 30.1939 16.2298 30.0042 16.0825 29.8767C15.7386 29.5789 15.4777 29.3506 15.2378 29.1372C15.1325 29.0436 14.8471 28.797 14.6036 28.5891C14.3601 28.3813 14.1514 28.2013 14.1398 28.189C14.1282 28.1768 13.997 28.0629 13.8483 27.936C13.6996 27.809 13.5383 27.667 13.4899 27.6203C13.4415 27.5737 13.345 27.4946 13.2755 27.4446C13.1114 27.3265 13.1256 27.3186 13.5427 27.2954L13.8943 27.2759L13.9913 27.4273C14.224 27.7903 15.1829 28.5575 15.9951 29.0304C16.1226 29.1046 16.3218 29.2237 16.4378 29.2949C16.5537 29.366 16.9617 29.5814 17.3443 29.7734C17.9863 30.0954 18.2328 30.2133 18.9255 30.5289C19.0647 30.5924 19.3303 30.7163 19.5158 30.8045C20.1222 31.0924 20.5108 31.2688 20.7745 31.3758C20.9171 31.4337 21.0671 31.4998 21.1077 31.5226C21.8153 31.9203 22.2567 32.0099 22.5305 31.8115L22.7117 31.6802L23.1918 31.9191C23.6072 32.1258 23.8613 32.2705 24.0284 32.3954C24.0521 32.4131 24.2134 32.5221 24.3868 32.6375C24.5603 32.753 24.7889 32.9143 24.8949 32.9959C25.0009 33.0776 25.1509 33.1919 25.2283 33.2499C25.3058 33.3078 25.3898 33.3752 25.4151 33.3995C25.4404 33.4239 25.594 33.5459 25.7563 33.6707C25.9186 33.7954 26.0609 33.9101 26.0725 33.9256C26.1953 34.0896 27.0053 34.6654 27.3164 34.8098C27.4324 34.8636 27.5628 34.9252 27.6062 34.9467C27.7149 35.0006 28.1086 35.0375 28.2353 35.0057C28.4838 34.9433 28.5179 34.5123 28.2843 34.3873C28.2274 34.3569 28.1895 34.3234 28.2 34.3128C28.2106 34.3023 28.3006 34.3411 28.4003 34.3989C28.8428 34.6561 29.2033 34.7257 29.5512 34.6214C29.6077 34.6045 29.6726 34.6309 29.7481 34.7017C30.5124 35.418 31.501 35.9142 31.8791 35.7715C32.1471 35.6703 32.1947 35.4324 31.9945 35.1944L31.8926 35.0733L32.1555 35.2113C32.7958 35.5473 33.3671 35.4735 33.3671 35.0548C33.3671 34.8728 33.0774 34.5992 32.6411 34.3691C32.4388 34.2625 32.1599 34.0999 32.0211 34.0077C31.8824 33.9156 31.7538 33.8401 31.7353 33.84C31.7167 33.84 31.6162 33.7626 31.5118 33.668C31.3001 33.4762 31.2922 33.4732 31.8702 33.8057C32.1586 33.9716 32.693 34.2303 33.1563 34.4283C33.3302 34.5026 33.5294 34.5885 33.599 34.6193C34.4011 34.9734 35.0227 34.423 34.387 33.9215C34.2693 33.8285 32.5952 32.9969 32.5259 32.9969C32.5043 32.9969 32.4753 32.9786 32.4615 32.9563C32.4164 32.8833 32.7694 33.0112 33.3986 33.2957C33.497 33.3402 33.7113 33.4216 33.8747 33.4767C34.0382 33.5317 34.1837 33.5886 34.1982 33.603C34.2727 33.6775 34.6988 33.6261 34.8218 33.5277C35.1405 33.2728 34.9656 32.8964 34.3893 32.597C34.2561 32.5277 34.1187 32.4505 34.0839 32.4253C34.0491 32.4001 33.8973 32.3269 33.7466 32.2628C33.5958 32.1986 33.3921 32.1098 33.2938 32.0655C33.1954 32.0212 33.0989 31.9849 33.0792 31.9849C32.9329 31.9849 31.8943 31.3742 31.6172 31.1253C31.4013 30.9314 31.4574 30.8696 31.9783 30.7275C33.1883 30.3976 33.4826 30.1761 33.2658 29.7586C33.113 29.4644 32.7129 29.374 32.178 29.5131C32.0551 29.545 31.7458 29.5928 31.4907 29.6193C30.6585 29.7058 29.9816 29.8001 29.743 29.8629C29.3699 29.9611 28.6002 30.0501 28.3929 30.019L28.2034 29.9906L28.6875 29.8573C29.4285 29.6532 29.6566 29.4884 29.6566 29.1573C29.6566 28.7155 29.2988 28.62 28.244 28.7802C26.7445 29.008 26.5799 29.0165 26.4022 28.8754C26.1614 28.684 25.8558 28.4295 25.7387 28.3227C25.6788 28.2681 25.5176 28.1258 25.3806 28.0065C25.0913 27.7546 24.8722 27.5563 24.0915 26.8394C23.5271 26.3211 23.2095 26.0074 22.8047 25.5684C22.6888 25.4426 22.5296 25.2907 22.451 25.2308C22.3133 25.1257 22.31 25.1167 22.3606 24.9798C22.3895 24.9018 22.4288 24.5705 22.4481 24.2436C22.4906 23.5195 22.7094 22.4884 22.9931 21.6755C23.4398 20.3956 23.4769 20.2213 23.6007 18.8207C23.6166 18.6401 23.6456 18.5944 23.921 18.3157C24.3434 17.8883 24.462 17.2446 24.3781 15.8357C24.3454 15.2856 24.3822 15.1887 24.7403 14.8821C25.166 14.5177 25.5305 14.4412 26.7739 14.455C27.7862 14.4662 27.8221 14.4586 27.9334 14.2123C27.9544 14.1659 28.0303 14.0331 28.1022 13.9171C28.4414 13.3704 28.6721 12.8149 28.9989 11.7579C29.2211 11.0393 29.4813 9.3329 29.4869 8.55706L29.4879 8.42546L29.7936 8.39616C30.9365 8.28657 31.7512 7.87964 32.0227 7.28275C32.2872 6.70125 32.0627 6.36882 31.462 6.45239C31.3387 6.46955 30.8732 6.50539 30.4276 6.532L29.6175 6.5804L29.5079 6.36958C29.3012 5.97166 29.247 5.88771 29.0066 5.59395C28.0277 4.39743 26.3399 3.79615 24.5055 3.99053ZM26.1517 4.28329C26.8157 4.41219 27.4269 4.64591 27.8856 4.94629C27.9668 4.99942 28.0712 5.06612 28.1175 5.0945C28.4939 5.32464 29.19 6.19489 29.3424 6.62573C29.6787 7.57634 28.0368 8.62103 25.2081 9.25629C25.0226 9.29795 24.7907 9.35116 24.6928 9.37456C24.5503 9.40859 24.5047 9.40484 24.464 9.35575C24.241 9.08708 23.8136 9.11984 23.5422 9.42642C23.3967 9.59074 23.3855 9.59496 22.8886 9.67537C22.2938 9.77163 21.0561 9.90563 21.0273 9.87687C21.0038 9.85339 20.8953 9.47753 20.8425 9.23681C20.7239 8.69574 20.8466 7.38453 21.053 6.98793C21.0731 6.94931 21.1433 6.80388 21.2091 6.66473C21.2748 6.52559 21.3815 6.33584 21.4461 6.24308C21.5107 6.15032 21.5962 6.02698 21.636 5.96901C22.5736 4.60404 24.3631 3.93601 26.1517 4.28329ZM31.8572 6.77921C31.9528 6.9235 31.7411 7.39891 31.4993 7.58254C31.0837 7.89823 30.0379 8.16585 29.0346 8.21316C28.672 8.23028 28.6691 8.22459 28.9361 8.02093C29.2806 7.7582 29.5773 7.33195 29.6361 7.01508C29.6688 6.839 29.5724 6.86392 30.5842 6.76998C31.5293 6.68219 31.7941 6.68409 31.8572 6.77921ZM29.2349 8.61108C29.2349 8.81418 29.1155 9.97432 29.0642 10.2699C28.8251 11.6467 28.5946 12.3865 28.0779 13.4354C27.6704 14.2628 27.5354 14.3305 26.5705 14.1909C25.2603 14.0014 24.5898 13.2925 24.5239 12.0269C24.501 11.586 24.4971 11.5714 24.4114 11.6003C24.0475 11.7232 23.8144 11.4678 23.6296 10.7441C23.4422 10.01 23.5045 9.82754 23.9643 9.7637C24.1382 9.73958 24.3128 9.70977 24.3524 9.69746C24.447 9.66799 24.8919 10.3688 24.8919 10.5474C24.8919 10.6398 24.9632 10.6537 25.1744 10.6026C25.451 10.5356 25.4538 10.5306 25.4435 10.1394C25.4304 9.64172 25.4984 9.44021 25.6908 9.40677C25.7732 9.39248 25.926 9.35403 26.0304 9.32135C26.1347 9.28867 26.4763 9.18195 26.7893 9.08425C27.3712 8.9026 27.8919 8.7094 28.1175 8.59134C28.2824 8.50507 28.5058 8.46852 28.9081 8.46202L29.2349 8.45675V8.61108ZM24.1118 9.46513C23.8968 9.5498 23.7782 9.56156 23.8356 9.49245C23.8678 9.45366 23.9532 9.42765 24.0432 9.42921C24.1625 9.43131 24.1776 9.4392 24.1118 9.46513ZM25.1984 9.92199C25.1707 10.3961 25.1412 10.4193 24.9769 10.0959C24.9026 9.94965 24.8151 9.79191 24.7825 9.7454C24.6821 9.60208 24.7144 9.5837 25.1086 9.55979L25.2199 9.55304L25.1984 9.92199ZM23.3199 10.0274C23.2663 10.3698 23.4413 11.1798 23.6364 11.4921C23.7846 11.7294 23.5012 11.9526 23.18 11.8516C22.8931 11.7613 22.8878 11.7665 23.04 11.9897C23.3372 12.4255 23.1224 12.6113 22.7381 12.2507C22.2329 11.7766 21.623 11.4168 21.054 11.2571C20.7322 11.1668 20.7035 11.0098 20.9916 10.9159C21.1633 10.86 21.1831 10.6971 21.0362 10.5501C20.9295 10.4434 20.899 10.2971 20.9626 10.197C20.9828 10.1652 21.1899 10.1287 21.4995 10.1023C21.7767 10.0787 22.2028 10.031 22.4463 9.9962C23.3852 9.86216 23.346 9.86077 23.3199 10.0274ZM21.176 11.562C23.2771 12.3225 24.5064 14.8162 24.079 17.4513C24.0175 17.8304 23.7054 18.3544 23.6124 18.2348C23.6052 18.2256 23.5753 17.9642 23.546 17.654C23.5167 17.3438 23.4624 16.9928 23.4253 16.8739C23.3726 16.7048 23.3573 16.4562 23.3552 15.7302C23.352 14.6892 23.2963 14.4141 22.9666 13.8127C22.3186 12.6308 20.5634 11.5959 19.5896 11.8216C19.389 11.8681 19.365 11.834 19.5053 11.7015C19.8451 11.3808 20.5195 11.3245 21.176 11.562ZM24.1224 11.8887C24.2464 11.9305 24.2595 11.951 24.2597 12.1038C24.2611 12.8964 24.7591 13.7634 25.3861 14.0647C25.657 14.1949 25.6578 14.2048 25.4032 14.2701C25.0685 14.3559 24.7051 14.5491 24.4889 14.7562C24.2445 14.9904 24.2782 14.9937 24.2152 14.7288C24.0661 14.1024 23.5638 13.1035 23.2381 12.7856C23.1605 12.7098 23.1611 12.7059 23.2654 12.6093C23.3292 12.5501 23.3829 12.4425 23.3991 12.3412C23.4212 12.2028 23.4487 12.1642 23.5504 12.1287C23.6843 12.082 23.8341 11.9287 23.8364 11.836C23.8373 11.7976 23.8621 11.7893 23.9116 11.8106C23.9521 11.8281 24.047 11.8632 24.1224 11.8887ZM20.2748 12.1051C20.4679 12.1304 20.7895 12.238 20.9869 12.3435C21.5062 12.621 21.8017 12.8377 22.1749 13.2144C22.637 13.6809 22.725 13.8111 22.9296 14.3317C23.1551 14.9056 23.2116 16.2993 22.9921 15.8736C22.83 15.5593 22.1183 14.8659 21.9578 14.8659C21.7858 14.8659 21.8113 15.031 22.0242 15.2951C22.739 16.1822 23.0716 17.7382 22.8696 19.2498C22.7925 19.8262 22.4863 20.9675 22.2753 21.4647C22.2557 21.5111 22.1328 21.8221 22.0023 22.1558C21.8718 22.4895 21.7498 22.7931 21.7313 22.8304C21.655 22.9842 21.544 23.2571 21.4122 23.6151C21.11 24.4357 20.924 24.6452 20.4435 24.7062C20.0046 24.7619 19.7091 25.0307 19.673 25.407C19.6325 25.8298 20.0827 26.0473 20.7474 25.9259C21.9139 25.7131 21.9037 25.7076 23.7141 27.515C25.1315 28.93 26.2319 29.9921 26.3479 30.057C26.4315 30.1038 26.426 30.1972 26.3357 30.2643C26.1763 30.3828 25.8318 30.8487 25.6793 31.1521C25.5905 31.3291 25.5701 31.3361 25.4009 31.2486C25.3352 31.2146 25.2081 31.1601 25.1183 31.1275C24.9374 31.0617 24.3844 30.8421 24.0908 30.7196C23.9864 30.676 23.6733 30.5525 23.395 30.4451C23.1167 30.3377 22.8321 30.2251 22.7626 30.1947C22.693 30.1644 22.409 30.0496 22.1315 29.9396C21.854 29.8295 21.5979 29.7243 21.5623 29.7057C21.5267 29.6871 21.4027 29.6299 21.2868 29.5785C18.6977 28.432 18.0442 27.5462 17.7429 24.7747C17.7291 24.6471 17.7001 24.4479 17.6786 24.3319C17.4685 23.1982 17.1068 18.7866 17.1722 18.1547C17.2323 17.5737 17.2326 17.5781 17.1252 17.55C16.9725 17.5101 16.8638 17.7221 16.7071 18.3656C16.674 18.5019 16.6096 18.6027 16.4784 18.724C16.2903 18.8976 16.2964 19.087 16.4886 19.0475C16.547 19.0354 16.552 19.0691 16.5267 19.3004C16.5106 19.4472 16.4802 19.8314 16.4591 20.1542C16.3699 21.5202 15.8997 21.6413 14.3506 20.6973C13.1524 19.967 12.3631 19.7576 12.37 20.1716C12.3714 20.2525 12.5411 20.4862 12.801 20.7653C13.4161 21.4257 13.713 21.9368 13.5625 22.0762C13.2904 22.3282 11.6741 22.3548 11.2204 22.1148C11.1802 22.0935 11.0989 22.0761 11.0398 22.0761C10.9808 22.0761 10.8335 22.0255 10.7125 21.9637C9.82899 21.5123 9.44946 21.8118 10.0814 22.4617C10.5642 22.9583 11.1263 23.2577 12.0821 23.5273C13.2238 23.8494 10.2988 24.0294 8.84781 23.7263C8.46908 23.6472 8.17937 23.5684 7.71998 23.4196C7.58652 23.3764 7.43473 23.3402 7.38265 23.3392C7.33058 23.3382 7.21205 23.3098 7.11929 23.276C6.45793 23.0356 5.37918 23.0544 4.8721 23.3152C4.47562 23.5191 4.42987 23.527 4.20985 23.4297C3.77618 23.2379 3.15467 22.5357 2.72168 21.7484C2.40076 21.1649 2.97656 20.5778 4.42785 20.0089C5.04574 19.7667 5.40996 19.5912 5.99938 19.2518C6.64932 18.8776 6.68621 18.8559 6.73765 18.817C6.76203 18.7986 7.01915 18.6272 7.30903 18.4361C8.09187 17.92 8.41638 17.6895 9.43837 16.9238C9.46157 16.9064 9.53126 16.849 9.59325 16.7961C9.65523 16.7433 9.75794 16.6621 9.82144 16.6157C10.0967 16.4147 10.3774 16.1719 11.0617 15.5427C11.4114 15.2212 11.7989 14.9533 12.4532 14.5809C12.8678 14.3449 13.9344 13.8117 13.992 13.8117C14.0063 13.8117 14.0975 13.7762 14.1948 13.7329C14.2921 13.6895 14.5045 13.6031 14.6669 13.5409C14.8292 13.4787 15 13.4103 15.0463 13.3889C15.0927 13.3676 15.3014 13.2947 15.5102 13.2269C16.2507 12.9866 17.0072 12.8154 18.525 12.5448C19.074 12.4469 19.4206 12.3281 19.6898 12.1453C19.7943 12.0744 19.8852 12.0445 19.9562 12.0576C20.0155 12.0686 20.1589 12.09 20.2748 12.1051ZM12.411 14.2946C12.411 14.305 12.2924 14.3817 12.1475 14.4649C11.7726 14.6803 11.7521 14.6934 11.4015 14.9469C11.2275 15.0726 10.9604 15.2908 10.8079 15.4318C10.6554 15.5728 10.4546 15.7566 10.3617 15.8403C10.169 16.0139 9.32415 16.6997 9.1468 16.8265C9.08195 16.8729 8.91228 16.9973 8.7698 17.103C8.15415 17.5595 8.04009 17.6418 7.92043 17.7161C7.85086 17.7593 7.65736 17.8947 7.49047 18.0169C7.32358 18.1391 7.17524 18.2391 7.16091 18.2391C7.14653 18.2391 7.07434 18.2818 7.00051 18.3341C6.92668 18.3863 6.82835 18.4522 6.78197 18.4805C6.55019 18.6218 6.05281 18.9334 5.95975 18.9955C5.73252 19.1471 4.35714 19.7992 4.26446 19.7992C4.16153 19.7992 3.15446 20.3304 2.93625 20.4998C2.26241 21.023 2.21932 21.4851 2.76768 22.308C3.66715 23.658 4.17629 23.9352 5.01327 23.5308C5.55391 23.2696 6.28948 23.2825 7.28795 23.5709C7.40391 23.6044 7.67903 23.6815 7.89935 23.7421C8.11966 23.8028 8.36451 23.8725 8.44345 23.897C9.46443 24.2137 12.0005 24.208 12.5184 23.888C12.9049 23.6491 12.6022 23.3715 11.7364 23.1707C11.513 23.1189 11.0315 22.8858 10.7244 22.6808C10.6432 22.6266 10.5084 22.5362 10.4248 22.48C10.2638 22.3717 10.0076 22.0746 10.0076 21.9962C10.0076 21.9219 10.1374 21.9417 10.3654 22.0507C11.4766 22.5822 13.3188 22.6862 13.7625 22.2425C13.9243 22.0808 13.8085 21.5146 13.5738 21.3199C13.5372 21.2895 13.5073 21.2395 13.5073 21.2086C13.5073 21.1779 13.4836 21.1375 13.4546 21.1189C13.4256 21.1004 13.2991 20.9619 13.1733 20.8111C13.0476 20.6604 12.9243 20.5175 12.8992 20.4937C12.8742 20.4699 12.8063 20.3959 12.7483 20.3295L12.6429 20.2087L12.7905 20.2363C13.1111 20.2962 13.4883 20.4878 14.9409 21.3285C15.9173 21.8935 16.7021 21.4183 16.716 20.2535C16.73 19.0887 16.7798 19.3066 16.805 20.6425C16.8378 22.3826 16.9273 23.6728 17.1125 25.0742C17.1633 25.459 15.7504 26.5448 14.8988 26.7754C14.8408 26.791 14.7554 26.8204 14.709 26.8406C14.0119 27.1443 12.4704 27.1018 12.5543 26.7813C12.5863 26.6589 11.9419 25.9358 11.5256 25.6269C11.4444 25.5667 11.359 25.4968 11.3358 25.4717C11.2471 25.3756 10.8569 25.1403 10.4925 24.9632C9.97602 24.7122 9.58115 24.6058 8.46858 24.418C7.90719 24.3232 7.48798 24.1927 7.07713 23.9846C6.40754 23.6456 6.26279 23.5947 5.96818 23.5943C5.14347 23.5932 5.48088 24.4823 6.4597 24.8894C6.91289 25.0779 7.58842 25.1663 8.38425 25.1414C9.60248 25.1031 9.9293 25.1749 10.8298 25.6783C11.0536 25.8034 11.4834 26.0991 11.4834 26.1279C11.4834 26.1458 11.5166 26.1718 11.5572 26.1858C11.5977 26.1997 11.7258 26.2971 11.8418 26.4022C12.0105 26.5552 12.0274 26.5811 11.9261 26.5323C11.2255 26.1942 10.2777 25.9318 9.52271 25.867C8.70006 25.7964 7.94349 25.6627 7.28795 25.4723C6.11365 25.1311 5.86825 25.0488 4.90562 24.6733C3.79389 24.2395 3.39105 23.9715 2.46961 23.0525C2.15127 22.735 1.80543 22.4179 1.70107 22.3479C0.837905 21.7685 1.33883 20.846 2.89034 20.1577C3.24503 20.0004 3.63961 19.815 3.76716 19.7457C3.97339 19.6337 4.709 19.2154 4.89736 19.1029C5.04118 19.0171 5.4929 18.7286 5.98606 18.4077C6.23703 18.2444 7.37469 17.4633 7.39336 17.4415C7.40496 17.4279 7.44481 17.3979 7.48191 17.3747C7.57008 17.3196 7.82539 17.143 8.08909 16.9548C8.20504 16.872 8.40427 16.7337 8.53182 16.6475C8.65937 16.5612 8.8005 16.4571 8.84549 16.4161C8.89044 16.3752 8.94125 16.3416 8.95841 16.3416C8.97557 16.3416 9.0147 16.3175 9.04535 16.288C9.27831 16.0635 11.1148 14.8968 11.6458 14.6359C12.3767 14.2768 12.411 14.2615 12.411 14.2946ZM23.063 16.5677C23.4635 17.5825 23.3887 20.2112 22.934 21.1025C22.8417 21.2832 22.5795 22.0769 22.5078 22.3923C22.2851 23.3718 22.1957 23.8992 22.1898 24.2687C22.178 25.0019 22.1401 25.0607 21.7379 24.9692C21.5734 24.9318 21.2813 24.8994 21.0887 24.8974C20.815 24.8944 20.7664 24.8855 20.8658 24.8565C21.1651 24.7694 21.3886 24.421 21.7432 23.4886C21.8226 23.2799 22.0157 22.7961 22.1724 22.4134C22.634 21.2858 22.8895 20.4914 23.0605 19.6516C23.275 18.5977 23.1991 17.2686 22.8703 16.3245C22.8226 16.1875 22.7837 16.0642 22.7838 16.0504C22.7842 15.9905 22.974 16.3422 23.063 16.5677ZM17.2359 22.7718C17.7315 27.5641 18.1233 28.3441 20.6452 29.5589C21.0444 29.7512 21.4153 29.9221 21.4692 29.9386C21.5231 29.9552 21.7092 30.0334 21.8826 30.1124C22.0561 30.1915 22.2207 30.2567 22.2484 30.2574C22.2761 30.2582 22.3936 30.3054 22.5096 30.3625C22.6255 30.4195 22.7489 30.467 22.7836 30.4679C22.8184 30.4689 22.8837 30.4975 22.9287 30.5316C22.9738 30.5656 23.0366 30.5935 23.0685 30.5935C23.1003 30.5935 23.2301 30.6409 23.3568 30.6989C23.4836 30.7568 23.6009 30.8044 23.6177 30.8044C23.6344 30.8045 23.7903 30.8637 23.9643 30.936C24.1382 31.0082 24.3659 31.1002 24.4703 31.1404C25.542 31.5529 25.4989 31.5266 25.4398 31.7329C25.4167 31.8132 25.3979 31.9692 25.3979 32.0795C25.3979 32.1898 25.3908 32.2801 25.3822 32.2801C25.3648 32.2801 24.64 31.9604 24.2173 31.7663C24.0665 31.6971 23.8673 31.6061 23.7745 31.564C23.6818 31.5219 23.4825 31.4306 23.3318 31.361C23.1811 31.2915 22.9249 31.1737 22.7626 31.0992C22.2503 30.8644 21.6836 30.5929 21.147 30.3253C20.3691 29.9375 20.3188 29.9112 20.2959 29.8814C20.2843 29.8662 20.2274 29.8309 20.1694 29.8029C20.1114 29.7749 19.9881 29.7047 19.8953 29.6468C19.8026 29.5889 19.6728 29.5112 19.6069 29.4741C19.2782 29.2892 18.5137 28.7147 18.1514 28.3806C17.7759 28.0343 17.6924 27.7873 17.5523 26.6089C17.5054 26.2146 17.4303 25.5979 17.3855 25.2385C17.3115 24.6464 17.2674 24.1973 17.137 22.7086C17.1137 22.4419 17.0861 21.9865 17.0757 21.6966L17.0569 21.1695L17.1137 21.6544C17.1449 21.9211 17.1999 22.424 17.2359 22.7718ZM1.53241 22.5318C1.65996 22.6344 2.04893 22.9966 2.39679 23.3365C3.22715 24.148 3.85246 24.5518 4.88454 24.9432C5.02368 24.9959 5.21962 25.0717 5.31998 25.1115L5.50238 25.184L5.30071 25.2116C2.86449 25.5455 2.57853 28.8489 4.7965 31.0364C5.18383 31.4184 6.15379 32.1536 6.27051 32.1536C6.28307 32.1536 6.36234 32.2004 6.44671 32.2577C6.58333 32.3504 7.72668 32.9238 8.11017 33.0919C8.19134 33.1275 8.34685 33.1966 8.45572 33.2454C8.56459 33.2943 8.66895 33.3348 8.68762 33.3356C8.7063 33.3364 8.79746 33.3737 8.89023 33.4185C8.98299 33.4633 9.075 33.5006 9.09469 33.5014C9.11438 33.5022 9.19027 33.5305 9.26335 33.5642C9.47206 33.6606 11.1724 34.2374 11.8207 34.4317C11.9714 34.4769 12.2181 34.5511 12.3689 34.5966C12.5196 34.6421 12.7188 34.6923 12.8116 34.7081C12.9044 34.7238 13.0123 34.7533 13.0515 34.7735C13.0906 34.7937 13.2519 34.8402 13.4099 34.8768C13.5678 34.9134 13.8488 34.9788 14.0344 35.0219C14.2199 35.0652 14.5045 35.1294 14.6669 35.1647C14.8292 35.1999 15.0948 35.258 15.2572 35.2938C15.9033 35.436 16.4715 35.5231 17.1757 35.588C18.383 35.6992 18.5252 35.7384 18.6894 36.0055C18.9486 36.4272 18.4028 36.8309 17.2528 37.068C16.5265 37.2177 15.9427 37.4923 15.3942 37.9424L15.1939 38.1067V37.9866C15.1939 37.9205 15.1773 37.8084 15.157 37.7375C15.1024 37.5474 15.6103 37.3365 16.9714 36.9843C17.9846 36.7221 18.4828 36.462 18.4828 36.195C18.4828 35.7242 16.8204 36.092 15.4636 36.863C14.938 37.1616 14.9214 37.1663 14.8515 37.0342C14.6918 36.7327 14.3126 36.4908 13.6205 36.249C12.679 35.9201 12.2106 36.0286 12.2304 36.5711C12.2386 36.7974 12.2281 36.8318 12.1175 36.9378L11.9954 37.0548L11.8699 36.9654C11.8009 36.9162 11.7252 36.8761 11.7018 36.8761C11.6783 36.8761 11.6528 36.8616 11.645 36.8439C11.6337 36.8178 10.4446 36.0459 10.1684 35.8852C10.047 35.8146 8.93239 35.1057 8.74265 34.9785C8.70786 34.9551 8.52348 34.8365 8.33293 34.7149C8.14234 34.5932 7.76467 34.3517 7.49363 34.1781C7.2226 34.0045 6.96733 33.8433 6.92639 33.8197C6.82877 33.7636 6.04724 33.2646 5.52789 32.9267C5.30193 32.7798 5.10666 32.6595 5.09389 32.6595C5.08115 32.6595 5.0478 32.6399 5.0198 32.6159C4.99181 32.5919 4.82563 32.4828 4.65056 32.3735C4.19771 32.0906 4.21875 32.1043 3.99355 31.9458C2.33764 30.7801 1.06884 29.1249 0.549032 27.4522C0.30342 26.6617 0.191176 25.3613 0.305233 24.6271C0.448763 23.703 0.626194 23.0671 0.899382 22.4977C1.10477 22.0697 1.11105 22.064 1.21292 22.2152C1.26107 22.2867 1.40486 22.4291 1.53241 22.5318ZM6.69296 24.0735C7.56367 24.4945 7.84175 24.5874 8.53182 24.6881C8.70575 24.7135 8.96191 24.7588 9.10105 24.7888L9.35404 24.8433L8.67763 24.8732C7.24393 24.9364 6.46683 24.7626 5.95519 24.2643C5.46684 23.7885 5.88166 23.6813 6.69296 24.0735ZM9.51216 24.8869C9.4832 24.8986 9.43576 24.8986 9.40675 24.8869C9.37778 24.8752 9.40148 24.8657 9.45946 24.8657C9.51743 24.8657 9.54117 24.8752 9.51216 24.8869ZM20.441 25.0213C20.0728 25.1376 19.9746 25.6089 20.3054 25.6724C20.3695 25.6847 20.3515 25.6927 20.2512 25.6966C19.8422 25.7122 19.8258 25.1121 20.2327 25.0153C20.3725 24.9821 20.5492 24.9871 20.441 25.0213ZM21.1814 25.2037C21.1234 25.2279 21.0223 25.2759 20.9568 25.3106C20.8912 25.3452 20.7205 25.3826 20.5773 25.3936L20.317 25.4136L20.4224 25.3272C20.548 25.2244 20.7868 25.1638 21.076 25.1615C21.2606 25.1601 21.2737 25.1653 21.1814 25.2037ZM22.0829 25.3266C22.2132 25.3627 22.4027 25.529 23.0106 26.1403C23.6327 26.766 24.1732 27.2787 24.5714 27.6208C24.5984 27.644 24.7246 27.7579 24.852 27.8738C24.9793 27.9898 25.2052 28.189 25.3539 28.3165C25.5028 28.4441 25.7205 28.6315 25.838 28.7329C26.2113 29.0555 26.2538 29.0907 26.6983 29.4445C27.1235 29.783 27.1316 29.7925 27.0248 29.8331C26.9645 29.856 26.8587 29.904 26.7896 29.9398L26.6639 30.0047L26.2734 29.6576C26.0585 29.4666 25.1359 28.5697 24.223 27.6645C23.3102 26.7592 22.5412 25.9996 22.5142 25.9764C22.389 25.8688 22.2033 25.7534 22.1082 25.7241C22.0506 25.7065 21.9801 25.6732 21.9513 25.6501C21.8503 25.5694 21.3722 25.5624 21.0377 25.6368C20.8604 25.6763 20.692 25.6992 20.6637 25.6877C20.6353 25.6762 20.6537 25.6653 20.7045 25.6635C20.7553 25.6617 20.8077 25.6426 20.8209 25.6212C20.8342 25.5998 20.9065 25.5694 20.9815 25.5535C21.0567 25.5377 21.1789 25.4965 21.2532 25.4621C21.5893 25.3062 21.8538 25.2629 22.0829 25.3266ZM6.40881 25.5096C6.62098 25.5419 6.83101 25.5878 6.87549 25.6116C6.96003 25.6568 7.25249 25.7348 7.85718 25.8732C8.47583 26.0149 8.6232 26.0383 9.1643 26.0807C9.7652 26.1279 10.2613 26.2084 10.5979 26.3133C11.8514 26.7041 12.4313 27.0121 13.1661 27.6777C13.2866 27.7867 13.4721 27.9481 14.2874 28.6532C14.5888 28.9139 14.8925 29.1773 14.9622 29.2384C15.0318 29.2996 15.2214 29.4634 15.3834 29.6026C15.5454 29.7417 15.6989 29.8745 15.7246 29.8977C15.7503 29.9209 15.8918 30.0443 16.0392 30.1718C16.1865 30.2994 16.4993 30.5745 16.7342 30.7832C16.9692 30.9919 17.2832 31.267 17.432 31.3946C17.5809 31.5221 17.788 31.7042 17.8924 31.7991C17.9968 31.8941 18.1364 32.0174 18.2025 32.0732C18.2687 32.129 18.3652 32.2126 18.4171 32.259C18.469 32.3054 18.6604 32.4761 18.8426 32.6385C20.8484 34.4261 21.3497 35.0601 21.512 36.0143C21.627 36.6902 21.5457 37.0432 21.0225 38.141C20.9065 38.3845 20.7999 38.6122 20.7859 38.647C20.7718 38.6818 20.7422 38.7387 20.7201 38.7735C20.698 38.8083 20.5913 39.0265 20.4829 39.2584C20.3745 39.4903 20.1857 39.8888 20.0634 40.1439C19.8187 40.6542 19.5364 41.2467 19.1995 41.957C19.0785 42.2121 18.8582 42.6722 18.7101 42.9795C18.4481 43.5227 18.1492 44.1437 17.6292 45.2248C16.6999 47.1569 16.235 48.0963 16.0817 48.3517C16.0352 48.4292 15.9605 48.559 15.9155 48.6401C15.7157 49.0012 15.3618 49.2509 14.9587 49.3153C14.8031 49.3402 14.6453 49.3756 14.608 49.3941C14.5708 49.4125 14.4265 49.4517 14.2874 49.4813C14.1482 49.5108 14.0154 49.5497 13.9922 49.5676C13.969 49.5855 13.8916 49.6127 13.8203 49.6279C13.4904 49.6983 12.9174 49.9853 12.7945 50.1415C12.3323 50.7291 13.4664 50.902 14.1919 50.3546C14.8426 49.8636 15.0581 49.9038 15.0651 50.5176C15.0688 50.8514 14.8994 51.015 14.3197 51.2377C13.3963 51.5923 10.8036 50.7347 11.6099 50.3414C11.6679 50.3131 11.8089 50.2442 11.9233 50.1883C12.4131 49.949 12.3573 49.572 11.7315 48.8931C11.4041 48.5378 11.3303 48.2961 11.4568 47.9932C11.5168 47.8497 11.839 47.5438 11.9302 47.5438C11.9589 47.5438 11.9886 47.5296 11.9964 47.5122C12.0144 47.4717 12.8896 47.0379 12.9533 47.0379C12.9797 47.0379 13.0013 47.0189 13.0013 46.9957C13.0013 46.9725 13.0251 46.9532 13.054 46.9527C13.083 46.9522 13.2301 46.8855 13.3808 46.8045C13.5316 46.7234 13.7308 46.6192 13.8236 46.5728C13.9163 46.5264 14.0681 46.4422 14.1609 46.3857C14.2536 46.3292 14.358 46.2695 14.3928 46.2531C15.2576 45.8453 17.5052 43.941 18.443 42.8214C18.5692 42.6706 18.6963 42.5321 18.7253 42.5135C18.805 42.4625 18.7885 42.3661 18.6909 42.3139C18.625 42.2786 18.5872 42.2808 18.5352 42.323C18.4525 42.39 18.0211 42.7871 17.6417 43.1456C17.2716 43.4953 17.1875 43.5667 16.9649 43.7196C16.8605 43.7913 16.6613 43.9416 16.5221 44.0535C16.383 44.1655 16.2502 44.2709 16.2269 44.2877C16.2037 44.3045 16.0804 44.395 15.9528 44.4888C14.7048 45.407 13.4785 45.9982 12.6255 46.0927L12.3551 46.1227L12.4645 45.9791C12.5248 45.9002 12.5999 45.7883 12.6315 45.7305C12.8685 45.2974 12.9253 45.2394 13.2925 45.0545C14.08 44.6581 15.7882 43.6716 16.2535 43.3446C16.366 43.2655 16.4699 43.2008 16.4844 43.2008C16.5161 43.2008 17.2004 42.713 17.5903 42.4123C17.9437 42.1399 18.4644 41.6585 18.5773 41.5L18.6626 41.3801L18.5713 41.2891C18.5129 41.2308 18.4691 41.214 18.4498 41.2424C18.4332 41.2669 18.2583 41.4151 18.0611 41.5717C17.864 41.7283 17.6743 41.879 17.6395 41.9067C17.4976 42.0195 16.4638 42.6918 16.248 42.8117C15.3479 43.3117 14.5111 43.6523 13.9914 43.7302L13.7971 43.7594L13.9691 43.4365C14.1322 43.1304 14.1787 43.0228 14.3307 42.6C14.3661 42.5014 14.4132 42.3828 14.4355 42.3365C14.4576 42.2901 14.5344 42.0624 14.6059 41.8305C14.6775 41.5986 14.7517 41.3709 14.7709 41.3245C14.9329 40.9327 15.1894 39.5809 15.2209 38.9526L15.2494 38.3844L15.5544 38.1421C15.8908 37.8748 16.2958 37.6195 16.4589 37.572C16.5168 37.5551 16.6212 37.5168 16.6908 37.4869C16.7604 37.457 17.045 37.381 17.3233 37.3181C18.5891 37.0319 19.0724 36.6581 18.9743 36.0409C18.9101 35.6372 18.4471 35.423 17.5054 35.3614C16.62 35.3036 15.0404 35.0351 14.1398 34.7895C14.0122 34.7547 13.6802 34.6699 13.4019 34.601C11.1599 34.0464 8.53359 33.1017 7.12553 32.3433C6.59526 32.0577 6.4215 31.9579 6.19739 31.8103C6.06141 31.7208 5.942 31.6476 5.93209 31.6476C5.92214 31.6476 5.8911 31.6285 5.86311 31.6052C5.83511 31.5818 5.64157 31.4253 5.43306 31.2573C5.2246 31.0893 4.97793 30.8677 4.88492 30.7649C4.79194 30.662 4.67422 30.5341 4.62328 30.4806C4.57235 30.4271 4.46925 30.293 4.39416 30.1827C4.31906 30.0723 4.24599 29.9726 4.23182 29.961C4.21761 29.9494 4.12772 29.7881 4.03208 29.6026C2.75832 27.1317 3.9203 25.1307 6.40881 25.5096ZM17.1931 25.7761C17.2063 25.8399 17.2358 26.0533 17.2585 26.2504C17.4676 28.0662 17.4989 28.1503 18.1896 28.7617C18.429 28.9736 19.3368 29.6237 19.3932 29.6237C19.4047 29.6237 19.4369 29.6438 19.4649 29.6683C19.6236 29.8075 20.2389 30.1517 21.0829 30.5735L21.8067 30.9352L21.7681 31.0697C21.7469 31.1438 21.7295 31.2661 21.7295 31.3416C21.7295 31.5194 21.6931 31.517 21.2497 31.3103C21.0508 31.2175 20.8789 31.1416 20.8677 31.1416C20.8469 31.1416 20.5057 30.9855 19.7976 30.652C19.5814 30.5502 19.397 30.467 19.3878 30.467C19.3786 30.467 19.1665 30.3702 18.9164 30.252C18.0118 29.8242 17.6969 29.6759 17.3726 29.5252C17.1911 29.4407 16.9911 29.335 16.9282 29.2903C16.8653 29.2455 16.7008 29.1474 16.5626 29.0723C15.6929 28.5996 14.1811 27.4549 14.1821 27.2698C14.1822 27.2541 14.3176 27.2077 14.4829 27.1666C15.1086 27.0111 15.8737 26.6567 16.3324 26.3099C16.6895 26.0399 16.7528 25.9889 16.9325 25.8263C17.1488 25.6307 17.1623 25.628 17.1931 25.7761ZM29.3771 29.0599C29.5248 29.2627 29.2146 29.4884 28.6102 29.6181C28.4985 29.642 28.2589 29.71 28.0778 29.7691C27.6614 29.905 27.7414 29.9242 27.2867 29.5797C26.8077 29.2169 26.8087 29.2196 27.1356 29.189C27.5177 29.1533 28.5697 28.9958 28.595 28.9705C28.6795 28.886 29.3023 28.9572 29.3771 29.0599ZM32.9796 29.7518C33.2625 30.0153 32.8698 30.2723 31.8553 30.4877C31.5126 30.5605 31.1745 30.7897 31.1745 30.9494C31.1745 31.2205 32.1224 31.8665 33.0962 32.2591C34.0919 32.6605 34.7164 33.0368 34.7164 33.2353C34.7164 33.485 34.1963 33.377 33.1902 32.9184C33.0813 32.8688 32.9738 32.8282 32.9512 32.8282C32.9286 32.8282 32.8564 32.8005 32.7907 32.7667C32.0494 32.385 31.2044 32.4427 31.7369 32.8386C31.8903 32.9528 33.0741 33.545 33.1487 33.545C33.176 33.545 33.1984 33.564 33.1984 33.5872C33.1984 33.6104 33.2199 33.6293 33.2461 33.6293C33.3374 33.6293 34.148 34.0583 34.2631 34.1676C34.4453 34.3404 34.3959 34.5148 34.1648 34.5148C33.9133 34.5148 32.5725 33.9294 31.8543 33.5059C31.1945 33.1169 30.6948 33.1095 30.9458 33.4925C31.0593 33.6658 31.7095 34.1557 32.1021 34.3638C32.9983 34.8388 33.1869 34.9877 33.0704 35.128C32.9315 35.2954 32.4492 35.1271 31.7502 34.6676C31.4814 34.4908 31.2481 34.3462 31.2319 34.3462C31.2155 34.3462 31.1723 34.3193 31.1357 34.2866C31.0441 34.2046 30.4784 33.9245 30.4044 33.9245C29.8523 33.9245 30.7892 34.973 31.554 35.211C31.7976 35.2869 31.9586 35.5199 31.7754 35.5315C31.3783 35.5565 30.8064 35.2562 30.0361 34.6177C29.8157 34.4352 29.6165 34.2706 29.5933 34.252C29.5701 34.2333 29.5037 34.1778 29.4457 34.1286C29.1717 33.896 28.281 33.2494 27.8638 32.9803C27.2663 32.5949 27.28 32.6029 26.958 32.4494C26.8073 32.3776 26.648 32.2987 26.604 32.2742C26.4978 32.2148 26.0985 32.0748 25.8597 32.0133C25.6715 31.9648 25.6685 31.9613 25.6967 31.8246C25.7361 31.6337 25.746 31.6298 25.9403 31.729C26.1547 31.8383 26.2679 31.8396 26.3248 31.7332C26.3709 31.6471 26.1345 31.4789 25.9675 31.4789C25.6643 31.4789 26.3038 30.5081 26.7893 30.2313C27.195 30.0001 27.2851 29.9901 27.6549 30.1355C28.0711 30.2992 28.8251 30.3306 29.3403 30.2056C29.8725 30.0766 30.5141 29.9662 30.9004 29.9372C31.1092 29.9216 31.2989 29.8942 31.3221 29.8763C31.3641 29.844 31.9792 29.7505 32.2824 29.7304C32.37 29.7246 32.4538 29.7077 32.4687 29.6928C32.5348 29.6267 32.8894 29.6677 32.9796 29.7518ZM22.3532 31.1877C22.8393 31.4118 23.0788 31.5304 23.0788 31.5469C23.0788 31.5557 22.9792 31.5235 22.8574 31.4754C22.7357 31.4272 22.4898 31.3414 22.311 31.2848C22.0656 31.2069 21.9918 31.1664 22.0098 31.1195C22.0406 31.0393 22.0244 31.0361 22.3532 31.1877ZM22.3369 31.5635C22.3694 31.596 22.3644 31.6203 22.3195 31.6487C22.1787 31.7377 21.9825 31.6676 21.9825 31.5282C21.9825 31.4581 22.2591 31.4856 22.3369 31.5635ZM23.4583 31.6926C23.7341 31.8375 24.4303 32.1536 24.4736 32.1536C24.4974 32.1536 24.587 32.1912 24.6727 32.2373C24.7585 32.2833 24.9425 32.3708 25.0816 32.4317C25.2208 32.4926 25.4118 32.5783 25.5061 32.6221C25.789 32.7535 25.9567 32.7302 26.2568 32.5176C26.3685 32.4384 26.5748 32.4965 26.9158 32.7032C26.9506 32.7243 27.0663 32.7872 27.173 32.8431C27.4106 32.9677 28.1718 33.4663 28.4565 33.6838C29.4234 34.4227 29.4575 34.4589 29.14 34.4107C28.8922 34.373 28.4583 34.1537 27.8856 33.7768C26.9501 33.1611 26.5785 33.0384 26.5785 33.3454C26.5785 33.4969 27.1012 34.0499 27.3843 34.198C27.66 34.3422 27.9471 34.4821 28.0399 34.5173C28.1763 34.5692 28.2484 34.7185 28.1545 34.7546C27.8658 34.8653 27.2374 34.5422 26.3547 33.8291C25.7043 33.3036 25.1929 32.9011 24.8287 32.6278C24.7591 32.5756 24.6689 32.5212 24.6284 32.507C24.5878 32.4927 24.5546 32.4671 24.5546 32.4501C24.5546 32.4211 24.151 32.1536 24.1073 32.1536C24.0962 32.1536 24.0643 32.1343 24.0363 32.1108C23.9321 32.0234 23.6818 31.8746 23.4056 31.7358C23.2491 31.6572 23.121 31.5849 23.121 31.5752C23.121 31.5469 23.2985 31.6087 23.4583 31.6926ZM25.8977 32.2941L26.0813 32.349L25.9685 32.4228C25.8426 32.5054 25.6509 32.4314 25.6509 32.3002C25.6509 32.2248 25.6648 32.2244 25.8977 32.2941ZM27.2442 33.6854C27.3205 33.7278 27.4249 33.7857 27.4761 33.814C27.678 33.9253 28.1368 34.2355 28.1219 34.2504C28.0467 34.3256 27.0412 33.6909 27.043 33.5693C27.0434 33.5398 27.0545 33.5387 27.0746 33.5661C27.0916 33.5893 27.168 33.643 27.2442 33.6854ZM30.8794 34.4305C30.9373 34.4759 30.9998 34.5134 31.0181 34.5139C31.0364 34.5144 31.1028 34.5506 31.1657 34.5943C31.2285 34.6379 31.4083 34.7546 31.5653 34.8536C31.8944 35.0611 31.9151 35.1138 31.6064 34.9587C31.4897 34.9001 31.3804 34.8521 31.3635 34.8521C31.3193 34.8521 30.8221 34.4929 30.756 34.4132C30.6792 34.3206 30.7518 34.3308 30.8794 34.4305ZM18.1455 36.264C18.1455 36.3406 17.2538 36.6802 16.8707 36.7494C16.6219 36.7943 16.3537 36.8725 15.8264 37.0535C15.4036 37.1987 15.4233 37.1644 15.9107 36.9067C16.6062 36.539 18.1455 36.0963 18.1455 36.264ZM13.17 36.3727C13.8136 36.5173 14.3734 36.8169 14.631 37.1546L14.7489 37.3092L14.6533 37.3773C14.4718 37.5064 14.0939 37.8115 13.9379 37.9547C13.7595 38.1186 13.6867 38.1309 13.5446 38.0212C13.4893 37.9786 13.3492 37.8893 13.2332 37.823C13.1173 37.7566 13.0129 37.6899 13.0013 37.6746C12.9897 37.6593 12.9233 37.6151 12.8538 37.5764C12.7842 37.5377 12.6703 37.4692 12.6008 37.4242C12.5312 37.3792 12.4218 37.3128 12.3576 37.2765C12.2258 37.2019 12.2399 37.1398 12.4286 36.9632C12.5268 36.8713 12.5356 36.8395 12.5117 36.6593C12.466 36.3147 12.6179 36.2485 13.17 36.3727ZM11.2035 36.8444C11.2836 36.8966 11.4555 37.0049 11.5855 37.085C11.7156 37.1651 11.817 37.2429 11.8108 37.2579C11.799 37.2866 11.388 37.7641 11.262 37.8954C11.2215 37.9377 11.1882 37.9827 11.1882 37.9953C11.1882 38.0079 11.0929 38.136 10.9763 38.2799C8.99674 40.7245 8.56594 43.6225 10.1821 43.6225C10.4516 43.6225 11.3671 43.3544 11.5024 43.2359C11.5958 43.1541 11.6666 43.1992 11.5854 43.2889C11.2433 43.667 10.374 44.1618 9.69136 44.3671C9.57541 44.4019 9.42362 44.4552 9.35404 44.4856C9.28447 44.5159 9.18011 44.5537 9.12214 44.5695C8.83347 44.6484 8.15398 45.0234 7.97444 45.2029C7.66744 45.5099 7.66778 45.7584 7.97567 46.0861L8.13125 46.2517L7.92043 46.1045C7.63577 45.9057 7.42705 45.618 7.31123 45.2646C7.11954 44.6799 7.1881 44.4329 7.68152 43.9307C8.00645 43.5999 8.08108 43.4343 8.04009 43.1354C7.99915 42.8368 8.09289 42.5825 8.65604 41.4635C8.95297 40.8736 9.294 40.1646 9.41392 39.8879C9.5338 39.6112 9.65097 39.3504 9.67425 39.3084C9.69752 39.2662 9.77089 39.086 9.83726 38.9078C9.94743 38.612 10.1244 38.215 10.2168 38.0567C10.8017 37.0544 10.9885 36.7537 11.0283 36.7513C11.0446 36.7504 11.1235 36.7923 11.2035 36.8444ZM12.3638 37.5723C12.4014 37.5957 12.5416 37.6858 12.6754 37.7725C12.8092 37.8592 12.9263 37.9302 12.9356 37.9302C12.9449 37.9302 13.0821 38.0175 13.2405 38.1242C13.5247 38.3157 13.5563 38.3664 13.4458 38.4545C13.227 38.6289 12.7203 39.3785 12.4605 39.912C12.0841 40.6849 11.6968 42.0834 11.6936 42.6814C11.6925 42.884 11.4189 43.0526 10.7455 43.2658C9.52254 43.653 9.0946 42.7279 9.70119 41.0083C9.81179 40.6948 10.1205 40.0097 10.1763 39.9541C10.1879 39.9425 10.2256 39.8761 10.26 39.8065C10.2945 39.737 10.3536 39.6326 10.3914 39.5746C11.0145 38.6198 11.3213 38.2088 11.9216 37.525C12.054 37.374 12.0446 37.373 12.3638 37.5723ZM14.9539 38.1323C14.9735 38.2961 14.9602 38.3311 14.8136 38.5004C14.3888 38.9912 13.7576 39.8687 13.4904 40.3399C13.0242 41.1623 12.7445 41.8584 12.6396 42.4574C12.51 43.1982 12.6795 43.6907 13.1449 43.9253C13.2399 43.9732 13.324 44.018 13.3319 44.025C13.412 44.0958 12.7056 45.1108 12.4743 45.2574C11.9978 45.5593 11.5702 46.2789 11.8674 46.2789C11.9561 46.2789 11.6736 46.7546 11.3957 47.0733C11.3686 47.1044 11.2311 47.275 11.0901 47.4524C10.6391 48.02 10.0754 48.5184 9.96304 48.4489C9.86504 48.3883 9.94836 47.9374 10.2082 47.1222C10.3612 46.642 10.4258 46.5318 10.6104 46.436C11.1417 46.1603 11.4938 45.4123 11.0056 45.5966C10.8298 45.663 10.8279 45.6469 10.981 45.388C11.313 44.8268 11.7631 43.8346 11.8062 43.5692C11.82 43.4838 11.9029 43.3483 12.0196 43.2203C12.1245 43.1052 12.2567 42.9384 12.3133 42.8496L12.4162 42.6882L12.3264 42.6103C12.2389 42.5344 12.2329 42.5346 12.0922 42.6176L11.9477 42.7029L11.9715 42.4986C12.1446 41.0104 12.7357 39.628 13.6201 38.6426C14.0235 38.1932 14.129 38.1122 14.709 37.8074L14.8776 37.7187L14.905 37.835C14.92 37.8989 14.942 38.0327 14.9539 38.1323ZM14.9217 39.4174C14.7627 40.7226 14.1243 42.722 13.5811 43.616C13.3633 43.9746 12.8325 43.4802 12.8328 42.919C12.833 42.3442 13.2576 41.1946 13.7799 40.3547C13.8885 40.1801 14.2378 39.6472 14.2774 39.5957C14.2953 39.5725 14.4086 39.4207 14.5292 39.2584C15.0211 38.5965 15.0216 38.5967 14.9217 39.4174ZM15.5601 43.4812C15.545 43.4962 15.4961 43.5294 15.4514 43.555C15.3628 43.6055 14.8131 43.9264 14.5672 44.0711C14.3956 44.1721 14.2535 44.2508 13.8236 44.4826C13.6612 44.5702 13.5093 44.6576 13.486 44.6769C13.4627 44.6962 13.3892 44.7257 13.3228 44.7423L13.2021 44.7726L13.3547 44.5341C13.4386 44.4028 13.5073 44.2846 13.5073 44.2712C13.5073 44.1512 13.6962 44.002 13.848 44.002C14.1071 44.002 14.8589 43.774 15.3626 43.5428C15.5654 43.4497 15.6035 43.4378 15.5601 43.4812ZM11.1901 44.4327C11.0258 44.7639 10.8157 45.1678 10.7232 45.3302C10.6308 45.4925 10.5285 45.6823 10.4959 45.7518C10.3066 46.1562 8.75155 46.3247 8.26534 45.9936C7.84255 45.7056 7.95766 45.403 8.61615 45.0716C8.9391 44.909 9.06833 44.8577 9.73353 44.6277C10.4383 44.3841 11.3724 43.8936 11.4392 43.7319C11.4497 43.7065 11.4652 43.7182 11.4736 43.758C11.4821 43.7977 11.3545 44.1013 11.1901 44.4327ZM16.2383 44.6345C16.2093 44.6808 16.1725 44.7188 16.1566 44.7188C16.1406 44.7188 16.1025 44.7432 16.0718 44.7732C15.5677 45.2653 14.2671 46.073 12.7905 46.8112C11.5441 47.4343 11.4055 47.5284 11.229 47.8718C11.0274 48.2642 11.1413 48.6424 11.6068 49.1258C11.7244 49.2479 11.8207 49.3611 11.8207 49.3774C11.8207 49.3936 11.8587 49.4552 11.905 49.5141C12.0343 49.6784 12.0184 49.8969 11.8734 49.9484C10.8536 50.3108 11.1042 51.0427 12.3481 51.3348C12.9468 51.4754 12.5403 51.5124 11.7996 51.3847C10.3003 51.1262 9.02132 50.0814 9.82853 49.7746C9.94604 49.7299 10.3233 49.7939 10.3679 49.866C10.3804 49.8862 10.4683 49.9237 10.5632 49.9493C11.0565 50.0821 11.1929 49.6624 10.7488 49.3783C10.5509 49.2517 10.4495 49.154 10.2079 48.8565C10.106 48.7311 10.1096 48.7238 10.3621 48.543C10.7861 48.2393 11.9894 46.8461 11.9894 46.6588C11.9894 46.634 12.0171 46.6029 12.051 46.5899C12.0849 46.5769 12.1233 46.5326 12.1364 46.4915C12.1546 46.4342 12.2249 46.4102 12.4389 46.3883C13.4717 46.2824 15.0879 45.5272 16.1426 44.6575C16.2973 44.5299 16.3047 44.5281 16.2383 44.6345ZM7.50999 46.098L7.68502 46.2887L7.56262 46.2643C7.49532 46.2508 7.35478 46.1745 7.2503 46.0948C7.06992 45.9571 6.77493 45.8349 6.55491 45.8069C6.46544 45.7954 6.4861 45.7674 6.74204 45.5526L7.02969 45.3113L7.18233 45.6093C7.26628 45.7732 7.41373 45.9931 7.50999 46.098ZM12.1776 45.959C12.1383 46.019 12.0881 46.0681 12.066 46.0681C12.0439 46.0681 12.0671 46.01 12.1176 45.9391C12.2273 45.7851 12.2801 45.8026 12.1776 45.959ZM6.84948 46.1546C6.9427 46.2022 7.12696 46.3106 7.2589 46.3956C7.48794 46.5431 7.51822 46.5509 7.92899 46.5668L8.3592 46.5835L8.38673 46.4737C8.4106 46.3787 8.42932 46.368 8.52575 46.3948C8.72599 46.4503 9.47291 46.4178 9.7571 46.3412C10.197 46.2227 10.2659 46.2161 10.2355 46.2951C10.1759 46.4505 9.43184 46.7087 8.70989 46.8245C8.03862 46.9322 7.99144 46.9486 7.79958 47.1404C7.3017 47.6383 7.75641 48.4905 8.5925 48.6265C8.74821 48.6518 8.75218 48.6559 8.65575 48.6917C8.50775 48.7467 7.45855 48.6272 7.41074 48.5498C7.39847 48.5299 7.35984 48.5136 7.32497 48.5136C7.03395 48.5136 5.87542 47.7004 5.87542 47.4962C5.87542 47.4601 5.91058 47.328 5.95359 47.2026C5.9966 47.0772 6.04585 46.8802 6.06305 46.7648C6.14759 46.1969 6.4589 45.9553 6.84948 46.1546ZM10.0498 46.7565C10.0498 46.7641 9.99407 46.9396 9.92597 47.1465C9.78021 47.5896 9.67028 48.104 9.67028 48.3432C9.67028 48.5392 9.70216 48.5314 9.14322 48.4715C8.27989 48.3789 7.71205 47.9625 7.8557 47.5273C7.94737 47.2495 8.16663 47.1306 8.67611 47.0824C9.07563 47.0447 9.40953 46.9656 9.75461 46.8272C9.93651 46.7543 10.0498 46.7271 10.0498 46.7565ZM5.92509 47.955C6.27025 48.3333 6.97656 48.7238 7.55848 48.8581L7.77285 48.9076V49.1054C7.77285 49.7208 8.20108 50.5797 8.50783 50.5797C8.53924 50.5797 8.57471 50.6051 8.58655 50.636C8.69036 50.9065 6.40678 50.852 5.72784 50.5678C5.11139 50.3098 4.80396 49.7935 5.07124 49.4651C5.0914 49.4404 5.13643 49.3253 5.17139 49.2094C5.20634 49.0934 5.29042 48.8657 5.35822 48.7034C5.75849 47.7454 5.74732 47.7601 5.92509 47.955ZM9.77194 48.9142C9.81052 49.068 9.76819 49.1928 9.53869 49.6019C9.33954 49.957 9.27853 50.2038 9.37513 50.2635C9.43698 50.3017 9.42779 50.3355 9.32238 50.4578C9.19791 50.602 9.07516 50.638 8.97236 50.5602C8.92716 50.526 8.8562 50.4975 8.81463 50.4968C8.56147 50.4922 8.1259 49.8801 8.07235 49.4535C8.00758 48.9377 7.98617 48.958 8.60861 48.9467C8.90267 48.9414 9.24758 48.9103 9.37513 48.8776C9.7084 48.7921 9.74209 48.7953 9.77194 48.9142ZM10.6355 49.608C10.707 49.6376 10.7558 49.6775 10.744 49.6966C10.7239 49.7293 10.4964 49.6572 10.3362 49.5675C10.2966 49.5453 10.1871 49.5149 10.0927 49.4998C9.90928 49.4704 9.90978 49.4725 10.0133 49.1961C10.0487 49.1013 10.0565 49.1052 10.2776 49.3263C10.403 49.4517 10.564 49.5784 10.6355 49.608ZM14.7723 49.7101C14.7723 49.742 14.7201 49.7787 14.6563 49.7917C14.5926 49.8047 14.383 49.9214 14.1907 50.0512C13.765 50.3385 13.4861 50.4532 13.2131 50.4532C12.7003 50.4532 13.0363 50.144 13.8236 49.8915C14.0091 49.832 14.2463 49.7553 14.3506 49.721C14.5981 49.6398 14.7723 49.6353 14.7723 49.7101ZM5.05585 50.4572C5.25593 50.6679 5.83443 50.9146 6.27599 50.9775C7.2153 51.1112 8.06775 51.0825 8.76373 50.8936C9.26419 50.7578 9.2585 50.7571 9.22384 50.9487C9.15608 51.3228 8.97034 51.4353 8.1945 51.5721C6.81937 51.8147 5.28022 51.409 4.99071 50.7277C4.82205 50.3307 4.84507 50.2352 5.05585 50.4572ZM9.509 51.2228C9.44128 53.0693 10.6545 54.0226 12.6851 53.7185C13.6322 53.5766 13.5759 53.569 14.3447 53.9423C14.9944 54.2578 15.4453 54.3314 16.2476 54.253C17.0885 54.1707 17.0237 54.2137 17.0519 53.7182C17.0779 53.2612 17.1842 52.9082 17.3686 52.6664L17.4754 52.5264L17.7156 52.6027C17.8477 52.6446 18.1075 52.7194 18.2931 52.769C20.3863 53.3281 20.7772 53.5592 20.5331 54.0929C20.2318 54.7517 19.1852 55.173 17.6817 55.2408C16.4947 55.2943 15.5593 55.142 14.5614 54.7329C14.4107 54.6711 14.135 54.5666 13.9488 54.5008L13.6102 54.381L12.4519 54.3862C10.6853 54.3942 9.34447 54.0971 9.20225 53.6661C9.10363 53.3673 9.19896 52.0644 9.37715 51.2755C9.51883 50.6483 9.53021 50.6438 9.509 51.2228ZM10.0287 50.9838C10.0983 51.0355 10.3117 51.1563 10.503 51.2524C10.8466 51.4248 10.8509 51.429 10.8509 51.5863C10.8509 52.1549 11.3048 52.8922 11.9222 53.3265L12.2134 53.5313L11.8589 53.5314C11.1078 53.5317 10.3566 53.1625 10.1038 52.6689C10.0676 52.5982 10.0246 52.5309 10.0081 52.5193C9.868 52.4207 9.71198 51.4327 9.77262 51.0283C9.8042 50.8178 9.80475 50.8177 10.0287 50.9838ZM15.3929 51.2872C15.821 51.6745 16.2807 51.9836 16.8254 52.2503C17.1822 52.425 17.2162 52.4516 17.1629 52.5136C17.1303 52.5515 17.0544 52.6869 16.9942 52.8145C16.8946 53.0257 16.8588 53.1692 16.7627 53.7421C16.6837 54.2127 15.3597 54.1572 14.2931 53.6386C13.7273 53.3635 13.5109 53.3233 13.0214 53.4022C12.2776 53.5222 11.3116 52.6824 11.1403 51.7668C11.0879 51.4869 11.09 51.4851 11.3659 51.5653C12.3829 51.861 14.1258 51.7072 14.8579 51.2573C15.1901 51.0532 15.1305 51.0498 15.3929 51.2872ZM5.19745 51.3555C5.77608 51.8681 7.69004 52.0552 8.73135 51.701C9.06517 51.5874 9.16717 51.6128 8.92012 51.748C8.02492 52.2378 5.88006 52.064 5.22941 51.4489C5.07883 51.3065 5.0513 51.226 5.19745 51.3555ZM9.52271 54.2303C10.3095 54.5506 12.0972 54.7572 12.9144 54.6222C13.2283 54.5704 13.6836 54.6407 14.0344 54.7953C14.1271 54.8362 14.3359 54.9206 14.4982 54.9827C14.6605 55.0449 14.8313 55.1129 14.8777 55.1337C16.203 55.728 19.1577 55.5766 20.1694 54.8625C20.4737 54.6477 20.501 54.6499 20.265 54.87C19.6872 55.4088 18.7905 55.6396 17.2747 55.6396C16.014 55.6396 15.4907 55.5347 14.2663 55.0369C13.6078 54.7691 13.3733 54.7325 12.7344 54.7978C11.6567 54.9079 9.80112 54.615 9.30842 54.257C9.18956 54.1706 9.16594 54.056 9.28025 54.1202C9.32082 54.143 9.42994 54.1925 9.52271 54.2303Z" fill="black"/>
<path fill-rule="evenodd" clip-rule="evenodd" d="M45.4853 26.8254C45.4184 26.8771 45.3386 26.9435 45.308 26.9729C45.268 27.0114 45.2298 27.0143 45.1718 26.9833C44.9939 26.8881 44.7101 27.0689 44.7101 27.2774V27.3984L44.2684 27.4128C43.7698 27.429 43.6997 27.4659 43.5919 27.7683C43.5576 27.8646 43.5323 27.8981 43.531 27.8488C43.5258 27.6403 43.2765 27.5593 42.768 27.6007C42.3061 27.6383 42.303 27.638 42.2792 27.5433C42.2317 27.3539 42.0182 27.2257 41.7988 27.2548C41.6349 27.2765 41.5829 27.2651 41.4814 27.1853C41.2174 26.9777 40.6254 27.0783 40.4977 27.3526C40.463 27.4271 40.4296 27.4419 40.3367 27.4235C40.2723 27.4108 40.1722 27.418 40.1143 27.4396C40.0293 27.4713 39.9822 27.4584 39.87 27.3729C39.5939 27.1623 39.0217 27.2372 38.9048 27.4992C38.8722 27.5724 38.8263 27.5914 38.6754 27.5942C38.4342 27.5987 38.2945 27.7182 38.2887 27.9249C38.2843 28.08 38.1757 28.1229 37.7875 28.1229C37.4609 28.1229 37.1919 28.4107 37.2806 28.6651C37.3217 28.7829 37.316 28.7916 37.1481 28.8667C36.5242 29.1458 36.2884 29.7525 36.4654 30.623C36.4994 30.7901 36.5555 31.1071 36.5901 31.3275C36.6247 31.5478 36.6927 31.9652 36.7411 32.2551C36.7896 32.545 36.8642 33.0098 36.907 33.2881C36.9498 33.5664 37.0049 33.908 37.0295 34.0471C37.0542 34.1863 37.1135 34.5373 37.1615 34.8272C37.2094 35.1171 37.2775 35.525 37.3127 35.7337C37.3479 35.9424 37.4047 36.2935 37.4388 36.5138C37.473 36.7341 37.5097 36.9428 37.5205 36.9776C37.5313 37.0124 37.5596 37.1831 37.5833 37.3571C37.607 37.531 37.6532 37.8251 37.6859 38.0106C37.7186 38.1962 37.7851 38.5946 37.8336 38.8961C37.8822 39.1976 37.9509 39.615 37.9863 39.8237C38.0218 40.0325 38.0784 40.3903 38.1122 40.6189C38.146 40.8475 38.1911 41.1037 38.2125 41.1881C38.2338 41.2726 38.2635 41.4555 38.2785 41.5947C38.2934 41.7338 38.3325 41.99 38.3653 42.1639C38.4506 42.6157 38.5525 43.2209 38.6172 43.6608C38.6825 44.1048 38.7792 44.6955 38.8691 45.1998C38.967 45.7493 39.0624 46.3303 39.1045 46.6334C39.1254 46.7841 39.1708 47.0593 39.2055 47.2448C39.2693 47.5866 39.3606 48.1322 39.4631 48.7838C39.6031 49.6742 39.6603 49.9453 39.7418 50.1072C40.2316 51.0801 41.2444 51.032 41.4931 50.024C41.5624 49.7431 41.5615 49.7058 41.4677 48.9107C41.4143 48.4583 41.3443 47.8509 41.3123 47.561C41.2803 47.2712 41.2357 46.9486 41.2131 46.8442C41.1905 46.7399 41.1605 46.5122 41.1464 46.3382C41.1323 46.1643 41.0943 45.8512 41.0619 45.6425C41.0295 45.4338 40.9813 45.0448 40.9547 44.7781C40.9283 44.5114 40.899 44.2808 40.8898 44.2657C40.8806 44.2505 40.8444 43.9754 40.8095 43.6543C40.7745 43.3331 40.7281 42.9756 40.7064 42.8596C40.6847 42.7437 40.6553 42.5255 40.6411 42.3747C40.6172 42.1202 40.5865 41.8726 40.367 40.1611C40.3223 39.8132 40.2465 39.2155 40.1984 38.8329C40.1504 38.4502 40.0749 37.8525 40.0307 37.5047C39.9865 37.1568 39.9107 36.5591 39.8622 36.1765C39.8137 35.7938 39.746 35.272 39.7119 35.0169C39.6778 34.7618 39.631 34.3823 39.6081 34.1736C39.5851 33.9649 39.5383 33.5949 39.504 33.3514C39.4697 33.1079 39.4208 32.7379 39.3953 32.5292C39.3697 32.3204 39.3134 31.8651 39.27 31.5172C39.2266 31.1693 39.1612 30.6381 39.1246 30.3366C39.087 30.0267 39.0194 29.6915 38.9692 29.5655C38.8702 29.3173 38.8695 29.3212 39.0223 29.2828C39.0959 29.2644 39.154 29.2771 39.1983 29.3214C39.4581 29.5812 39.9749 29.5187 40.2617 29.1929C40.3518 29.0905 40.7438 29.0881 40.8804 29.1891C41.1102 29.359 41.557 29.3254 41.7412 29.1243C41.8616 28.993 41.9142 28.9662 42.0519 28.9662C42.2746 28.9662 42.4396 28.8254 42.4493 28.6272C42.4557 28.4944 42.469 28.4801 42.5967 28.4678C42.7421 28.4537 42.7458 28.4806 42.6189 28.6295C42.4704 28.8039 42.4646 30.1239 42.6019 32.5292C42.6257 32.9466 42.6737 34.2124 42.7085 35.3421C42.7434 36.4717 42.78 37.4204 42.7899 37.4503C42.7999 37.4802 42.8285 38.2067 42.8535 39.0648C42.8786 39.9228 42.9173 40.919 42.9395 41.2784C42.9618 41.6379 42.9993 42.5961 43.0228 43.4078C43.0464 44.2194 43.0846 45.2251 43.1079 45.6425C43.1311 46.06 43.1702 47.0137 43.1947 47.7619C43.2323 48.9102 43.2518 49.1587 43.3194 49.3555C43.6289 50.2549 44.5718 50.2809 44.894 49.3988C44.9277 49.3064 44.9506 47.6325 44.9732 43.6186C45.0254 34.2813 44.9891 29.0068 44.8706 28.7454L44.7992 28.5879L44.9033 28.6562C44.9775 28.7048 45.0591 28.7173 45.1872 28.6997C45.3318 28.6799 45.3762 28.6899 45.4142 28.7508C45.578 29.013 46.1632 29.0357 46.4255 28.7901C46.5725 28.6523 46.9362 28.663 47.1112 28.8102C47.3492 29.0105 47.7434 29.0218 48.0041 28.8359C48.1072 28.7624 48.203 28.7342 48.3509 28.7338C48.5822 28.7333 48.7579 28.5869 48.7579 28.3946C48.7579 28.3043 48.7768 28.2916 48.9104 28.2916H49.0629L48.9128 28.4577C48.717 28.6745 48.6344 28.8393 48.6109 29.0604C48.551 29.6234 48.4973 30.4505 48.4409 31.6803C48.4059 32.4425 48.3699 33.0782 48.361 33.0928C48.3521 33.1075 48.3233 33.6413 48.2972 34.279C48.271 34.9168 48.2313 35.6568 48.2089 35.9235C48.1865 36.1902 48.1399 37.0258 48.1054 37.7805C48.0708 38.5352 48.0325 39.2088 48.0202 39.2774C48.008 39.346 47.9686 40.0187 47.9328 40.7725C47.897 41.5262 47.8513 42.3705 47.8313 42.6488C47.8113 42.9271 47.7819 43.5912 47.766 44.1246C47.7502 44.658 47.72 45.3031 47.699 45.5582C47.6622 46.0059 47.5727 47.4604 47.5122 48.5941C47.4424 49.9011 48.2535 50.6226 49.017 49.9329C49.4103 49.5776 49.4586 49.3625 49.6206 47.2448C49.6561 46.781 49.714 46.1359 49.7494 45.8112C49.7847 45.4865 49.8144 45.1165 49.8154 44.989C49.8163 44.8614 49.8357 44.6622 49.8585 44.5462C49.8813 44.4303 49.9256 44.0508 49.957 43.7029C49.9883 43.3551 50.0348 42.8807 50.0603 42.6488C50.0857 42.4169 50.1361 41.9046 50.1722 41.5103C50.2083 41.1161 50.2755 40.3856 50.3214 39.887C50.3673 39.3884 50.4312 38.6674 50.4634 38.2847C50.4955 37.9021 50.5414 37.4372 50.5654 37.2517C50.5894 37.0661 50.6206 36.7246 50.6348 36.4927C50.649 36.2608 50.6877 35.8433 50.7207 35.5651C50.7537 35.2868 50.801 34.7757 50.8258 34.4293C50.8506 34.083 50.8782 33.7877 50.8872 33.7731C50.8962 33.7586 50.9338 33.3684 50.9707 32.906C51.0076 32.4437 51.0549 31.9515 51.0757 31.8124C51.0965 31.6732 51.1256 31.3506 51.1403 31.0955C51.155 30.8404 51.1942 30.4143 51.2274 30.1486C51.3194 29.4129 51.3085 29.0476 51.1867 28.7843C50.9992 28.379 50.6352 28.1135 50.1762 28.0475C49.9682 28.0176 49.9614 28.0122 49.9508 27.8695C49.9428 27.764 49.898 27.6836 49.7922 27.5853L49.6446 27.4483H49.1802C48.7206 27.4483 48.7158 27.4473 48.7158 27.349C48.7158 27.1329 48.3912 26.9267 48.1931 27.017C48.116 27.052 48.0887 27.0449 48.0474 26.9788C47.8575 26.6748 47.3166 26.6397 47.0045 26.9112C46.8718 27.0265 46.4864 27.0443 46.4087 26.9387C46.2515 26.7247 45.7027 26.6575 45.4853 26.8254ZM46.0918 27.0267C46.2807 27.1418 46.3064 27.2226 46.3445 27.8209C46.3942 28.6023 46.1852 28.8991 45.7355 28.6857C45.5431 28.5944 45.5161 28.51 45.4761 27.8757C45.4244 27.0578 45.6447 26.7541 46.0918 27.0267ZM47.6972 27.0232C47.9281 27.141 47.9568 27.241 47.9568 27.9286C47.9568 28.589 47.9488 28.6121 47.6843 28.7126C47.5346 28.7696 47.2795 28.6745 47.1819 28.5254C47.1132 28.4205 47.068 27.2558 47.1291 27.1602C47.2522 26.9672 47.4798 26.9123 47.6972 27.0232ZM45.2067 27.8594C45.2177 28.4262 45.2138 28.4602 45.1381 28.4602C45.001 28.4602 44.9742 28.3713 44.954 27.8488C44.931 27.254 44.9364 27.2286 45.0833 27.2456L45.195 27.2585L45.2067 27.8594ZM46.7958 27.2773C46.8456 27.3578 46.8952 28.311 46.8537 28.3886C46.7013 28.6733 46.4466 27.65 46.582 27.2972C46.6077 27.23 46.758 27.2161 46.7958 27.2773ZM48.4047 27.2697C48.4345 27.2892 48.458 27.5122 48.468 27.8699L48.4839 28.4391L48.3742 28.4519C48.2488 28.4664 48.2098 28.2687 48.2098 27.6178C48.2098 27.2424 48.2509 27.169 48.4047 27.2697ZM41.2191 27.3404C41.4681 27.4444 41.4819 27.4812 41.6362 28.4524C41.6951 28.8225 41.6617 28.9225 41.4453 29.0252C41.0947 29.1916 40.8756 28.9748 40.7679 28.3548C40.6215 27.5125 40.628 27.4588 40.8913 27.3433C41.0591 27.2696 41.0499 27.2697 41.2191 27.3404ZM39.6636 27.5477C39.8904 27.6425 40.1711 28.7865 40.0316 29.0471C39.823 29.4368 39.3188 29.2732 39.2108 28.7808C38.9628 27.6502 39.0886 27.3075 39.6636 27.5477ZM41.9549 27.5228C41.9818 27.5399 42.0174 27.6265 42.034 27.7153C42.0733 27.9247 42.0922 27.9294 42.6658 27.8734C43.1876 27.8224 43.3186 27.8469 43.3186 27.9954C43.3186 28.1173 43.2565 28.1382 42.6881 28.207L42.1629 28.2707L42.1747 28.4919C42.1903 28.7853 42.0074 28.8321 41.928 28.5551C41.8251 28.1956 41.752 27.5627 41.8093 27.5264C41.8764 27.4839 41.8931 27.4834 41.9549 27.5228ZM40.382 27.754C40.4733 27.9008 40.595 28.7894 40.5339 28.863C40.4588 28.9535 40.3323 28.8636 40.3076 28.7022C40.2962 28.6271 40.257 28.3772 40.2207 28.147C40.1676 27.8108 40.1652 27.7216 40.2082 27.6943C40.2906 27.642 40.3182 27.6515 40.382 27.754ZM44.6574 27.6988C44.689 27.7003 44.7101 27.7602 44.7101 27.8488V27.9964L44.3833 27.9958C43.9511 27.9951 43.8668 27.9701 43.8668 27.8426C43.8668 27.7038 43.9957 27.6585 44.3306 27.6793C44.4813 27.6886 44.6284 27.6975 44.6574 27.6988ZM49.604 27.7449C49.696 27.7941 49.711 27.912 49.635 27.988C49.6026 28.0204 49.4374 28.0386 49.1758 28.0386H48.7672L48.7498 27.8897C48.7402 27.8078 48.7413 27.7319 48.7522 27.721C48.7915 27.6818 49.5244 27.7023 49.604 27.7449ZM38.8197 28.0686C38.833 28.1564 38.8747 28.3973 38.9123 28.6038C38.9868 29.0125 38.9424 29.1804 38.7927 29.0562C38.6678 28.9525 38.5016 27.9284 38.5998 27.8677C38.6937 27.8096 38.7943 27.9016 38.8197 28.0686ZM44.7214 28.3864C44.7475 28.5581 44.7536 28.5578 44.6111 28.3904L44.491 28.2494H44.5957C44.6815 28.2494 44.7043 28.2742 44.7214 28.3864ZM44.092 28.3547C44.2995 28.4414 44.5301 28.6522 44.6285 28.8451C44.7081 29.0012 44.7103 29.1098 44.6998 32.5174L44.689 36.0289L44.2786 36.0656C44.0529 36.0858 43.6687 36.0887 43.4248 36.072L42.9813 36.0419L42.9811 35.6348C42.9811 35.4109 42.9628 34.9336 42.9405 34.5742C42.9182 34.2147 42.8808 33.3324 42.8574 32.6135C42.834 31.8946 42.7919 30.8074 42.7638 30.1975C42.7064 28.9477 42.7139 28.8915 42.9755 28.6137C43.2562 28.3157 43.7336 28.205 44.092 28.3547ZM38.364 28.4592C38.4004 28.6249 38.3658 28.6708 38.2036 28.6721C38.1296 28.6726 37.9932 28.6907 37.9004 28.7122C37.7052 28.7574 37.542 28.6818 37.542 28.5461C37.542 28.4383 37.5946 28.4113 37.8748 28.3752C38.3187 28.3181 38.3336 28.3207 38.364 28.4592ZM50.1485 28.5258C50.116 28.6113 50.1343 28.6432 50.2831 28.7611C50.604 29.0152 50.6053 29.0322 50.4397 30.7371C50.416 30.9806 50.3607 31.5689 50.3167 32.0443C50.1813 33.506 50.0676 34.7091 50.0387 34.9853L50.0112 35.2488H50.1402C50.2687 35.2488 50.2693 35.2478 50.2957 34.9642C50.3103 34.8077 50.3496 34.4234 50.3829 34.1104C50.4163 33.7973 50.4632 33.2755 50.4871 32.9508C50.5111 32.6261 50.5395 32.332 50.5501 32.2973C50.5608 32.2625 50.5976 31.8735 50.632 31.4329C50.6664 30.9922 50.713 30.4989 50.7356 30.3366C50.8764 29.3249 50.8436 28.9596 50.5884 28.6968C50.507 28.6131 50.4607 28.5446 50.4855 28.5446C50.7284 28.5446 50.9778 29.1175 50.9141 29.5291C50.8884 29.6949 50.8474 30.1152 50.8229 30.4631C50.7985 30.8109 50.7613 31.2094 50.7403 31.3485C50.7193 31.4877 50.6814 31.8956 50.6561 32.2551C50.6307 32.6145 50.5928 33.0225 50.5719 33.1616C50.551 33.3008 50.5128 33.7087 50.4871 34.0682C50.4614 34.4277 50.4233 34.8261 50.4025 34.9537C50.3816 35.0812 50.3517 35.3991 50.3359 35.6599L50.3072 36.1343L50.1756 36.1375C50.1032 36.1393 50.006 36.148 49.9597 36.1569C49.8658 36.1748 48.9433 36.1065 48.7212 36.0651L48.579 36.0387L48.6063 35.3591C48.6212 34.9854 48.6527 34.4424 48.6761 34.1525C48.6995 33.8626 48.747 33.0467 48.7816 32.3394C48.9487 28.9307 48.9475 28.941 49.2116 28.6907C49.5207 28.3978 50.2457 28.2702 50.1485 28.5258ZM43.8154 28.5174C43.8 28.5984 43.8301 28.6372 43.9772 28.726C44.3424 28.9466 44.3217 28.7596 44.3601 32.1965L44.3939 35.2277H44.4993H44.6047L44.6062 33.773C44.6094 30.7441 44.5696 29.0422 44.4923 28.903C44.2954 28.5481 43.8573 28.2986 43.8154 28.5174ZM38.1691 29.2376C38.3837 29.3463 38.6383 29.6011 38.6383 29.707C38.6383 29.749 38.5974 29.7284 38.5163 29.6454C38.3675 29.4932 38.0614 29.3315 37.9807 29.3625C37.9044 29.3918 37.9024 29.5987 37.9784 29.5987C38.0592 29.5987 38.3722 29.8328 38.4262 29.9336C38.4919 30.0563 38.5477 30.385 38.5976 30.9426C38.6218 31.2123 38.6677 31.6226 38.6998 31.8545C38.7318 32.0864 38.7701 32.428 38.7848 32.6135C38.7996 32.799 38.8291 33.0552 38.8503 33.1827C38.8716 33.3103 38.909 33.6328 38.9334 33.8995C38.9577 34.1662 38.9966 34.5078 39.0196 34.6585C39.0427 34.8092 39.0874 35.1855 39.119 35.4947C39.1506 35.8039 39.1958 36.0761 39.2194 36.0998C39.2786 36.159 39.4307 36.1038 39.4494 36.0163C39.4577 35.9768 39.4784 36.0774 39.4953 36.2397C39.5122 36.402 39.5302 36.5727 39.5354 36.6188C39.5478 36.7286 39.0366 36.8417 38.3609 36.8788L37.8938 36.9044L37.8258 36.5299C37.7883 36.3239 37.7183 35.9087 37.6701 35.6072C37.5573 34.9015 37.4278 34.121 37.3308 33.5622C37.2886 33.3187 37.2423 33.0246 37.2279 32.9087C37.2135 32.7927 37.175 32.5555 37.1425 32.3816C37.0558 31.9193 36.9483 31.2759 36.8853 30.8426C36.8549 30.6338 36.8067 30.3383 36.7782 30.1858C36.6382 29.4385 37.4601 28.8783 38.1691 29.2376ZM39.2987 34.8377C39.287 34.8667 39.2774 34.843 39.2774 34.785C39.2774 34.727 39.287 34.7033 39.2987 34.7323C39.3104 34.7613 39.3104 34.8087 39.2987 34.8377ZM39.4263 35.7864C39.4157 35.827 39.4071 35.7938 39.4071 35.7126C39.4071 35.6315 39.4157 35.5983 39.4263 35.6388C39.437 35.6794 39.437 35.7459 39.4263 35.7864ZM44.6584 37.097L44.67 37.7787L44.4265 37.7858C43.9914 37.7985 43.342 37.7691 43.2448 37.7323C43.1523 37.6973 43.15 37.6812 43.15 37.064V36.4315L43.8562 36.4193C44.2447 36.4127 44.5815 36.409 44.6047 36.4112C44.6304 36.4137 44.6514 36.6819 44.6584 37.097ZM49.285 36.5155C49.4705 36.5374 49.7522 36.5554 49.9109 36.5556L50.1995 36.5559L50.1759 36.7562C50.1629 36.8664 50.1408 37.1368 50.1267 37.3571C50.0902 37.9305 50.1051 37.9057 49.7987 37.9025C49.6553 37.901 49.3293 37.8671 49.0742 37.8271L48.6104 37.7545L48.626 37.1236C48.644 36.4001 48.6406 36.412 48.8158 36.4483C48.8883 36.4634 49.0995 36.4936 49.285 36.5155ZM39.5659 37.1408C39.5659 37.161 39.5953 37.4573 39.6313 37.7993C39.6672 38.1413 39.6882 38.4295 39.678 38.4397C39.6381 38.4796 38.8541 38.5784 38.572 38.5791L38.2738 38.5799L38.2205 38.2742C38.1912 38.1061 38.1437 37.8133 38.115 37.6236L38.0628 37.2786L38.2557 37.2528C38.3618 37.2385 38.6339 37.2115 38.8605 37.1928C39.0871 37.174 39.2847 37.1464 39.2997 37.1314C39.3406 37.0905 39.5659 37.0985 39.5659 37.1408ZM44.2357 38.1626L44.7101 38.159L44.7196 41.1839C44.7447 49.1451 44.7338 49.4282 44.3921 49.6888C43.8865 50.0745 43.5362 49.6201 43.4832 48.5098C43.4644 48.1155 43.4299 47.3945 43.4066 46.9075C43.3832 46.4205 43.3533 45.6046 43.3399 45.0944C43.3266 44.5842 43.2972 43.8062 43.2745 43.3656C43.2519 42.925 43.2053 41.7296 43.171 40.7092C43.1367 39.6888 43.096 38.6852 43.0806 38.479L43.0527 38.104L43.407 38.1352C43.6019 38.1523 43.9749 38.1647 44.2357 38.1626ZM48.9133 38.175C49.0714 38.2074 49.4065 38.2473 49.658 38.2637L50.1154 38.2934L50.0912 38.405C50.0779 38.4664 50.0379 38.8771 50.0022 39.3178C49.9666 39.7584 49.9191 40.2422 49.8968 40.393C49.8746 40.5437 49.836 40.9611 49.8112 41.3206C49.7864 41.6801 49.7578 41.9986 49.7476 42.0284C49.7255 42.0936 49.6015 43.5391 49.5822 43.9559C49.5692 44.2389 49.5275 44.6903 49.4305 45.6004C49.4058 45.8323 49.3787 46.1264 49.3704 46.2539C49.362 46.3815 49.3261 46.7325 49.2906 47.034C49.2552 47.3355 49.1959 47.9142 49.1589 48.32C49.0725 49.2686 49.0029 49.4664 48.6585 49.7431C48.4267 49.9293 48.0191 49.666 47.9181 49.2648C47.8648 49.0533 47.9164 47.2668 48.0007 46.4015C48.0233 46.1696 48.0597 45.496 48.0815 44.9046C48.1033 44.3133 48.1417 43.6112 48.1668 43.3445C48.1919 43.0778 48.2405 42.2714 48.2748 41.5525C48.3397 40.1914 48.4083 38.9454 48.4473 38.4217C48.4733 38.0709 48.4545 38.0809 48.9133 38.175ZM39.8769 39.3072C39.9148 39.5681 39.9752 40.0187 40.0112 40.3086C40.0473 40.5985 40.1141 41.1298 40.1598 41.4893C40.2055 41.8487 40.2814 42.4464 40.3285 42.8175C40.3756 43.1885 40.4515 43.7862 40.4972 44.1457C40.543 44.5051 40.6082 45.0459 40.6422 45.3474C40.6762 45.6488 40.7222 45.9904 40.7443 46.1063C40.7665 46.2223 40.8056 46.5259 40.8314 46.781C40.8571 47.0361 40.8945 47.3207 40.9144 47.4135C40.9343 47.5062 40.9629 47.7339 40.978 47.9194C40.9931 48.105 41.0358 48.437 41.0729 48.6573C41.1741 49.258 41.1695 49.9482 41.0628 50.152C40.796 50.6619 40.1964 50.4225 40.0124 49.7325C39.9576 49.5272 39.9378 49.4157 39.7763 48.4043C39.6914 47.8727 39.5651 47.101 39.4346 46.3172C39.3883 46.0389 39.3125 45.5835 39.2662 45.3052C39.2199 45.0269 39.1462 44.581 39.1024 44.3143C39.0586 44.0476 38.9822 43.5828 38.9326 43.2813C38.8831 42.9798 38.8067 42.5149 38.7629 42.2482C38.7191 41.9815 38.6454 41.5356 38.5991 41.2574C38.3084 39.5078 38.2272 38.9854 38.2418 38.9568C38.2484 38.9438 38.4969 38.9287 38.794 38.9232C39.091 38.9177 39.4004 38.8971 39.4816 38.8774C39.8138 38.7966 39.8006 38.7822 39.8769 39.3072Z" fill="black"/>
<path fill-rule="evenodd" clip-rule="evenodd" d="M32.3011 38.7866C32.267 38.8218 32.1647 38.9195 32.0737 39.0039L31.9082 39.1572L32.0315 39.2606C32.0993 39.3174 32.2136 39.4142 32.2854 39.4756C32.3572 39.537 32.5276 39.682 32.6639 39.798C33.0392 40.117 33.9725 40.9312 34.3052 41.2298C34.4676 41.3756 34.6767 41.5589 34.7699 41.6372C34.8632 41.7156 34.9785 41.8177 35.0261 41.8641C35.0738 41.9105 35.3106 42.1287 35.5523 42.349C36.1108 42.858 36.7314 43.449 37.6319 44.3297C38.0237 44.7129 38.2994 44.9601 38.2445 44.8789C38.1532 44.7438 37.5961 44.0673 37.4466 43.9101C37.4118 43.8735 37.2315 43.6658 37.046 43.4486C36.8605 43.2313 36.664 43.0042 36.6094 42.9438C36.5548 42.8833 36.4125 42.7214 36.2932 42.5839C36.0941 42.3546 35.3609 41.5367 35.2118 41.3776C35.177 41.3405 34.9554 41.1028 34.7194 40.8493C33.7851 39.8459 32.977 39.0687 32.6076 38.818C32.4427 38.706 32.3849 38.7001 32.3011 38.7866Z" fill="black"/>
</svg>
