<svg width="12" height="12" viewBox="0 0 12 12" fill="none" xmlns="http://www.w3.org/2000/svg">
<path d="M8.5 1.41421C8.63132 1.28289 8.78722 1.17872 8.95881 1.10765C9.13039 1.03658 9.31428 1 9.5 1C9.68572 1 9.86962 1.03658 10.0412 1.10765C10.2128 1.17872 10.3687 1.28289 10.5 1.41421C10.6313 1.54554 10.7355 1.70144 10.8066 1.87302C10.8776 2.0446 10.9142 2.2285 10.9142 2.41421C10.9142 2.59993 10.8776 2.78383 10.8066 2.95541C10.7355 3.12699 10.6313 3.28289 10.5 3.41421L3.75 10.1642L1 10.9142L1.75 8.16421L8.5 1.41421Z" stroke="#737373" stroke-width="0.9" stroke-linecap="round" stroke-linejoin="round"/>
</svg>
