<svg width="20" height="20" viewBox="0 0 20 20" fill="none" xmlns="http://www.w3.org/2000/svg">
<path d="M20 10C20 15.5228 15.5228 20 10 20C4.47715 20 0 15.5228 0 10C0 4.47715 4.47715 0 10 0C15.5228 0 20 4.47715 20 10Z" fill="#D78108" fill-opacity="0.2"/>
<g clip-path="url(#clip0_193_1528)">
<path d="M15.002 8.89063C15.002 12.7795 10.002 16.1128 10.002 16.1128C10.002 16.1128 5.00195 12.7795 5.00195 8.89063C5.00195 7.56454 5.52874 6.29277 6.46642 5.35509C7.4041 4.41741 8.67587 3.89062 10.002 3.89062C11.328 3.89063 12.5998 4.41741 13.5375 5.35509C14.4752 6.29277 15.002 7.56454 15.002 8.89063Z" stroke="#D78108" stroke-width="0.7" stroke-linecap="round" stroke-linejoin="round"/>
<path d="M10.0007 10.556C10.9211 10.556 11.6673 9.8098 11.6673 8.88932C11.6673 7.96885 10.9211 7.22266 10.0007 7.22266C9.08018 7.22266 8.33398 7.96885 8.33398 8.88932C8.33398 9.8098 9.08018 10.556 10.0007 10.556Z" stroke="#D78108" stroke-width="0.7" stroke-linecap="round" stroke-linejoin="round"/>
</g>
<defs>
<clipPath id="clip0_193_1528">
<rect width="13.3333" height="13.3333" fill="white" transform="translate(3.33398 3.33398)"/>
</clipPath>
</defs>
</svg>
