<svg width="16" height="18" viewBox="0 0 16 18" fill="none" xmlns="http://www.w3.org/2000/svg">
<path fill-rule="evenodd" clip-rule="evenodd" d="M7.72064 12.716C6.10421 12.8825 5.0228 14.3431 5.35497 15.9112C5.43135 16.2717 5.64299 16.7255 5.8491 16.9707L5.88785 17.0168L7.74635 15.158L9.60483 13.2993L9.55699 13.2602C9.09421 12.8821 8.32407 12.6539 7.72064 12.716ZM9.28131 13.2249C9.36049 13.3255 9.10664 13.5739 9.01661 13.4839C8.96096 13.4282 8.97787 13.3802 9.09169 13.2704C9.18313 13.1823 9.23752 13.1692 9.28131 13.2249ZM7.8726 15.286L6.00382 17.1546L6.07335 17.2235L6.14287 17.2924L8.01165 15.4238L9.88043 13.5552L9.81091 13.4863L9.74139 13.4174L7.8726 15.286ZM8.86226 13.6085C8.92773 13.6588 8.91474 13.7135 8.81381 13.8125C8.69831 13.9258 8.65684 13.9381 8.60641 13.8739C8.53335 13.7811 8.76881 13.5368 8.86226 13.6085ZM8.13791 15.5518L6.27943 17.4105L6.32727 17.4496C6.59724 17.6702 7.05345 17.8776 7.42718 17.9498C9.30151 18.3115 10.9242 16.6632 10.5293 14.7987C10.4529 14.4381 10.2413 13.9843 10.0352 13.7391L9.9964 13.693L8.13791 15.5518ZM8.46693 14.0179C8.49331 14.0416 8.49997 14.0614 8.49712 14.1077C8.49274 14.1785 8.29156 14.3299 8.23902 14.3019C8.1534 14.2563 8.16363 14.1992 8.27783 14.085C8.38046 13.9824 8.41419 13.9704 8.46693 14.0179ZM10.0744 14.0201C10.1527 14.0984 9.96486 14.3419 9.85554 14.3038C9.75759 14.2697 9.76622 14.2024 9.8836 14.085C9.98774 13.9809 10.0231 13.9688 10.0744 14.0201ZM8.0453 14.4044C8.12942 14.4492 8.11867 14.5071 8.0051 14.6206C7.90348 14.7222 7.87215 14.7337 7.81627 14.6897C7.76197 14.647 7.774 14.5916 7.8563 14.5053C7.95826 14.3985 7.99612 14.3783 8.0453 14.4044ZM9.67802 14.4314C9.72542 14.4844 9.71349 14.518 9.61086 14.6206C9.50976 14.7217 9.47785 14.7336 9.42328 14.6907C9.3589 14.6401 9.37441 14.59 9.48894 14.4787C9.58977 14.3807 9.62486 14.3719 9.67802 14.4314ZM7.67358 14.8305C7.75512 14.9201 7.52353 15.1637 7.4234 15.0936C7.3581 15.0478 7.37063 14.9927 7.4693 14.8914C7.57179 14.7863 7.62026 14.7718 7.67358 14.8305ZM9.27708 14.8285C9.32808 14.8794 9.30958 14.9268 9.19568 15.0366C9.09665 15.132 9.03802 15.1383 8.99526 15.0581C8.93995 14.9543 9.19505 14.7464 9.27708 14.8285ZM7.27264 15.2271C7.32392 15.2783 7.31188 15.3137 7.20775 15.4179C7.08935 15.5363 7.00981 15.5439 6.98359 15.4394C6.95647 15.3314 7.19885 15.1533 7.27264 15.2271ZM8.87209 15.2218C8.92774 15.2774 8.91083 15.3255 8.79701 15.4352C8.68838 15.5399 8.58444 15.5324 8.58444 15.4198C8.58444 15.3172 8.81134 15.161 8.87209 15.2218ZM6.85782 15.6127C6.92329 15.663 6.9103 15.7177 6.80937 15.8167C6.69387 15.93 6.6524 15.9423 6.60197 15.8781C6.52891 15.7853 6.76437 15.541 6.85782 15.6127ZM8.47147 15.621C8.52951 15.675 8.51305 15.7232 8.39901 15.8332C8.29962 15.929 8.24886 15.94 8.19996 15.8763C8.12673 15.7809 8.38374 15.5392 8.47147 15.621ZM6.46098 16.0191C6.5257 16.07 6.51016 16.119 6.39251 16.235C6.30225 16.3239 6.2452 16.3393 6.20229 16.2863C6.12182 16.187 6.36068 15.9402 6.46098 16.0191ZM8.07779 16.0316C8.13927 16.1057 7.95788 16.3385 7.85819 16.3135C7.75953 16.2887 7.763 16.2079 7.86738 16.0999C7.9738 15.9898 8.02835 15.9721 8.07779 16.0316ZM6.07335 16.4302C6.1279 16.4959 5.97332 16.7169 5.87279 16.7169C5.76327 16.7169 5.75282 16.6134 5.85186 16.5095C5.9644 16.3916 6.02364 16.3704 6.07335 16.4302ZM7.64662 16.4086C7.72543 16.4506 7.71863 16.5099 7.62374 16.6083C7.51393 16.7222 7.44928 16.7435 7.40504 16.6803C7.34182 16.5901 7.54925 16.3568 7.64662 16.4086ZM7.27491 16.8342C7.35482 16.9236 7.11731 17.1745 7.022 17.1013C6.95652 17.051 6.96952 16.9963 7.07045 16.8975C7.18694 16.7834 7.2203 16.7731 7.27491 16.8342ZM6.86765 17.226C6.9233 17.2816 6.90639 17.3297 6.79257 17.4394C6.70113 17.5276 6.64674 17.5406 6.60295 17.485C6.52377 17.3843 6.77762 17.1359 6.86765 17.226Z" fill="#D78108"/>
<path fill-rule="evenodd" clip-rule="evenodd" d="M14.5936 0.290205L14.3051 0.58038L14.7676 1.04444C15.0219 1.29966 15.2471 1.50846 15.2678 1.50846C15.3145 1.50846 15.8532 0.990276 15.8532 0.945428C15.8532 0.905193 14.9514 0 14.9114 0C14.8953 0 14.7524 0.130598 14.5936 0.290205ZM13.4134 1.84981L12.6971 2.56801L12.9943 2.86486L13.2916 3.16168L14.008 2.4435L14.7244 1.7253L14.4271 1.42845L14.1298 1.13164L13.4134 1.84981ZM11.7489 3.48858C11.4425 3.79587 11.1919 4.06046 11.1919 4.07656C11.1919 4.09266 11.3222 4.23596 11.4815 4.39499L11.7712 4.68412L12.3356 4.11911C12.646 3.8084 12.9 3.54015 12.9 3.52304C12.9 3.49496 12.3451 2.92989 12.3175 2.92989C12.3112 2.92989 12.0553 3.18131 11.7489 3.48858ZM5.27183 8.56257C2.95456 10.8919 1.05859 12.8065 1.05859 12.8172C1.05859 12.9986 2.87778 14.8235 3.05861 14.8235C3.06927 14.8235 4.97354 12.9144 7.29027 10.581L11.5026 6.33844L11.4385 6.23691C11.2618 5.95659 11.2292 5.51209 11.363 5.20866L11.4263 5.06518L11.1089 4.74713L10.7915 4.4291L10.6417 4.49365C10.3247 4.63028 9.94269 4.6035 9.64486 4.42379L9.48508 4.3274L5.27183 8.56257Z" fill="#D78108"/>
<path fill-rule="evenodd" clip-rule="evenodd" d="M1.25988 0.290205L1.54842 0.58038L1.08594 1.04444C0.831591 1.29966 0.606458 1.50846 0.58567 1.50846C0.539058 1.50846 0.000344276 0.990276 0.000344276 0.945428C0.000344276 0.905193 0.902089 0 0.942159 0C0.958199 0 1.10116 0.130598 1.25988 0.290205ZM2.44009 1.84981L3.15645 2.56801L2.85917 2.86486L2.56189 3.16168L1.84553 2.4435L1.12916 1.7253L1.42644 1.42845L1.72372 1.13164L2.44009 1.84981ZM4.10461 3.48858C4.41098 3.79587 4.66165 4.06046 4.66165 4.07656C4.66165 4.09266 4.53131 4.23596 4.37198 4.39499L4.08235 4.68412L3.51789 4.11911C3.20747 3.8084 2.95347 3.54015 2.95347 3.52304C2.95347 3.49496 3.5084 2.9299 3.53599 2.9299C3.54233 2.9299 3.79821 3.18132 4.10461 3.48858ZM10.5817 8.56258C12.899 10.8919 14.7949 12.8065 14.7949 12.8172C14.7949 12.9986 12.9757 14.8235 12.7949 14.8235C12.7842 14.8235 10.88 12.9144 8.56325 10.581L4.35096 6.33844L4.41498 6.23691C4.59167 5.95659 4.62433 5.51209 4.49051 5.20866L4.42722 5.06518L4.74466 4.74713L5.06206 4.4291L5.21183 4.49365C5.5288 4.63028 5.91082 4.6035 6.20865 4.42379L6.36844 4.3274L10.5817 8.56258Z" fill="#D78108"/>
</svg>
