<svg width="14" height="18" viewBox="0 0 14 18" fill="none" xmlns="http://www.w3.org/2000/svg">
<path fill-rule="evenodd" clip-rule="evenodd" d="M3.97956 1.37371C3.79973 2.1206 3.65046 2.73374 3.64785 2.73623C3.64161 2.7422 3.60872 2.72222 3.18375 2.45427C2.98523 2.3291 2.81254 2.22376 2.80003 2.22018C2.78534 2.21599 2.7118 2.27892 2.59232 2.39793C1.14727 3.83737 0.663491 5.51581 1.13873 7.44107C1.43981 8.66078 2.21637 10.0619 3.20908 11.1766C3.2996 11.2782 3.37367 11.3641 3.37367 11.3674C3.37367 11.3929 2.82869 10.8879 2.57878 10.6308C-0.356456 7.6107 -0.808386 4.3474 1.34167 1.69763C1.43064 1.588 1.51582 1.48277 1.53096 1.4638C1.5497 1.44035 1.5528 1.42638 1.54065 1.42019C1.44549 1.37168 0.798665 0.950649 0.808903 0.943884C0.816348 0.938975 1.59407 0.727278 2.53719 0.47342C3.48032 0.219576 4.26515 0.00794111 4.28124 0.00311961C4.29735 -0.00170188 4.30961 -0.00082988 4.30853 0.00503814C4.30742 0.0109062 4.1594 0.626812 3.97956 1.37371Z" fill="black"/>
<path fill-rule="evenodd" clip-rule="evenodd" d="M7.86039 0.0902058L7.81508 0.177328H7.37159C6.90267 0.177328 6.83203 0.194897 6.83203 0.311437C6.83203 0.463087 6.84756 0.467734 7.35662 0.467734C7.79259 0.467734 7.83261 0.472235 7.83261 0.521314C7.83261 0.615812 7.97686 0.685568 8.09292 0.647205C8.16757 0.622521 8.21808 0.622521 8.29272 0.647205C8.37385 0.674039 8.40623 0.67128 8.46506 0.632656C8.53222 0.588572 8.54238 0.58863 8.60414 0.633411C8.66081 0.674533 8.68511 0.676188 8.76696 0.644388C8.83888 0.616451 8.88398 0.615086 8.94538 0.6389C9.03131 0.672296 9.15338 0.654843 9.15338 0.609162C9.15338 0.594526 9.19721 0.603383 9.25076 0.628851C9.37135 0.686178 9.49258 0.64857 9.52932 0.542427C9.55233 0.475807 9.57454 0.469738 9.82409 0.46181L10.0939 0.453214L10.1067 0.356944C10.1255 0.214384 10.0607 0.177328 9.79275 0.177328C9.57174 0.177328 9.55958 0.173465 9.51959 0.0902058C9.47469 -0.00324698 9.33448 -0.0295869 9.24143 0.0379326C9.20409 0.0650275 9.18272 0.0650275 9.14538 0.0379326C9.08238 -0.00777741 8.92493 -0.00684802 8.90155 0.0393847C8.8869 0.0684253 8.87262 0.0684253 8.83019 0.0393847C8.76491 -0.00527983 8.60734 -0.00815491 8.57088 0.034651C8.55151 0.0573898 8.53182 0.0573898 8.50048 0.034651C8.44265 -0.00731273 8.30072 -0.00551224 8.24085 0.0379326C8.20351 0.0650275 8.18214 0.0650275 8.14479 0.0379326C8.0519 -0.0294708 7.90898 -0.00321794 7.86039 0.0902058ZM10.9624 0.0379326C10.936 0.0570994 10.9144 0.0963042 10.9144 0.125054C10.9144 0.169283 10.879 0.177386 10.6843 0.177763C10.3872 0.178344 10.3454 0.19934 10.3613 0.340013L10.3741 0.453214L10.6396 0.461723C10.8965 0.46997 10.9058 0.472961 10.9281 0.553781C10.9565 0.656585 11.0947 0.697852 11.1868 0.63103C11.2443 0.589269 11.2564 0.58924 11.3195 0.630681C11.3909 0.677553 11.5548 0.663352 11.5548 0.610324C11.5548 0.595048 11.5998 0.603964 11.6548 0.630129C11.7462 0.673574 11.7632 0.673748 11.8513 0.631872C11.9356 0.591767 11.9537 0.59136 11.9963 0.628532C12.023 0.65191 12.0675 0.671019 12.0951 0.671019C12.1227 0.671019 12.1672 0.65191 12.1939 0.628532C12.2365 0.591302 12.2541 0.591563 12.3362 0.630594C12.4525 0.685858 12.5835 0.645027 12.6026 0.547654C12.6149 0.484926 12.6349 0.481674 13.0957 0.467734L13.5759 0.453214V0.322531V0.191848L13.0857 0.183688C12.6476 0.176398 12.5954 0.170068 12.5954 0.124154C12.5954 0.0194337 12.3907 -0.0400996 12.2877 0.034651C12.2564 0.0573898 12.2367 0.0573898 12.2173 0.034651C12.2025 0.0172847 12.1501 0.00308388 12.1007 0.00308388C12.0514 0.00308388 11.9915 0.0172847 11.9675 0.034651C11.9362 0.0573898 11.9165 0.0573898 11.8971 0.034651C11.8612 -0.0075741 11.7027 -0.00554128 11.6428 0.0379326C11.6055 0.0650275 11.5841 0.0650275 11.5468 0.0379326C11.4869 -0.00551224 11.345 -0.00731273 11.2871 0.034651C11.2558 0.0573898 11.2361 0.0573898 11.2167 0.034651C11.1808 -0.0075741 11.0223 -0.00554128 10.9624 0.0379326ZM10.156 0.523086C10.1191 0.573006 10.0733 0.583897 9.89993 0.583897C9.71238 0.583897 9.67892 0.593509 9.60128 0.669741L9.51379 0.755585L9.51343 8.23889C9.51315 13.7552 9.52496 15.7326 9.55825 15.7617C9.63578 15.8294 10.8016 15.8175 10.8882 15.7481C10.9495 15.699 10.9544 15.1354 10.9544 8.22879V0.762584L10.8508 0.673255C10.7628 0.597342 10.7195 0.583897 10.5632 0.583897C10.4316 0.583897 10.3539 0.566588 10.29 0.523086L10.2008 0.462274L10.156 0.523086ZM6.69515 0.570887C6.65289 0.593509 6.58549 0.648163 6.54535 0.692334C6.44008 0.808177 6.4296 15.6793 6.5347 15.7556C6.63552 15.8287 7.75381 15.8223 7.84642 15.7481C7.9077 15.699 7.91266 15.1361 7.91266 8.23915V0.783319L7.80784 0.683593L7.70306 0.583897H7.27553C7.04043 0.583897 6.83091 0.5717 6.81002 0.556802C6.78644 0.540016 6.74282 0.545331 6.69515 0.570887ZM13.616 0.554856C13.602 0.571235 13.4048 0.584042 13.1633 0.584245L12.7355 0.584623L12.6425 0.688704L12.5496 0.792815L12.5523 8.25762C12.5544 13.7435 12.567 15.7329 12.6001 15.7618C12.6919 15.842 13.8608 15.8161 13.9366 15.7322C14.0131 15.6475 14.024 0.852261 13.9476 0.743998C13.8462 0.600218 13.6652 0.497036 13.616 0.554856ZM6.705 15.947C6.69707 15.9643 6.71236 16.1117 6.73894 16.2746C6.76555 16.4375 6.80654 16.7015 6.82999 16.8612C6.92701 17.5213 7.00261 17.9087 7.04111 17.9429C7.10031 17.9955 7.24963 17.9875 7.32428 17.9276C7.39004 17.8749 7.63422 16.4963 7.64686 16.1061L7.65251 15.9319L7.186 15.9237C6.87742 15.9183 6.71456 15.9262 6.705 15.947ZM9.74496 15.951C9.72815 15.9876 9.7767 16.3226 9.99215 17.6557C10.0621 18.0889 10.3903 18.1228 10.4527 17.7034C10.4859 17.4808 10.5709 16.9464 10.657 16.4198C10.6941 16.193 10.7137 15.9872 10.7006 15.9624C10.6704 15.9053 9.7709 15.8945 9.74496 15.951ZM12.779 15.9422C12.7665 15.9569 12.7744 16.0717 12.7965 16.1972C12.8346 16.4139 12.8936 16.7842 13.0122 17.5505C13.0675 17.9079 13.1079 17.9792 13.2544 17.9792C13.417 17.9792 13.4587 17.8983 13.5312 17.442C13.5693 17.2024 13.626 16.8496 13.6573 16.6579C13.6885 16.4662 13.7191 16.2245 13.7251 16.1206L13.736 15.9319L13.2689 15.9237C13.012 15.9192 12.7915 15.9275 12.779 15.9422Z" fill="black"/>
</svg>
