<svg width="11" height="16" viewBox="0 0 11 16" fill="none" xmlns="http://www.w3.org/2000/svg">
<path fill-rule="evenodd" clip-rule="evenodd" d="M7.26162 0.0532936C7.14436 0.18283 7.09333 0.470261 7.17786 0.52498C7.20115 0.540038 7.34764 0.598174 7.50347 0.654212C7.76024 0.746492 7.79032 0.766694 7.82494 0.869972C7.86274 0.982826 7.87198 0.987089 8.80104 1.32166L9.73896 1.65941L9.83239 1.59132L9.92582 1.52327L10.2465 1.63789L10.5671 1.7525L10.6421 1.68205C10.9148 1.42585 10.8493 1.22863 10.4434 1.08384C10.2044 0.998594 10.1134 0.950509 10.1134 0.909529C10.1134 0.780297 10.0001 0.722838 9.13506 0.413614C8.16865 0.0681151 8.16929 0.0682505 8.07454 0.153999C8.01298 0.209699 7.99512 0.207262 7.69963 0.103037C7.33918 -0.0240969 7.33234 -0.0248752 7.26162 0.0532936ZM3.10192 0.472698L2.80752 0.573776L2.7124 0.503458L2.61727 0.43314L1.68954 0.746526C1.05424 0.961169 0.753066 1.07862 0.733981 1.11916C0.718652 1.15175 0.693611 1.2041 0.678315 1.23554C0.662208 1.26873 0.516699 1.33729 0.331462 1.39895L0.0123914 1.50517L0.00234122 1.63897C-0.0231059 1.97773 0.158273 2.06866 0.576662 1.92684C0.864804 1.82918 0.8713 1.82854 0.928759 1.89202C1.0118 1.98376 0.998638 1.98657 1.98979 1.6656C2.96511 1.34978 2.9644 1.35012 2.97979 1.22085C2.98913 1.14221 3.02372 1.12177 3.30621 1.02773C3.65641 0.911154 3.7003 0.867637 3.6669 0.670015C3.61411 0.357577 3.52637 0.326918 3.10192 0.472698ZM7.2805 2.79962C7.20541 2.854 7.11222 2.96486 7.07239 3.04719L7.00021 3.19625V9.59814V16H7.81269H8.62517L8.61637 9.54515L8.60758 3.0903L8.52653 2.95992C8.3463 2.67002 7.59314 2.57314 7.2805 2.79962ZM4.29374 3.06499C4.09957 3.16252 4.02228 3.31358 4.02279 3.59444C4.02303 3.72662 4.06093 6.53007 4.10698 9.82433C4.15304 13.1186 4.1909 15.8557 4.19114 15.9069L4.19155 16H4.95293H5.71431L5.71218 15.1117C5.70295 11.2842 5.55703 3.35682 5.49382 3.25033C5.35318 3.01325 4.62161 2.90026 4.29374 3.06499ZM0.891029 3.23053C0.745385 3.30325 0.638486 3.47374 0.638114 3.63383C0.637742 3.80002 1.44511 15.6588 1.47022 15.8562L1.48856 16H2.24785C2.97979 16 3.00717 15.9976 3.00717 15.9336C3.00717 15.3008 2.14917 3.48186 2.09814 3.41178C1.92699 3.17676 1.21325 3.06959 0.891029 3.23053Z" fill="#D78108"/>
</svg>
