<svg width="14" height="14" viewBox="0 0 14 14" fill="none" xmlns="http://www.w3.org/2000/svg">
<path fill-rule="evenodd" clip-rule="evenodd" d="M12.7831 0.274082L12.5106 0.548137L12.9474 0.986411C13.1876 1.22745 13.4002 1.42466 13.4198 1.42466C13.4639 1.42466 13.9727 0.93526 13.9727 0.892904C13.9727 0.854904 13.121 0 13.0832 0C13.068 0 12.933 0.123342 12.7831 0.274082ZM11.6685 1.74704L10.9919 2.42534L11.2727 2.7057L11.5534 2.98603L12.23 2.30775L12.9066 1.62945L12.6258 1.3491L12.345 1.06877L11.6685 1.74704ZM10.0964 3.29477C9.80705 3.58499 9.57031 3.83488 9.57031 3.85008C9.57031 3.86529 9.69341 4.00063 9.84389 4.15082L10.1174 4.42389L10.6505 3.89027C10.9437 3.59682 11.1836 3.34348 11.1836 3.32732C11.1836 3.30079 10.6595 2.76712 10.6334 2.76712C10.6274 2.76712 10.3858 3.00458 10.0964 3.29477ZM3.97917 8.08688C1.79063 10.2868 0 12.0951 0 12.1052C0 12.2765 1.71812 14 1.88891 14C1.89897 14 3.69745 12.1969 5.88547 9.99315L9.86374 5.9863L9.80328 5.89041C9.6364 5.62567 9.60556 5.20586 9.73194 4.91929L9.79171 4.78378L9.49192 4.4834L9.19215 4.18304L9.0507 4.244C8.75134 4.37304 8.39054 4.34775 8.10925 4.17803L7.95834 4.08699L3.97917 8.08688Z" fill="#D78108"/>
</svg>
