<svg width="20" height="20" viewBox="0 0 20 20" fill="none" xmlns="http://www.w3.org/2000/svg">
<path d="M20 10C20 15.5228 15.5228 20 10 20C4.47715 20 0 15.5228 0 10C0 4.47715 4.47715 0 10 0C15.5228 0 20 4.47715 20 10Z" fill="#D78108" fill-opacity="0.2"/>
<g clip-path="url(#clip0_193_1521)">
<path fill-rule="evenodd" clip-rule="evenodd" d="M9.90445 3.51127C9.62385 3.59897 9.63569 3.51605 9.63569 5.39475V7.00866L8.95569 7.04086C8.5817 7.05858 8.15991 7.08154 8.0184 7.09188C7.23014 7.14942 7.04471 7.16505 6.98921 7.17863C6.918 7.19602 6.55085 7.23991 6.42561 7.24601L6.33984 7.25018V6.88354V6.51693L6.41336 6.47922C6.45379 6.45849 6.49055 6.43325 6.49503 6.42315C6.49954 6.41306 6.51794 6.40478 6.53593 6.40478C6.56725 6.40478 6.71853 6.33308 6.74414 6.30607C6.75091 6.29897 6.80604 6.27172 6.86669 6.2455C6.92734 6.21928 6.98247 6.19171 6.98921 6.18424C6.99595 6.17676 7.05108 6.1492 7.11173 6.12298C7.17238 6.09676 7.22752 6.06892 7.23426 6.0611C7.25251 6.03993 7.42164 5.9637 7.45034 5.9637C7.46401 5.9637 7.47888 5.955 7.48339 5.94436C7.48788 5.9337 7.57621 5.88291 7.67967 5.83145C7.86137 5.74107 7.9133 5.66964 7.79727 5.66964C7.77289 5.66964 7.74927 5.66099 7.74476 5.65043C7.74027 5.63987 7.41686 5.47172 7.02609 5.27674C6.63532 5.08178 6.30213 4.91123 6.28569 4.89775C6.07206 4.72274 5.90293 4.7101 5.74355 4.85722C5.67423 4.92125 5.64147 4.97188 5.64147 5.01506C5.64147 5.05002 5.63044 5.08546 5.61696 5.09379C5.60121 5.10354 5.59246 5.5135 5.59246 6.24332V7.37768L5.42705 7.41899C5.33607 7.44173 5.22857 7.47028 5.18814 7.48241C5.1477 7.49456 5.07051 7.51213 5.0166 7.52144C4.96269 7.53076 4.90756 7.54614 4.89408 7.55565C4.8806 7.56516 4.80342 7.59273 4.72255 7.61686C4.64169 7.64102 4.56504 7.67041 4.55225 7.68217C4.53945 7.69391 4.5036 7.70351 4.47261 7.70351C4.44161 7.70351 4.41625 7.71454 4.41625 7.72802C4.41625 7.74149 4.40461 7.75252 4.39037 7.75252C4.36751 7.75252 4.25042 7.80815 4.01192 7.93236C3.88891 7.99644 3.65717 8.23511 3.60625 8.35018C3.51987 8.54551 3.45616 14.3578 3.53764 14.612C3.59493 14.7908 3.77536 15.0548 3.84022 15.0548C3.84899 15.0548 3.87151 15.0686 3.89031 15.0855C3.95725 15.1455 4.05978 15.2152 4.12219 15.2431C4.14241 15.2521 4.16446 15.2662 4.1712 15.2743C4.18184 15.287 4.26983 15.3259 4.453 15.3988C4.47996 15.4095 4.56266 15.4372 4.63679 15.4604C4.71091 15.4836 4.79361 15.5111 4.82057 15.5216C4.9523 15.5725 5.13153 15.6184 5.19887 15.6184C5.24013 15.6184 5.2739 15.627 5.2739 15.6374C5.2739 15.6479 5.38694 15.6763 5.52507 15.7006C5.6632 15.7249 5.81484 15.7542 5.86201 15.7657C6.00965 15.8016 6.41238 15.8635 6.4988 15.8635C6.54424 15.8635 6.61527 15.8738 6.65666 15.8864C6.75353 15.916 7.18667 15.9637 7.57732 15.9878C7.74579 15.9982 8.09865 16.0209 8.36146 16.0381C8.98801 16.0792 11.0214 16.0798 11.6328 16.039C12.7165 15.9667 13.1436 15.9284 13.3301 15.8868C13.3876 15.874 13.4748 15.8635 13.524 15.8635C13.6111 15.8635 13.9724 15.8063 14.1445 15.7652C14.1917 15.754 14.3433 15.7249 14.4814 15.7006C14.6196 15.6763 14.7326 15.6479 14.7326 15.6374C14.7326 15.627 14.7574 15.6185 14.7877 15.6186C14.8642 15.6189 15.1841 15.5368 15.1941 15.5143C15.1986 15.5042 15.2203 15.4959 15.2423 15.4959C15.2947 15.4959 15.4734 15.4322 15.6274 15.3586C15.6949 15.3263 15.7639 15.2999 15.7805 15.2999C15.7972 15.2999 15.8108 15.2889 15.8108 15.2754C15.8108 15.2619 15.8315 15.2509 15.8568 15.2509C15.8821 15.2509 15.9165 15.2343 15.9333 15.2141C15.9501 15.1939 15.979 15.1774 15.9976 15.1774C16.0162 15.1774 16.0313 15.1671 16.0313 15.1545C16.0313 15.1419 16.0532 15.1247 16.0798 15.1163C16.1419 15.0965 16.3673 14.8707 16.3871 14.8083C16.3954 14.7822 16.4113 14.7608 16.4224 14.7608C16.4833 14.7608 16.533 8.58744 16.4726 8.52706C16.459 8.51348 16.4479 8.47954 16.4479 8.45168C16.4479 8.34695 16.2253 8.08524 16.0313 7.96184C15.8642 7.85551 15.6659 7.75252 15.6283 7.75252C15.6074 7.75252 15.5903 7.74149 15.5903 7.72802C15.5903 7.71454 15.5649 7.70351 15.5339 7.70351C15.5029 7.70351 15.4671 7.694 15.4543 7.68236C15.4319 7.66205 15.0215 7.53144 14.8184 7.47998C14.7645 7.46631 14.6873 7.44577 14.6468 7.43431C14.6064 7.42286 14.5375 7.40617 14.4937 7.39728L14.4141 7.38106V6.94407V6.50706L15.0941 6.16811C15.4681 5.98171 15.7777 5.82086 15.7822 5.81067C15.7867 5.8005 15.8088 5.79182 15.8312 5.79138C15.9584 5.78896 15.9528 5.66964 15.8254 5.66964C15.8061 5.66964 15.7867 5.66092 15.7822 5.65024C15.7743 5.63147 15.6695 5.57665 14.7886 5.13055C14.5624 5.01599 14.3736 4.91398 14.3691 4.90388C14.3646 4.89378 14.3453 4.8855 14.3263 4.8855C14.3072 4.8855 14.2915 4.87722 14.2914 4.86712C14.2911 4.82882 14.1367 4.76298 14.0473 4.76298C13.9325 4.76298 13.8347 4.81172 13.7463 4.91297L13.6789 4.99016V6.12888V7.26758L13.5748 7.25319C13.5175 7.2453 13.3824 7.22864 13.2746 7.21622C13.1668 7.20377 13.051 7.18686 13.0173 7.17863C12.9836 7.17037 12.7961 7.15189 12.6007 7.13751C12.4053 7.12312 12.1186 7.102 11.9636 7.09053C11.5283 7.05833 10.7716 7.0194 10.5607 7.01834L10.3708 7.01739V6.12298C10.3708 5.34427 10.3756 5.22856 10.4076 5.22856C10.4278 5.22856 10.4443 5.21754 10.4443 5.20406C10.4443 5.19058 10.4619 5.17956 10.4834 5.17956C10.5267 5.17956 10.6724 5.10438 10.6853 5.07541C10.6898 5.06532 10.7082 5.05703 10.7263 5.05703C10.7664 5.05703 11.164 4.85661 11.1754 4.83061C11.1799 4.82037 11.2002 4.81199 11.2206 4.81199C11.2623 4.81199 11.4079 4.73612 11.4204 4.70784C11.4249 4.69775 11.4453 4.68947 11.4657 4.68947C11.4997 4.68947 11.6407 4.62117 11.6696 4.59076C11.6763 4.58366 11.7314 4.55668 11.7921 4.53082C11.8527 4.50495 11.9064 4.48098 11.9114 4.47753C11.9289 4.4654 11.8523 4.40703 11.7553 4.35861C11.7014 4.33168 11.6518 4.30384 11.6451 4.29671C11.6383 4.2896 11.5832 4.26235 11.5225 4.23613C11.4619 4.20991 11.4067 4.18235 11.4 4.17487C11.3933 4.1674 11.3381 4.13983 11.2775 4.11361C11.2168 4.08739 11.1617 4.06014 11.155 4.05304C11.1303 4.02704 10.7253 3.83061 10.6975 3.8312C10.6818 3.83154 10.6653 3.82353 10.6608 3.81343C10.6563 3.80334 10.5699 3.75298 10.4688 3.70157C10.3678 3.65016 10.2575 3.5876 10.2238 3.56251C10.1521 3.50916 9.99294 3.48363 9.90445 3.51127ZM9.63569 8.62341V9.4943L9.15173 9.48074C8.88554 9.47327 8.52993 9.45602 8.36146 9.44237C8.19299 9.42872 7.96694 9.41299 7.85912 9.40743C7.64877 9.39657 7.02952 9.33306 6.76867 9.29556C6.68107 9.28297 6.55426 9.26569 6.48687 9.25717C6.32242 9.23634 6.3284 9.25986 6.32796 8.63056C6.32752 7.97828 6.32335 7.99756 6.46533 7.99756C6.52471 7.99756 6.59246 7.98737 6.61586 7.97492C6.6929 7.93393 7.42566 7.86433 8.18993 7.82545C8.46622 7.81138 8.82459 7.7908 8.98632 7.7797C9.14805 7.7686 9.36031 7.75794 9.45803 7.75602L9.63569 7.75252V8.62341ZM11.6696 7.81606C12.5559 7.86355 12.7719 7.88389 13.5441 7.99257L13.6667 8.00982L13.6732 8.62593L13.6798 9.24207L13.5752 9.25766C13.2832 9.30123 13.1237 9.31953 12.8213 9.34418C12.6393 9.35903 12.4434 9.38189 12.386 9.395C12.3285 9.40811 12.1899 9.41882 12.078 9.41882C11.9661 9.41882 11.8147 9.42911 11.7415 9.44171C11.6682 9.4543 11.3299 9.47202 10.9896 9.48109L10.3708 9.4976V8.6214V7.74519L10.6955 7.76323C10.8741 7.77315 11.3124 7.79692 11.6696 7.81606ZM5.59246 8.63755V9.10597L5.52507 9.08889C5.48802 9.07951 5.41635 9.06603 5.36579 9.05895C5.31526 9.05189 5.2739 9.03748 5.2739 9.02697C5.2739 9.01643 5.22283 9.00016 5.16045 8.9908C5.09803 8.98144 5.02361 8.96502 4.99504 8.95434C4.96647 8.94366 4.88244 8.91543 4.80832 8.89163C4.73419 8.86784 4.66305 8.83887 4.65026 8.82728C4.63745 8.81569 4.60804 8.80621 4.58491 8.80621C4.56178 8.80621 4.53918 8.79795 4.53468 8.78783C4.53019 8.77771 4.47415 8.74478 4.41012 8.71464C4.27549 8.65124 4.26883 8.631 4.36111 8.56617C4.44815 8.505 4.7522 8.36513 4.7981 8.36513C4.81755 8.36513 4.85265 8.35531 4.87605 8.3433C4.93993 8.31049 5.18569 8.24261 5.24053 8.24261C5.26697 8.24261 5.29909 8.23244 5.31188 8.21999C5.33413 8.19838 5.41862 8.18066 5.53732 8.17277L5.59246 8.1691V8.63755ZM14.7071 8.21845C14.7279 8.22879 14.8276 8.25655 14.9286 8.28013C15.0297 8.3037 15.1229 8.33247 15.1357 8.34406C15.1485 8.35565 15.1789 8.36513 15.2032 8.36513C15.28 8.36513 15.7128 8.58437 15.7128 8.62329C15.7128 8.65869 15.4425 8.80621 15.3776 8.80621C15.3598 8.80621 15.3451 8.81447 15.345 8.82459C15.3449 8.83471 15.276 8.86326 15.1918 8.88806C15.1077 8.91285 15.0169 8.94253 14.9899 8.95402C14.963 8.96549 14.8858 8.98718 14.8184 9.0022C14.6577 9.03805 14.5373 9.06797 14.4692 9.08897L14.4141 9.10597V8.63524V8.16449L14.5417 8.18206C14.612 8.19171 14.6864 8.20808 14.7071 8.21845ZM4.38478 9.50799C4.5126 9.56332 4.55688 9.58026 4.69805 9.6278C4.76543 9.65049 4.84262 9.67744 4.86958 9.68771C4.96527 9.72412 5.1406 9.76698 5.24327 9.77906C5.30056 9.7858 5.34741 9.80124 5.34741 9.81337C5.34741 9.82547 5.38326 9.83547 5.42705 9.83554C5.47084 9.83562 5.54894 9.8474 5.60059 9.86174C5.65225 9.8761 5.76803 9.89742 5.85789 9.90913C5.94775 9.92087 6.12053 9.94868 6.24183 9.97096C6.36312 9.99325 6.55058 10.017 6.6584 10.0238C6.76622 10.0306 6.86492 10.0461 6.87772 10.0583C6.89053 10.0705 6.95696 10.0804 7.02538 10.0804C7.0938 10.0804 7.24322 10.0925 7.35741 10.1072C8.46396 10.2498 11.5426 10.2498 12.6491 10.1072C12.7633 10.0925 12.9143 10.0804 12.9846 10.0804C13.0549 10.0804 13.1192 10.0694 13.1276 10.0559C13.1359 10.0425 13.21 10.0314 13.2923 10.0314C13.4407 10.0314 13.8179 9.97524 13.9625 9.93163C14.0038 9.91913 14.0755 9.90874 14.1217 9.90852C14.168 9.90832 14.2719 9.89217 14.3528 9.87264C14.4337 9.85311 14.5356 9.83674 14.5795 9.83628C14.6233 9.83579 14.6591 9.82552 14.6591 9.81347C14.6591 9.80141 14.7005 9.78661 14.751 9.78058C14.8472 9.76911 15.0532 9.71954 15.1369 9.68768C15.1639 9.67744 15.2411 9.65049 15.3085 9.6278C15.4496 9.58026 15.4939 9.56332 15.6217 9.50799C15.6727 9.48589 15.7251 9.46783 15.7381 9.46783C15.7532 9.46783 15.7618 10.3726 15.7618 11.9583V14.4488L15.6944 14.5074C15.6573 14.5396 15.6022 14.5724 15.5719 14.5803C15.5416 14.5882 15.5168 14.6044 15.5168 14.6164C15.5168 14.6284 15.5015 14.6383 15.4828 14.6383C15.4641 14.6383 15.4173 14.6547 15.3786 14.6749C15.3401 14.695 15.2898 14.7115 15.267 14.7116C15.2442 14.7117 15.2196 14.7215 15.2123 14.7334C15.2049 14.7452 15.1739 14.7609 15.1434 14.7682C15.0682 14.7862 14.8135 14.8552 14.7081 14.8862C14.6609 14.9 14.5452 14.9276 14.4508 14.9475C14.3565 14.9673 14.2297 14.9947 14.169 15.0084C13.8668 15.0764 12.8559 15.2139 12.3802 15.2516C12.2387 15.2628 12.0429 15.2797 11.9452 15.2892L11.7676 15.3065V14.0978C11.7676 13.3245 11.7578 12.8356 11.7406 12.7406C11.6935 12.4812 11.6179 12.234 11.5716 12.1878C11.5648 12.1811 11.5317 12.1214 11.498 12.0553C11.4298 11.9215 11.0311 11.5017 10.9721 11.5017C10.9514 11.5017 10.9344 11.4907 10.9344 11.4772C10.9344 11.4637 10.924 11.4527 10.9113 11.4527C10.8986 11.4527 10.8466 11.4281 10.7957 11.3981C10.6779 11.3286 10.476 11.2585 10.3906 11.2575C10.3544 11.257 10.3179 11.2456 10.3096 11.2321C10.3008 11.218 10.1709 11.2076 10.0033 11.2076C9.83557 11.2076 9.70567 11.218 9.69695 11.2321C9.68862 11.2456 9.65213 11.257 9.61587 11.2575C9.53054 11.2585 9.32858 11.3286 9.21081 11.3981C9.15994 11.4281 9.10789 11.4527 9.0952 11.4527C9.08248 11.4527 9.07209 11.4637 9.07209 11.4772C9.07209 11.4907 9.05545 11.5017 9.03509 11.5017C8.97529 11.5017 8.57543 11.921 8.50849 12.054C8.47479 12.1209 8.43997 12.1811 8.43112 12.1879C8.40542 12.2075 8.29427 12.5781 8.26535 12.7406C8.24884 12.8335 8.23894 13.3417 8.23894 14.0978V15.3065L8.06128 15.2892C7.96356 15.2797 7.76784 15.2628 7.62633 15.2516C7.15057 15.2139 6.13969 15.0764 5.8375 15.0084C5.77685 14.9947 5.65004 14.9671 5.5557 14.9469C5.2741 14.8868 5.23827 14.8776 5.21264 14.8583C5.19916 14.8481 5.14317 14.8324 5.08818 14.8234C4.97639 14.8049 4.81807 14.7542 4.79244 14.7286C4.7832 14.7193 4.75987 14.7118 4.74061 14.7118C4.68962 14.7118 4.36442 14.5532 4.29985 14.4969L4.24471 14.4487V11.9583C4.24471 10.3726 4.25332 9.46783 4.26839 9.46783C4.2814 9.46783 4.33379 9.48589 4.38478 9.50799ZM10.2466 11.9711C10.4698 12.0434 10.8609 12.3147 10.8609 12.3973C10.8609 12.4035 10.8881 12.4649 10.9212 12.5337C11.0181 12.7343 11.0324 12.9462 11.0324 14.1707V15.3169L10.5852 15.338C10.0319 15.3642 9.97459 15.3642 9.42128 15.338L8.97407 15.3169V14.1707C8.97407 12.9161 8.9874 12.7344 9.09564 12.5148C9.30233 12.0955 9.84258 11.8403 10.2466 11.9711Z" fill="#D78108"/>
</g>
<defs>
<clipPath id="clip0_193_1521">
<rect width="13" height="13" fill="white" transform="translate(3.5 3.5)"/>
</clipPath>
</defs>
</svg>
