<svg width="14" height="18" viewBox="0 0 14 18" fill="none" xmlns="http://www.w3.org/2000/svg">
<path d="M11.1141 1.0686L12.0463 2.02842L11.8701 2.46405L11.2218 1.9194L10.6562 1.21898L11.1141 1.0686Z" fill="#D78108"/>
<path d="M2.71734 1.0686L1.78516 2.02842L1.96161 2.46405L2.64675 1.77936L3.17522 1.21898L2.71734 1.0686Z" fill="#D78108"/>
<path d="M2.17145 4.93873H1.18555V10.187H1.19544C1.73447 10.187 2.17145 9.75 2.17145 9.21097V4.93873Z" fill="#D78108"/>
<path d="M11.7812 4.93873H12.7669V10.187H12.7573C12.218 10.187 11.7812 9.75 11.7812 9.21097V4.93873Z" fill="#D78108"/>
<path d="M0.933584 11.8414C0.871768 13.3097 1.32156 14.6051 2.24205 15.6C3.35428 16.8026 5.07747 17.4922 6.9697 17.4922C10.4116 17.4922 12.8411 15.1817 12.9579 11.8414H0.933584ZM6.9697 18C4.93631 18 3.07712 17.2512 1.86913 15.945C0.801411 14.7908 0.307785 13.2773 0.441307 11.5676L0.459515 11.3334H13.4704V11.5874C13.4704 15.3631 10.7973 18 6.9697 18Z" fill="#D78108"/>
<path d="M12.5366 14.92H1.27539V14.4129H12.5366V14.92Z" fill="#D78108"/>
<path d="M11.1756 16.5533H2.61719V16.0455H11.1756V16.5533Z" fill="#D78108"/>
<path d="M8.65986 17.6356L7.95898 14.5316V11.5874H8.4643V14.503L9.15281 17.5235L8.65986 17.6356Z" fill="#D78108"/>
<path d="M5.21276 17.6197L4.7207 17.5071L5.40899 14.495V11.5874H5.91363L5.90734 14.5797L5.21276 17.6197Z" fill="#D78108"/>
<path d="M0.583419 6.82667L0.739195 9.20938L0.910706 6.82667H0.583419ZM0.979938 12.9329L0.473274 12.9311L0.0410156 6.31866H1.45648L0.979938 12.9329Z" fill="#D78108"/>
<path d="M0.581116 8.84207L0.3125 8.41094L0.960551 8.00678L1.22917 8.43791L0.581116 8.84207Z" fill="#D78108"/>
<path d="M0.3125 5.17203H1.09205V6.57266H0.3125V5.17203Z" fill="#D78108"/>
<path d="M0 5.26559H0.311328V6.16809H0V5.26559Z" fill="#D78108"/>
<path d="M12.9725 6.82671L13.131 9.20942L13.3 6.82671H12.9725ZM13.3765 12.9327L12.8698 12.9314L12.4297 6.3187H13.8452L13.3765 12.9327Z" fill="#D78108"/>
<path d="M13.3024 8.84207L12.6543 8.43791L12.9229 8.00678L13.571 8.41094L13.3024 8.84207Z" fill="#D78108"/>
<path d="M13.5714 5.17203H12.9551V6.57266H13.5714V5.17203Z" fill="#D78108"/>
<path d="M13.8838 5.26559H13.5723V6.16809H13.8838V5.26559Z" fill="#D78108"/>
<path d="M13.2431 7.0957H0.694548C0.387044 2.55777 3.55065 -4.51154e-05 6.96984 -4.51154e-05C10.3872 -4.51154e-05 13.2431 2.65038 13.2431 7.0957Z" fill="#D78108"/>
<mask id="mask0_211_338" style="mask-type:luminance" maskUnits="userSpaceOnUse" x="0" y="0" width="14" height="8">
<path d="M13.2431 7.0957H0.694548C0.387044 2.55777 3.55065 -4.51154e-05 6.96984 -4.51154e-05C10.3872 -4.51154e-05 13.2431 2.65038 13.2431 7.0957Z" fill="white"/>
</mask>
<g mask="url(#mask0_211_338)">
<path d="M14.1666 -3.61906C14.1666 2.4292 9.26362 7.33218 3.21514 7.33218C-2.83312 7.33218 -7.73633 2.4292 -7.73633 -3.61906C-7.73633 -9.66754 -2.83312 -14.5705 3.21514 -14.5705C9.26362 -14.5705 14.1666 -9.66754 14.1666 -3.61906Z" fill="#D78108"/>
</g>
<path d="M7.8768 2.46404C7.8768 2.84235 7.43083 3.14896 6.88056 3.14896C6.33051 3.14896 5.88477 2.84235 5.88477 2.46404C5.88477 2.08595 6.33051 1.77935 6.88056 1.77935C7.43083 1.77935 7.8768 2.08595 7.8768 2.46404Z" fill="white"/>
<path d="M7.50208 2.21528C7.50208 2.45602 7.22447 2.65091 6.8819 2.65091C6.53933 2.65091 6.26172 2.45602 6.26172 2.21528C6.26172 1.97454 6.53933 1.77942 6.8819 1.77942C7.22447 1.77942 7.50208 1.97454 7.50208 2.21528Z" fill="#D78108"/>
<path d="M6.8804 1.89309C6.60594 1.89309 6.37397 2.04077 6.37397 2.21521C6.37397 2.38964 6.60594 2.53709 6.8804 2.53709C7.15486 2.53709 7.38684 2.38964 7.38684 2.21521C7.38684 2.04077 7.15486 1.89309 6.8804 1.89309ZM6.8804 2.7648C6.46882 2.7648 6.14648 2.52338 6.14648 2.21521C6.14648 1.90703 6.46882 1.6656 6.8804 1.6656C7.29198 1.6656 7.61455 1.90703 7.61455 2.21521C7.61455 2.52338 7.29198 2.7648 6.8804 2.7648Z" fill="white"/>
<path d="M13.2431 7.09575H0.694548C0.387044 7.48778 3.55065 7.70874 6.96984 7.70874C10.3872 7.70874 13.2431 7.47969 13.2431 7.09575Z" fill="#D78108"/>
</svg>
