<svg width="15" height="18" viewBox="0 0 15 18" fill="none" xmlns="http://www.w3.org/2000/svg">
<path fill-rule="evenodd" clip-rule="evenodd" d="M10.2486 1.37369C10.4325 2.12058 10.5851 2.73371 10.5878 2.7362C10.5941 2.74217 10.6278 2.72218 11.0623 2.45424C11.2653 2.32907 11.4419 2.22373 11.4547 2.22016C11.4697 2.21596 11.5449 2.27889 11.6671 2.3979C13.1448 3.83732 13.6395 5.51574 13.1535 7.44098C12.8456 8.66069 12.0515 10.0618 11.0364 11.1765C10.9439 11.2781 10.8681 11.364 10.8681 11.3673C10.8681 11.3928 11.4254 10.8878 11.681 10.6307C14.6824 7.61062 15.1446 4.34735 12.946 1.69761C12.855 1.58797 12.7679 1.48275 12.7524 1.46378C12.7333 1.44033 12.7301 1.42636 12.7425 1.42017C12.8398 1.37166 13.5012 0.950634 13.4908 0.943869C13.4832 0.93896 12.6879 0.727265 11.7235 0.47341C10.7591 0.219568 9.95654 0.00793538 9.94008 0.00311393C9.9236 -0.00170751 9.91107 -0.000835517 9.91218 0.00503244C9.91331 0.0109004 10.0647 0.626799 10.2486 1.37369Z" fill="#9D9DA0"/>
<path fill-rule="evenodd" clip-rule="evenodd" d="M1.43103 0.0900828L1.3847 0.177204H0.931198C0.451704 0.177204 0.379468 0.194773 0.379468 0.311312C0.379468 0.462961 0.395348 0.467607 0.915891 0.467607C1.3617 0.467607 1.40263 0.472109 1.40263 0.521187C1.40263 0.615684 1.55013 0.685439 1.66881 0.647077C1.74514 0.622392 1.79679 0.622392 1.87312 0.647077C1.95608 0.67391 1.98919 0.671151 2.04935 0.632527C2.11802 0.588444 2.12842 0.588502 2.19157 0.633282C2.24952 0.674404 2.27436 0.676059 2.35806 0.64426C2.4316 0.616323 2.47773 0.614958 2.54051 0.638771C2.62838 0.672167 2.7532 0.654714 2.7532 0.609034C2.7532 0.594397 2.79802 0.603255 2.85278 0.628723C2.97609 0.686049 3.10005 0.648441 3.13762 0.542299C3.16116 0.47568 3.18387 0.469611 3.43905 0.461683L3.71497 0.453087L3.72799 0.356818C3.74726 0.214259 3.68105 0.177204 3.407 0.177204C3.18101 0.177204 3.16856 0.173341 3.12768 0.0900828C3.08176 -0.00336901 2.93839 -0.0297087 2.84324 0.0378101C2.80506 0.0649047 2.7832 0.0649047 2.74502 0.0378101C2.6806 -0.0078994 2.51959 -0.00697002 2.49569 0.0392622C2.48071 0.0683025 2.4661 0.0683025 2.42272 0.0392622C2.35597 -0.00540184 2.19484 -0.00827689 2.15756 0.0345286C2.13775 0.0572672 2.11761 0.0572672 2.08557 0.0345286C2.02643 -0.00743473 1.8813 -0.00563425 1.82008 0.0378101C1.78189 0.0649047 1.76004 0.0649047 1.72186 0.0378101C1.62687 -0.0295925 1.48072 -0.00333997 1.43103 0.0900828ZM4.60308 0.0378101C4.57606 0.0569767 4.55396 0.0961812 4.55396 0.124931C4.55396 0.16916 4.51774 0.177262 4.31864 0.177639C4.01488 0.17822 3.97215 0.199216 3.9884 0.339888L4.00146 0.453087L4.27296 0.461596C4.53563 0.469843 4.54521 0.472834 4.568 0.553654C4.59698 0.656457 4.7383 0.697723 4.83247 0.630901C4.89132 0.589141 4.90372 0.589112 4.96822 0.630553C5.04123 0.677424 5.20879 0.663223 5.20879 0.610195C5.20879 0.59492 5.25483 0.603836 5.3111 0.630001C5.40458 0.673445 5.42193 0.673619 5.51197 0.631743C5.59824 0.591639 5.61674 0.591232 5.66025 0.628404C5.68759 0.651781 5.73305 0.67089 5.76129 0.67089C5.78953 0.67089 5.835 0.651781 5.86234 0.628404C5.90589 0.591174 5.92389 0.591435 6.00788 0.630466C6.12673 0.685729 6.26076 0.644899 6.28024 0.547526C6.29281 0.484799 6.31331 0.481547 6.78446 0.467607L7.27557 0.453087V0.322406V0.191724L6.77422 0.183564C6.32628 0.176275 6.27287 0.169944 6.27287 0.124031C6.27287 0.0193114 6.06362 -0.0402213 5.95827 0.0345286C5.92623 0.0572672 5.90609 0.0572672 5.88628 0.0345286C5.87114 0.0171624 5.81753 0.00296178 5.76706 0.00296178C5.7166 0.00296178 5.65534 0.0171624 5.63086 0.0345286C5.59882 0.0572672 5.57868 0.0572672 5.55887 0.0345286C5.52208 -0.00769609 5.36009 -0.00566329 5.29883 0.0378101C5.26064 0.0649047 5.23879 0.0649047 5.2006 0.0378101C5.13938 -0.00563425 4.99425 -0.00743473 4.93511 0.0345286C4.90307 0.0572672 4.88293 0.0572672 4.86312 0.0345286C4.82633 -0.00769609 4.66434 -0.00566329 4.60308 0.0378101ZM3.77841 0.522958C3.74076 0.572878 3.6939 0.583769 3.5166 0.583769C3.32482 0.583769 3.29061 0.593381 3.21121 0.669612L3.12174 0.755455L3.12138 8.23869C3.12109 13.755 3.13316 15.7323 3.16721 15.7614C3.24649 15.8292 4.43859 15.8173 4.52716 15.7478C4.58982 15.6987 4.59489 15.1351 4.59489 8.22858V0.762454L4.48893 0.673126C4.39894 0.597214 4.35469 0.583769 4.19488 0.583769C4.06023 0.583769 3.98079 0.566461 3.91551 0.522958L3.82429 0.462148L3.77841 0.522958ZM0.2395 0.570759C0.196282 0.593381 0.127362 0.648035 0.0863125 0.692205C-0.021324 0.808047 -0.032047 15.679 0.0754258 15.7553C0.17852 15.8284 1.32205 15.822 1.41675 15.7478C1.47941 15.6987 1.48448 15.1359 1.48448 8.23895V0.783189L1.3773 0.683464L1.27015 0.583769H0.832974C0.592572 0.583769 0.378322 0.571572 0.356959 0.556674C0.332853 0.539889 0.288243 0.545203 0.2395 0.570759ZM7.3165 0.554728C7.30222 0.571107 7.10061 0.583914 6.85366 0.584117L6.41612 0.584495L6.32105 0.688575L6.22601 0.792685L6.22884 8.25742C6.23097 13.7433 6.2439 15.7326 6.27774 15.7615C6.37159 15.8417 7.56685 15.8158 7.64436 15.7319C7.72261 15.6472 7.7337 0.85213 7.65562 0.743868C7.55191 0.600089 7.36688 0.496909 7.3165 0.554728ZM0.249568 15.9467C0.241465 15.964 0.257098 16.1114 0.284273 16.2743C0.311489 16.4372 0.353398 16.7012 0.377381 16.8609C0.476587 17.521 0.553897 17.9084 0.593268 17.9426C0.653798 17.9952 0.806495 17.9872 0.882822 17.9273C0.950065 17.8746 1.19976 16.496 1.21269 16.1058L1.21846 15.9316L0.741422 15.9234C0.425879 15.918 0.259349 15.9259 0.249568 15.9467ZM3.35814 15.9507C3.34095 15.9873 3.39059 16.3223 3.6109 17.6554C3.68248 18.0886 4.01799 18.1225 4.08188 17.703C4.11577 17.4805 4.20273 16.9461 4.29077 16.4195C4.32866 16.1927 4.34872 15.9869 4.33534 15.9621C4.30444 15.905 3.38466 15.8942 3.35814 15.9507ZM6.46069 15.942C6.44788 15.9566 6.4559 16.0714 6.47849 16.197C6.51745 16.4136 6.57786 16.7839 6.69912 17.5502C6.75568 17.9076 6.79694 17.9789 6.94681 17.9789C7.11305 17.9789 7.1557 17.898 7.22986 17.4417C7.26878 17.2021 7.32677 16.8493 7.35874 16.6576C7.3907 16.4659 7.42193 16.2242 7.42806 16.1204L7.43928 15.9316L6.96158 15.9234C6.69888 15.9189 6.47345 15.9273 6.46069 15.942Z" fill="#9D9DA0"/>
</svg>
